<svg id="bitcoin" xmlns="http://www.w3.org/2000/svg" viewBox="0 0 18 18"><path d="M9.5 8.4c.4-.1.6-.3.6-.7 0-.4-.2-.6-.6-.7-.2 0-.5-.1-1-.1h-.1v1.5h.1c.5.1.8.1 1 0zm.3.9c-.3-.1-.7-.1-1.2-.1h-.2v1.7h.2c.5 0 .9 0 1.2-.1.5-.1.8-.4.8-.7-.1-.4-.4-.7-.8-.8zm5.7-1.9c-.3-1.2-.8-2.2-1.7-3-.8-.9-1.8-1.5-3-1.8s-2.2-.4-3.4-.1c-1.2.3-2.2.8-3 1.7C3.5 5 2.9 6 2.6 7.1c-.3 1.1-.4 2.3-.1 3.5.3 1.2.8 2.2 1.7 3 .8.9 1.8 1.5 3 1.8 1.1.3 2.3.4 3.5.1 1.2-.3 2.2-.8 3-1.7.9-.8 1.5-1.8 1.8-3 .3-1.1.3-2.2 0-3.4zM12 10.2c-.1.6-.3 1-.7 1.2-.4.2-.9.3-1.6.4v1.3H9v-1.3h-.6V13h-.8v-1.3H6.1l.1-.9h.6c.2 0 .3-.1.3-.2V7.2c-.1-.2-.2-.3-.5-.3h-.5v-.8h1.5V4.8h.8V6H9V4.8h.7v1.3c.5.1 1 .2 1.3.3.4.2.5.6.6 1 .1.6-.2 1-.6 1.3.7.2 1.1.7 1 1.5zM9 0C4 0 0 4 0 9s4 9 9 9 9-4 9-9-4-9-9-9zm0 17c-4.4 0-8-3.6-8-8s3.6-8 8-8 8 3.6 8 8-3.6 8-8 8z"/></svg>