<svg id="Слой_1" xmlns="http://www.w3.org/2000/svg" viewBox="0 0 35.3 52.6"><path d="M.8 25.4l16.6 8.1c.1 0 .1.1.2.1s.2 0 .2-.1l16.6-8.1.3-.3c.1-.1 0-.3-.1-.4L18.1.2 18 .1l-.1-.1h-.2l-.1.1-.1.1L.6 24.6c-.1.1-.1.3-.1.4s.2.3.3.4zM18.2 2.1L33.1 24l-14.9-4.8V2.1zm0 18.2L33 25l-14.8 7.2V20.3zm-1 11.9L2.4 25l14.8-4.7v11.9zm0-30.1v17.1L2.3 24 17.2 2.1zm17.5 26.5c-.1-.2-.4-.2-.6-.1l-16.4 8-16.4-8c-.2-.1-.5 0-.6.1-.1.2-.2.4 0 .6l16.6 22.6.2.2h.4c.1 0 .2-.1.2-.2l16.6-22.6c.1-.2.1-.4 0-.6zM17.2 50L2.6 30.2l14.5 7.1V50zm1 0V37.3l14.5-7.1L18.2 50z" fill="#4664bc" stroke="#4664bc" stroke-miterlimit="10"/></svg>