<svg id="generator" xmlns="http://www.w3.org/2000/svg" viewBox="0 0 201 237.5" enable-background="new 0 0 201 237.5"><style>.st69{fill:#0ff}.st93{fill:#29abe2}.st94{opacity:0}.st94,.st95,.st96{fill:#29abe2}.st95{opacity:6.250000e-02}.st96{opacity:.125}.st97{opacity:.1875}.st97,.st98,.st99{fill:#29abe2}.st98{opacity:.25}.st99{opacity:.3125}.st100,.st101{opacity:.375;fill:#29abe2}.st101{opacity:.4375}.st102,.st103{opacity:.5;fill:#29abe2}.st103{opacity:.5625}.st104,.st105{opacity:.625;fill:#29abe2}.st105{opacity:.6875}.st106,.st107{opacity:.75;fill:#29abe2}.st107{opacity:.8125}.st108,.st109{opacity:.875;fill:#29abe2}.st109{opacity:.9375}</style><path d="M100.5 217.3c-1.4 0-2.7-.4-4-1.1L2.7 162.1c-1.7-1-2.7-2.7-2.7-4.7s1-3.7 2.7-4.7l93.8-54.2c2.4-1.4 5.5-1.4 7.9 0l93.8 54.2c1.7 1 2.7 2.7 2.7 4.7s-1 3.7-2.7 4.7l-93.8 54.2c-1.2.7-2.5 1-3.9 1zm0-119.1c-1.2 0-2.5.3-3.6 1L3 153.3c-1.5.9-2.4 2.4-2.4 4.1 0 1.7.9 3.2 2.4 4.1l93.8 54.2c2.2 1.3 5 1.3 7.2 0l93.8-54.2c1.5-.9 2.4-2.4 2.4-4.1 0-1.7-.9-3.2-2.4-4.1L104 99.1c-1-.6-2.3-.9-3.5-.9z" fill="#ccc"/><defs><filter id="Adobe_OpacityMaskFilter" filterUnits="userSpaceOnUse" x="7.7" y="120.1" width="185.6" height="115.7"><feFlood result="back" flood-color="#fff" flood-opacity="1"/><feBlend in="SourceGraphic" in2="back"/></filter></defs><mask maskUnits="userSpaceOnUse" x="7.7" y="120.1" width="185.6" height="115.7" id="SVGID_1_"><g filter="url(#Adobe_OpacityMaskFilter)"><defs><filter id="Adobe_OpacityMaskFilter_1_" filterUnits="userSpaceOnUse" x="7.7" y="120.1" width="185.6" height="115.7"><feFlood result="back" flood-color="#fff" flood-opacity="1"/><feBlend in="SourceGraphic" in2="back"/></filter></defs><radialGradient id="SVGID_2_" cx="64.98" cy="163.059" r="109.81" gradientTransform="matrix(.875 0 0 1 46.045 0)" gradientUnits="userSpaceOnUse"><stop offset="0" stop-color="#fff"/><stop offset=".704" stop-color="#fbfbfb"/><stop offset="1" stop-color="#f7f7f7"/></radialGradient><path d="M87.1 232.2L15 190.5c-9.7-5.6-9.7-19.6 0-25.2l72.1-41.6c8.3-4.8 18.5-4.8 26.8 0l72.1 41.6c9.7 5.6 9.7 19.6 0 25.2l-72.1 41.6c-8.3 4.9-18.5 4.9-26.8.1z" mask="url(#SVGID_1_)" fill="url(#SVGID_2_)"/></g></mask><radialGradient id="SVGID_3_" cx="64.98" cy="163.059" r="109.81" gradientTransform="matrix(.875 0 0 1 46.045 0)" gradientUnits="userSpaceOnUse"><stop offset="0" stop-color="#f0eff8"/><stop offset=".988" stop-color="#f0eff8"/><stop offset="1" stop-color="#f0eff8"/></radialGradient><path d="M87.1 232.2L15 190.5c-9.7-5.6-9.7-19.6 0-25.2l72.1-41.6c8.3-4.8 18.5-4.8 26.8 0l72.1 41.6c9.7 5.6 9.7 19.6 0 25.2l-72.1 41.6c-8.3 4.9-18.5 4.9-26.8.1z" opacity=".063" fill="url(#SVGID_3_)"/><defs><filter id="Adobe_OpacityMaskFilter_2_" filterUnits="userSpaceOnUse" x="10.4" y="121.8" width="180.1" height="112.3"><feFlood result="back" flood-color="#fff" flood-opacity="1"/><feBlend in="SourceGraphic" in2="back"/></filter></defs><mask maskUnits="userSpaceOnUse" x="10.4" y="121.8" width="180.1" height="112.3" id="SVGID_4_"><g filter="url(#Adobe_OpacityMaskFilter_2_)"><defs><filter id="Adobe_OpacityMaskFilter_3_" filterUnits="userSpaceOnUse" x="10.4" y="121.8" width="180.1" height="112.3"><feFlood result="back" flood-color="#fff" flood-opacity="1"/><feBlend in="SourceGraphic" in2="back"/></filter></defs><radialGradient id="SVGID_5_" cx="14.322" cy="163.499" r="118.741" gradientTransform="matrix(.75 0 0 1 92.09 0)" gradientUnits="userSpaceOnUse"><stop offset="0" stop-color="#fff"/><stop offset=".501" stop-color="#fbfbfb"/><stop offset=".992" stop-color="#efefef"/><stop offset="1" stop-color="#efefef"/></radialGradient><path d="M87.5 230.6l-70-40.4c-9.4-5.4-9.4-19.1 0-24.5l70-40.4c8.1-4.7 18-4.7 26 0l70 40.4c9.4 5.4 9.4 19.1 0 24.5l-70 40.4c-8 4.6-18 4.6-26 0z" mask="url(#SVGID_4_)" fill="url(#SVGID_5_)"/></g></mask><radialGradient id="SVGID_6_" cx="14.322" cy="163.499" r="118.741" gradientTransform="matrix(.75 0 0 1 92.09 0)" gradientUnits="userSpaceOnUse"><stop offset="0" stop-color="#e1dff1"/><stop offset=".988" stop-color="#e1dff1"/><stop offset="1" stop-color="#e1dff1"/></radialGradient><path d="M87.5 230.6l-70-40.4c-9.4-5.4-9.4-19.1 0-24.5l70-40.4c8.1-4.7 18-4.7 26 0l70 40.4c9.4 5.4 9.4 19.1 0 24.5l-70 40.4c-8 4.6-18 4.6-26 0z" opacity=".125" fill="url(#SVGID_6_)"/><defs><filter id="Adobe_OpacityMaskFilter_4_" filterUnits="userSpaceOnUse" x="13.2" y="123.5" width="174.6" height="108.8"><feFlood result="back" flood-color="#fff" flood-opacity="1"/><feBlend in="SourceGraphic" in2="back"/></filter></defs><mask maskUnits="userSpaceOnUse" x="13.2" y="123.5" width="174.6" height="108.8" id="SVGID_7_"><g filter="url(#Adobe_OpacityMaskFilter_4_)"><defs><filter id="Adobe_OpacityMaskFilter_5_" filterUnits="userSpaceOnUse" x="13.2" y="123.5" width="174.6" height="108.8"><feFlood result="back" flood-color="#fff" flood-opacity="1"/><feBlend in="SourceGraphic" in2="back"/></filter></defs><radialGradient id="SVGID_8_" cx="-56.599" cy="163.939" r="132.405" gradientTransform="matrix(.625 0 0 1 138.135 0)" gradientUnits="userSpaceOnUse"><stop offset="0" stop-color="#fff"/><stop offset=".411" stop-color="#fbfbfb"/><stop offset=".813" stop-color="#efefef"/><stop offset="1" stop-color="#e7e7e7"/></radialGradient><path d="M87.8 228.9L20 189.8c-9.2-5.3-9.2-18.5 0-23.8l67.8-39.1c7.8-4.5 17.5-4.5 25.3 0L181 166c9.2 5.3 9.2 18.5 0 23.8l-67.8 39.1c-7.9 4.6-17.5 4.6-25.4 0z" mask="url(#SVGID_7_)" fill="url(#SVGID_8_)"/></g></mask><radialGradient id="SVGID_9_" cx="-56.599" cy="163.939" r="132.405" gradientTransform="matrix(.625 0 0 1 138.135 0)" gradientUnits="userSpaceOnUse"><stop offset="0" stop-color="#d3cfea"/><stop offset=".988" stop-color="#d3cfea"/><stop offset="1" stop-color="#d3cfea"/></radialGradient><path d="M87.8 228.9L20 189.8c-9.2-5.3-9.2-18.5 0-23.8l67.8-39.1c7.8-4.5 17.5-4.5 25.3 0L181 166c9.2 5.3 9.2 18.5 0 23.8l-67.8 39.1c-7.9 4.6-17.5 4.6-25.4 0z" opacity=".188" fill="url(#SVGID_9_)"/><defs><filter id="Adobe_OpacityMaskFilter_6_" filterUnits="userSpaceOnUse" x="15.9" y="125.2" width="169.2" height="105.4"><feFlood result="back" flood-color="#fff" flood-opacity="1"/><feBlend in="SourceGraphic" in2="back"/></filter></defs><mask maskUnits="userSpaceOnUse" x="15.9" y="125.2" width="169.2" height="105.4" id="SVGID_10_"><g filter="url(#Adobe_OpacityMaskFilter_6_)"><defs><filter id="Adobe_OpacityMaskFilter_7_" filterUnits="userSpaceOnUse" x="15.9" y="125.2" width="169.2" height="105.4"><feFlood result="back" flood-color="#fff" flood-opacity="1"/><feBlend in="SourceGraphic" in2="back"/></filter></defs><radialGradient id="SVGID_11_" cx="-162.981" cy="164.379" r="154.387" gradientTransform="matrix(.5 0 0 1 184.18 0)" gradientUnits="userSpaceOnUse"><stop offset="0" stop-color="#fff"/><stop offset=".356" stop-color="#fbfbfb"/><stop offset=".705" stop-color="#efefef"/><stop offset="1" stop-color="#dfdfdf"/></radialGradient><path d="M88.2 227.3l-65.6-37.9c-8.9-5.1-8.9-17.9 0-23l65.6-37.9c7.6-4.4 17-4.4 24.6 0l65.6 37.9c8.9 5.1 8.9 17.9 0 23l-65.6 37.9c-7.6 4.4-17 4.4-24.6 0z" mask="url(#SVGID_10_)" fill="url(#SVGID_11_)"/></g></mask><radialGradient id="SVGID_12_" cx="-162.981" cy="164.379" r="154.387" gradientTransform="matrix(.5 0 0 1 184.18 0)" gradientUnits="userSpaceOnUse"><stop offset="0" stop-color="#c4bfe3"/><stop offset=".988" stop-color="#c4bfe3"/><stop offset="1" stop-color="#c4bfe3"/></radialGradient><path d="M88.2 227.3l-65.6-37.9c-8.9-5.1-8.9-17.9 0-23l65.6-37.9c7.6-4.4 17-4.4 24.6 0l65.6 37.9c8.9 5.1 8.9 17.9 0 23l-65.6 37.9c-7.6 4.4-17 4.4-24.6 0z" opacity=".25" fill="url(#SVGID_12_)"/><defs><filter id="Adobe_OpacityMaskFilter_8_" filterUnits="userSpaceOnUse" x="18.6" y="126.9" width="163.7" height="102"><feFlood result="back" flood-color="#fff" flood-opacity="1"/><feBlend in="SourceGraphic" in2="back"/></filter></defs><mask maskUnits="userSpaceOnUse" x="18.6" y="126.9" width="163.7" height="102" id="SVGID_13_"><g filter="url(#Adobe_OpacityMaskFilter_8_)"><defs><filter id="Adobe_OpacityMaskFilter_9_" filterUnits="userSpaceOnUse" x="18.6" y="126.9" width="163.7" height="102"><feFlood result="back" flood-color="#fff" flood-opacity="1"/><feBlend in="SourceGraphic" in2="back"/></filter></defs><radialGradient id="SVGID_14_" cx="-340.284" cy="164.819" r="193.03" gradientTransform="matrix(.375 0 0 1 230.225 0)" gradientUnits="userSpaceOnUse"><stop offset="0" stop-color="#fff"/><stop offset=".32" stop-color="#fbfbfb"/><stop offset=".633" stop-color="#efefef"/><stop offset=".942" stop-color="#dcdcdc"/><stop offset="1" stop-color="#d7d7d7"/></radialGradient><path d="M88.5 225.7L25 189.1c-8.6-5-8.6-17.4 0-22.3l63.5-36.6c7.4-4.3 16.5-4.3 23.9 0l63.5 36.6c8.6 5 8.6 17.4 0 22.3l-63.5 36.6c-7.3 4.3-16.5 4.3-23.9 0z" mask="url(#SVGID_13_)" fill="url(#SVGID_14_)"/></g></mask><radialGradient id="SVGID_15_" cx="-340.284" cy="164.819" r="193.03" gradientTransform="matrix(.375 0 0 1 230.225 0)" gradientUnits="userSpaceOnUse"><stop offset="0" stop-color="#b5afdc"/><stop offset=".988" stop-color="#b5afdc"/><stop offset="1" stop-color="#b5afdc"/></radialGradient><path d="M88.5 225.7L25 189.1c-8.6-5-8.6-17.4 0-22.3l63.5-36.6c7.4-4.3 16.5-4.3 23.9 0l63.5 36.6c8.6 5 8.6 17.4 0 22.3l-63.5 36.6c-7.3 4.3-16.5 4.3-23.9 0z" opacity=".313" fill="url(#SVGID_15_)"/><defs><filter id="Adobe_OpacityMaskFilter_10_" filterUnits="userSpaceOnUse" x="21.4" y="128.6" width="158.2" height="98.6"><feFlood result="back" flood-color="#fff" flood-opacity="1"/><feBlend in="SourceGraphic" in2="back"/></filter></defs><mask maskUnits="userSpaceOnUse" x="21.4" y="128.6" width="158.2" height="98.6" id="SVGID_16_"><g filter="url(#Adobe_OpacityMaskFilter_10_)"><defs><filter id="Adobe_OpacityMaskFilter_11_" filterUnits="userSpaceOnUse" x="21.4" y="128.6" width="158.2" height="98.6"><feFlood result="back" flood-color="#fff" flood-opacity="1"/><feBlend in="SourceGraphic" in2="back"/></filter></defs><radialGradient id="SVGID_17_" cx="-694.89" cy="165.259" r="273.309" gradientTransform="matrix(.25 0 0 1 276.27 0)" gradientUnits="userSpaceOnUse"><stop offset="0" stop-color="#fff"/><stop offset=".292" stop-color="#fbfbfb"/><stop offset=".578" stop-color="#efefef"/><stop offset=".862" stop-color="#dcdcdc"/><stop offset="1" stop-color="#cfcfcf"/></radialGradient><path d="M88.9 224.1l-61.3-35.4c-8.3-4.8-8.3-16.8 0-21.6l61.3-35.4c7.2-4.1 16-4.1 23.2 0l61.3 35.4c8.3 4.8 8.3 16.8 0 21.6l-61.3 35.4c-7.2 4.1-16 4.1-23.2 0z" mask="url(#SVGID_16_)" fill="url(#SVGID_17_)"/></g></mask><radialGradient id="SVGID_18_" cx="-694.89" cy="165.259" r="273.309" gradientTransform="matrix(.25 0 0 1 276.27 0)" gradientUnits="userSpaceOnUse"><stop offset="0" stop-color="#a69fd5"/><stop offset=".988" stop-color="#a69fd5"/><stop offset="1" stop-color="#a69fd5"/></radialGradient><path d="M88.9 224.1l-61.3-35.4c-8.3-4.8-8.3-16.8 0-21.6l61.3-35.4c7.2-4.1 16-4.1 23.2 0l61.3 35.4c8.3 4.8 8.3 16.8 0 21.6l-61.3 35.4c-7.2 4.1-16 4.1-23.2 0z" opacity=".375" fill="url(#SVGID_18_)"/><defs><filter id="Adobe_OpacityMaskFilter_12_" filterUnits="userSpaceOnUse" x="24.1" y="130.3" width="152.7" height="95.1"><feFlood result="back" flood-color="#fff" flood-opacity="1"/><feBlend in="SourceGraphic" in2="back"/></filter></defs><mask maskUnits="userSpaceOnUse" x="24.1" y="130.3" width="152.7" height="95.1" id="SVGID_19_"><g filter="url(#Adobe_OpacityMaskFilter_12_)"><defs><filter id="Adobe_OpacityMaskFilter_13_" filterUnits="userSpaceOnUse" x="24.1" y="130.3" width="152.7" height="95.1"><feFlood result="back" flood-color="#fff" flood-opacity="1"/><feBlend in="SourceGraphic" in2="back"/></filter></defs><radialGradient id="SVGID_20_" cx="-1758.707" cy="165.699" r="519.974" gradientTransform="matrix(.125 0 0 1 322.314 0)" gradientUnits="userSpaceOnUse"><stop offset="0" stop-color="#fff"/><stop offset=".271" stop-color="#fbfbfb"/><stop offset=".536" stop-color="#efefef"/><stop offset=".799" stop-color="#dcdcdc"/><stop offset="1" stop-color="#c7c7c7"/></radialGradient><path d="M89.3 222.5l-59.1-34.1c-8-4.6-8-16.2 0-20.9l59.1-34.1c7-4 15.5-4 22.5 0l59.1 34.1c8 4.6 8 16.2 0 20.9l-59.1 34.1c-7 4-15.6 4-22.5 0z" mask="url(#SVGID_19_)" fill="url(#SVGID_20_)"/></g></mask><radialGradient id="SVGID_21_" cx="-1758.707" cy="165.699" r="519.974" gradientTransform="matrix(.125 0 0 1 322.314 0)" gradientUnits="userSpaceOnUse"><stop offset="0" stop-color="#978fce"/><stop offset=".988" stop-color="#978fce"/><stop offset="1" stop-color="#978fce"/></radialGradient><path d="M89.3 222.5l-59.1-34.1c-8-4.6-8-16.2 0-20.9l59.1-34.1c7-4 15.5-4 22.5 0l59.1 34.1c8 4.6 8 16.2 0 20.9l-59.1 34.1c-7 4-15.6 4-22.5 0z" opacity=".438" fill="url(#SVGID_21_)"/><defs><filter id="Adobe_OpacityMaskFilter_14_" filterUnits="userSpaceOnUse" x="26.9" y="132.1" width="147.3" height="91.7"><feFlood result="back" flood-color="#fff" flood-opacity="1"/><feBlend in="SourceGraphic" in2="back"/></filter></defs><mask maskUnits="userSpaceOnUse" x="26.9" y="132.1" width="147.3" height="91.7" id="SVGID_22_"><g filter="url(#Adobe_OpacityMaskFilter_14_)"><defs><filter id="Adobe_OpacityMaskFilter_15_" filterUnits="userSpaceOnUse" x="26.9" y="132.1" width="147.3" height="91.7"><feFlood result="back" flood-color="#fff" flood-opacity="1"/><feBlend in="SourceGraphic" in2="back"/></filter></defs><radialGradient id="SVGID_23_" cx="102.405" cy="166.139" r="79.991" gradientTransform="matrix(0 0 0 1 368.36 0)" gradientUnits="userSpaceOnUse"><stop offset="0" stop-color="#fff"/><stop offset=".254" stop-color="#fbfbfb"/><stop offset=".502" stop-color="#efefef"/><stop offset=".749" stop-color="#dcdcdc"/><stop offset=".993" stop-color="silver"/><stop offset="1" stop-color="#bfbfbf"/></radialGradient><path d="M89.6 220.9L32.7 188c-7.7-4.5-7.7-15.7 0-20.1L89.6 135c6.7-3.9 15-3.9 21.8 0l56.9 32.9c7.7 4.5 7.7 15.7 0 20.1l-56.9 32.9c-6.8 3.8-15.1 3.8-21.8 0z" mask="url(#SVGID_22_)" fill="url(#SVGID_23_)"/></g></mask><radialGradient id="SVGID_24_" cx="102.405" cy="166.139" r="79.991" gradientTransform="matrix(0 0 0 1 368.36 0)" gradientUnits="userSpaceOnUse"><stop offset="0" stop-color="#8980c7"/><stop offset=".988" stop-color="#8980c7"/><stop offset="1" stop-color="#8980c7"/></radialGradient><path d="M89.6 220.9L32.7 188c-7.7-4.5-7.7-15.7 0-20.1L89.6 135c6.7-3.9 15-3.9 21.8 0l56.9 32.9c7.7 4.5 7.7 15.7 0 20.1l-56.9 32.9c-6.8 3.8-15.1 3.8-21.8 0z" opacity=".5" fill="url(#SVGID_24_)"/><defs><filter id="Adobe_OpacityMaskFilter_16_" filterUnits="userSpaceOnUse" x="29.6" y="133.8" width="141.8" height="88.3"><feFlood result="back" flood-color="#fff" flood-opacity="1"/><feBlend in="SourceGraphic" in2="back"/></filter></defs><mask maskUnits="userSpaceOnUse" x="29.6" y="133.8" width="141.8" height="88.3" id="SVGID_25_"><g filter="url(#Adobe_OpacityMaskFilter_16_)"><defs><filter id="Adobe_OpacityMaskFilter_17_" filterUnits="userSpaceOnUse" x="29.6" y="133.8" width="141.8" height="88.3"><feFlood result="back" flood-color="#fff" flood-opacity="1"/><feBlend in="SourceGraphic" in2="back"/></filter></defs><radialGradient id="SVGID_26_" cx="2525.995" cy="166.579" r="482.716" gradientTransform="matrix(-.125 0 0 1 414.404 0)" gradientUnits="userSpaceOnUse"><stop offset="0" stop-color="#fff"/><stop offset=".239" stop-color="#fbfbfb"/><stop offset=".474" stop-color="#efefef"/><stop offset=".707" stop-color="#dcdcdc"/><stop offset=".937" stop-color="silver"/><stop offset="1" stop-color="#b7b7b7"/></radialGradient><path d="M90 219.2l-54.8-31.6c-7.5-4.3-7.5-15.1 0-19.4L90 136.6c6.5-3.8 14.5-3.8 21.1 0l54.8 31.6c7.5 4.3 7.5 15.1 0 19.4L111 219.2c-6.5 3.8-14.5 3.8-21 0z" mask="url(#SVGID_25_)" fill="url(#SVGID_26_)"/></g></mask><radialGradient id="SVGID_27_" cx="2525.995" cy="166.579" r="482.716" gradientTransform="matrix(-.125 0 0 1 414.404 0)" gradientUnits="userSpaceOnUse"><stop offset="0" stop-color="#7a70bf"/><stop offset=".988" stop-color="#7a70bf"/><stop offset="1" stop-color="#7a70bf"/></radialGradient><path d="M90 219.2l-54.8-31.6c-7.5-4.3-7.5-15.1 0-19.4L90 136.6c6.5-3.8 14.5-3.8 21.1 0l54.8 31.6c7.5 4.3 7.5 15.1 0 19.4L111 219.2c-6.5 3.8-14.5 3.8-21 0z" opacity=".563" fill="url(#SVGID_27_)"/><defs><filter id="Adobe_OpacityMaskFilter_18_" filterUnits="userSpaceOnUse" x="32.3" y="135.5" width="136.3" height="84.9"><feFlood result="back" flood-color="#fff" flood-opacity="1"/><feBlend in="SourceGraphic" in2="back"/></filter></defs><mask maskUnits="userSpaceOnUse" x="32.3" y="135.5" width="136.3" height="84.9" id="SVGID_28_"><g filter="url(#Adobe_OpacityMaskFilter_18_)"><defs><filter id="Adobe_OpacityMaskFilter_19_" filterUnits="userSpaceOnUse" x="32.3" y="135.5" width="136.3" height="84.9"><feFlood result="back" flood-color="#fff" flood-opacity="1"/><feBlend in="SourceGraphic" in2="back"/></filter></defs><radialGradient id="SVGID_29_" cx="1446.893" cy="167.019" r="235.491" gradientTransform="matrix(-.25 0 0 1 460.45 0)" gradientUnits="userSpaceOnUse"><stop offset="0" stop-color="#fff"/><stop offset=".227" stop-color="#fbfbfb"/><stop offset=".45" stop-color="#efefef"/><stop offset=".671" stop-color="#dcdcdc"/><stop offset=".89" stop-color="silver"/><stop offset="1" stop-color="#afafaf"/></radialGradient><path d="M90.3 217.6l-52.6-30.4c-7.2-4.1-7.2-14.5 0-18.7l52.6-30.4c6.3-3.6 14-3.6 20.3 0l52.6 30.4c7.2 4.1 7.2 14.5 0 18.7l-52.6 30.4c-6.2 3.7-14 3.7-20.3 0z" mask="url(#SVGID_28_)" fill="url(#SVGID_29_)"/></g></mask><radialGradient id="SVGID_30_" cx="1446.893" cy="167.019" r="235.491" gradientTransform="matrix(-.25 0 0 1 460.45 0)" gradientUnits="userSpaceOnUse"><stop offset="0" stop-color="#6b60b8"/><stop offset=".988" stop-color="#6b60b8"/><stop offset="1" stop-color="#6b60b8"/></radialGradient><path d="M90.3 217.6l-52.6-30.4c-7.2-4.1-7.2-14.5 0-18.7l52.6-30.4c6.3-3.6 14-3.6 20.3 0l52.6 30.4c7.2 4.1 7.2 14.5 0 18.7l-52.6 30.4c-6.2 3.7-14 3.7-20.3 0z" opacity=".625" fill="url(#SVGID_30_)"/><defs><filter id="Adobe_OpacityMaskFilter_20_" filterUnits="userSpaceOnUse" x="35.1" y="137.2" width="130.9" height="81.4"><feFlood result="back" flood-color="#fff" flood-opacity="1"/><feBlend in="SourceGraphic" in2="back"/></filter></defs><mask maskUnits="userSpaceOnUse" x="35.1" y="137.2" width="130.9" height="81.4" id="SVGID_31_"><g filter="url(#Adobe_OpacityMaskFilter_20_)"><defs><filter id="Adobe_OpacityMaskFilter_21_" filterUnits="userSpaceOnUse" x="35.1" y="137.2" width="130.9" height="81.4"><feFlood result="back" flood-color="#fff" flood-opacity="1"/><feBlend in="SourceGraphic" in2="back"/></filter></defs><radialGradient id="SVGID_32_" cx="1087.193" cy="167.459" r="154.297" gradientTransform="matrix(-.375 0 0 1 506.494 0)" gradientUnits="userSpaceOnUse"><stop offset="0" stop-color="#fff"/><stop offset=".217" stop-color="#fbfbfb"/><stop offset=".429" stop-color="#efefef"/><stop offset=".64" stop-color="#dcdcdc"/><stop offset=".849" stop-color="silver"/><stop offset="1" stop-color="#a7a7a7"/></radialGradient><path d="M90.7 216l-50.4-29.1c-6.9-4-6.9-14 0-17.9l50.4-29.1c6.1-3.5 13.6-3.5 19.6 0l50.4 29.1c6.9 4 6.9 14 0 17.9L110.3 216c-6.1 3.5-13.5 3.5-19.6 0z" mask="url(#SVGID_31_)" fill="url(#SVGID_32_)"/></g></mask><radialGradient id="SVGID_33_" cx="1087.193" cy="167.459" r="154.297" gradientTransform="matrix(-.375 0 0 1 506.494 0)" gradientUnits="userSpaceOnUse"><stop offset="0" stop-color="#5c50b1"/><stop offset=".988" stop-color="#5c50b1"/><stop offset="1" stop-color="#5c50b1"/></radialGradient><path d="M90.7 216l-50.4-29.1c-6.9-4-6.9-14 0-17.9l50.4-29.1c6.1-3.5 13.6-3.5 19.6 0l50.4 29.1c6.9 4 6.9 14 0 17.9L110.3 216c-6.1 3.5-13.5 3.5-19.6 0z" opacity=".688" fill="url(#SVGID_33_)"/><defs><filter id="Adobe_OpacityMaskFilter_22_" filterUnits="userSpaceOnUse" x="37.8" y="138.9" width="125.4" height="78"><feFlood result="back" flood-color="#fff" flood-opacity="1"/><feBlend in="SourceGraphic" in2="back"/></filter></defs><mask maskUnits="userSpaceOnUse" x="37.8" y="138.9" width="125.4" height="78" id="SVGID_34_"><g filter="url(#Adobe_OpacityMaskFilter_22_)"><defs><filter id="Adobe_OpacityMaskFilter_23_" filterUnits="userSpaceOnUse" x="37.8" y="138.9" width="125.4" height="78"><feFlood result="back" flood-color="#fff" flood-opacity="1"/><feBlend in="SourceGraphic" in2="back"/></filter></defs><radialGradient id="SVGID_35_" cx="907.342" cy="167.899" r="114.408" gradientTransform="matrix(-.5 0 0 1 552.539 0)" gradientUnits="userSpaceOnUse"><stop offset="0" stop-color="#fff"/><stop offset=".208" stop-color="#fbfbfb"/><stop offset=".411" stop-color="#efefef"/><stop offset=".614" stop-color="#dcdcdc"/><stop offset=".814" stop-color="silver"/><stop offset="1" stop-color="#9f9f9f"/></radialGradient><path d="M91 214.4l-48.3-27.9c-6.6-3.8-6.6-13.4 0-17.2L91 141.4c5.9-3.4 13.1-3.4 18.9 0l48.3 27.9c6.6 3.8 6.6 13.4 0 17.2L110 214.4c-5.9 3.4-13.1 3.4-19 0z" mask="url(#SVGID_34_)" fill="url(#SVGID_35_)"/></g></mask><radialGradient id="SVGID_36_" cx="907.342" cy="167.899" r="114.408" gradientTransform="matrix(-.5 0 0 1 552.539 0)" gradientUnits="userSpaceOnUse"><stop offset="0" stop-color="#4d40aa"/><stop offset=".988" stop-color="#4d40aa"/><stop offset="1" stop-color="#4d40aa"/></radialGradient><path d="M91 214.4l-48.3-27.9c-6.6-3.8-6.6-13.4 0-17.2L91 141.4c5.9-3.4 13.1-3.4 18.9 0l48.3 27.9c6.6 3.8 6.6 13.4 0 17.2L110 214.4c-5.9 3.4-13.1 3.4-19 0z" opacity=".75" fill="url(#SVGID_36_)"/><defs><filter id="Adobe_OpacityMaskFilter_24_" filterUnits="userSpaceOnUse" x="40.5" y="140.6" width="119.9" height="74.6"><feFlood result="back" flood-color="#fff" flood-opacity="1"/><feBlend in="SourceGraphic" in2="back"/></filter></defs><mask maskUnits="userSpaceOnUse" x="40.5" y="140.6" width="119.9" height="74.6" id="SVGID_37_"><g filter="url(#Adobe_OpacityMaskFilter_24_)"><defs><filter id="Adobe_OpacityMaskFilter_25_" filterUnits="userSpaceOnUse" x="40.5" y="140.6" width="119.9" height="74.6"><feFlood result="back" flood-color="#fff" flood-opacity="1"/><feBlend in="SourceGraphic" in2="back"/></filter></defs><radialGradient id="SVGID_38_" cx="799.432" cy="168.339" r="90.879" gradientTransform="matrix(-.625 0 0 1 598.584 0)" gradientUnits="userSpaceOnUse"><stop offset="0" stop-color="#fff"/><stop offset=".2" stop-color="#fbfbfb"/><stop offset=".396" stop-color="#efefef"/><stop offset=".59" stop-color="#dcdcdc"/><stop offset=".783" stop-color="silver"/><stop offset=".975" stop-color="#9d9d9d"/><stop offset="1" stop-color="#979797"/></radialGradient><path d="M91.4 212.8l-46.1-26.6c-6.3-3.7-6.3-12.8 0-16.5l46.1-26.6c5.6-3.3 12.6-3.3 18.2 0l46.1 26.6c6.3 3.7 6.3 12.8 0 16.5l-46.1 26.6c-5.6 3.2-12.6 3.2-18.2 0z" mask="url(#SVGID_37_)" fill="url(#SVGID_38_)"/></g></mask><radialGradient id="SVGID_39_" cx="799.432" cy="168.339" r="90.879" gradientTransform="matrix(-.625 0 0 1 598.584 0)" gradientUnits="userSpaceOnUse"><stop offset="0" stop-color="#3e30a3"/><stop offset=".988" stop-color="#3e30a3"/><stop offset="1" stop-color="#3e30a3"/></radialGradient><path d="M91.4 212.8l-46.1-26.6c-6.3-3.7-6.3-12.8 0-16.5l46.1-26.6c5.6-3.3 12.6-3.3 18.2 0l46.1 26.6c6.3 3.7 6.3 12.8 0 16.5l-46.1 26.6c-5.6 3.2-12.6 3.2-18.2 0z" opacity=".813" fill="url(#SVGID_39_)"/><defs><filter id="Adobe_OpacityMaskFilter_26_" filterUnits="userSpaceOnUse" x="43.3" y="142.3" width="114.4" height="71.2"><feFlood result="back" flood-color="#fff" flood-opacity="1"/><feBlend in="SourceGraphic" in2="back"/></filter></defs><mask maskUnits="userSpaceOnUse" x="43.3" y="142.3" width="114.4" height="71.2" id="SVGID_40_"><g filter="url(#Adobe_OpacityMaskFilter_26_)"><defs><filter id="Adobe_OpacityMaskFilter_27_" filterUnits="userSpaceOnUse" x="43.3" y="142.3" width="114.4" height="71.2"><feFlood result="back" flood-color="#fff" flood-opacity="1"/><feBlend in="SourceGraphic" in2="back"/></filter></defs><radialGradient id="SVGID_41_" cx="727.492" cy="168.779" r="75.399" gradientTransform="matrix(-.75 0 0 1 644.629 0)" gradientUnits="userSpaceOnUse"><stop offset="0" stop-color="#fff"/><stop offset=".193" stop-color="#fbfbfb"/><stop offset=".382" stop-color="#efefef"/><stop offset=".569" stop-color="#dcdcdc"/><stop offset=".755" stop-color="silver"/><stop offset=".94" stop-color="#9d9d9d"/><stop offset="1" stop-color="#8f8f8f"/></radialGradient><path d="M91.7 211.2l-43.9-25.4c-6.1-3.5-6.1-12.2 0-15.7l43.9-25.4c5.4-3.1 12.1-3.1 17.5 0l43.9 25.4c6.1 3.5 6.1 12.2 0 15.7l-43.9 25.4c-5.4 3.1-12 3.1-17.5 0z" mask="url(#SVGID_40_)" fill="url(#SVGID_41_)"/></g></mask><radialGradient id="SVGID_42_" cx="727.492" cy="168.779" r="75.399" gradientTransform="matrix(-.75 0 0 1 644.629 0)" gradientUnits="userSpaceOnUse"><stop offset="0" stop-color="#30209c"/><stop offset=".988" stop-color="#30209c"/><stop offset="1" stop-color="#30209c"/></radialGradient><path d="M91.7 211.2l-43.9-25.4c-6.1-3.5-6.1-12.2 0-15.7l43.9-25.4c5.4-3.1 12.1-3.1 17.5 0l43.9 25.4c6.1 3.5 6.1 12.2 0 15.7l-43.9 25.4c-5.4 3.1-12 3.1-17.5 0z" opacity=".875" fill="url(#SVGID_42_)"/><defs><filter id="Adobe_OpacityMaskFilter_28_" filterUnits="userSpaceOnUse" x="46" y="144.1" width="109" height="67.7"><feFlood result="back" flood-color="#fff" flood-opacity="1"/><feBlend in="SourceGraphic" in2="back"/></filter></defs><mask maskUnits="userSpaceOnUse" x="46" y="144.1" width="109" height="67.7" id="SVGID_43_"><g filter="url(#Adobe_OpacityMaskFilter_28_)"><defs><filter id="Adobe_OpacityMaskFilter_29_" filterUnits="userSpaceOnUse" x="46" y="144.1" width="109" height="67.7"><feFlood result="back" flood-color="#fff" flood-opacity="1"/><feBlend in="SourceGraphic" in2="back"/></filter></defs><radialGradient id="SVGID_44_" cx="676.106" cy="169.219" r="64.416" gradientTransform="matrix(-.875 0 0 1 690.674 0)" gradientUnits="userSpaceOnUse"><stop offset="0" stop-color="#fff"/><stop offset=".186" stop-color="#fbfbfb"/><stop offset=".369" stop-color="#efefef"/><stop offset=".55" stop-color="#dcdcdc"/><stop offset=".73" stop-color="silver"/><stop offset=".908" stop-color="#9d9d9d"/><stop offset="1" stop-color="#878787"/></radialGradient><path d="M92.1 209.5l-41.8-24.1c-5.8-3.3-5.8-11.7 0-15l41.8-24.1c5.2-3 11.6-3 16.8 0l41.8 24.1c5.8 3.3 5.8 11.7 0 15l-41.8 24.1c-5.2 3-11.6 3-16.8 0z" mask="url(#SVGID_43_)" fill="url(#SVGID_44_)"/></g></mask><radialGradient id="SVGID_45_" cx="676.106" cy="169.219" r="64.416" gradientTransform="matrix(-.875 0 0 1 690.674 0)" gradientUnits="userSpaceOnUse"><stop offset="0" stop-color="#211095"/><stop offset=".988" stop-color="#211095"/><stop offset="1" stop-color="#211095"/></radialGradient><path d="M92.1 209.5l-41.8-24.1c-5.8-3.3-5.8-11.7 0-15l41.8-24.1c5.2-3 11.6-3 16.8 0l41.8 24.1c5.8 3.3 5.8 11.7 0 15l-41.8 24.1c-5.2 3-11.6 3-16.8 0z" opacity=".938" fill="url(#SVGID_45_)"/><defs><filter id="Adobe_OpacityMaskFilter_30_" filterUnits="userSpaceOnUse" x="48.7" y="145.8" width="103.5" height="64.3"><feFlood result="back" flood-color="#fff" flood-opacity="1"/><feBlend in="SourceGraphic" in2="back"/></filter></defs><mask maskUnits="userSpaceOnUse" x="48.7" y="145.8" width="103.5" height="64.3" id="SVGID_46_"><g filter="url(#Adobe_OpacityMaskFilter_30_)"><defs><filter id="Adobe_OpacityMaskFilter_31_" filterUnits="userSpaceOnUse" x="48.7" y="145.8" width="103.5" height="64.3"><feFlood result="back" flood-color="#fff" flood-opacity="1"/><feBlend in="SourceGraphic" in2="back"/></filter></defs><radialGradient id="SVGID_47_" cx="637.567" cy="169.659" r="56.164" gradientTransform="matrix(-1 0 0 1 736.719 0)" gradientUnits="userSpaceOnUse"><stop offset="0" stop-color="#fff"/><stop offset=".18" stop-color="#fbfbfb"/><stop offset=".357" stop-color="#efefef"/><stop offset=".533" stop-color="#dcdcdc"/><stop offset=".708" stop-color="silver"/><stop offset=".88" stop-color="#9d9d9d"/><stop offset="1" stop-color="gray"/></radialGradient><path d="M92.5 207.9L52.9 185c-5.5-3.2-5.5-11.1 0-14.3l39.6-22.9c5-2.9 11.1-2.9 16.1 0l39.6 22.9c5.5 3.2 5.5 11.1 0 14.3l-39.6 22.9c-5 2.9-11.2 2.9-16.1 0z" mask="url(#SVGID_46_)" fill="url(#SVGID_47_)"/></g></mask><radialGradient id="SVGID_48_" cx="637.567" cy="169.659" r="56.164" gradientTransform="matrix(-1 0 0 1 736.719 0)" gradientUnits="userSpaceOnUse"><stop offset="0" stop-color="#12008e"/><stop offset=".988" stop-color="#12008e"/><stop offset="1" stop-color="#12008e"/></radialGradient><path d="M92.5 207.9L52.9 185c-5.5-3.2-5.5-11.1 0-14.3l39.6-22.9c5-2.9 11.1-2.9 16.1 0l39.6 22.9c5.5 3.2 5.5 11.1 0 14.3l-39.6 22.9c-5 2.9-11.2 2.9-16.1 0z" fill="url(#SVGID_48_)"/><linearGradient id="SVGID_49_" gradientUnits="userSpaceOnUse" x1="652.425" y1="158.386" x2="616.483" y2="158.386" gradientTransform="matrix(-1 0 0 1 736.719 0)"><stop offset="0" stop-color="#300273"/><stop offset="1" stop-color="#0071bc"/></linearGradient><path d="M92.4 114.3l5.2-3c1.8-1 4-1 5.7 0l66.7 38.5h12.4v8.5c0 .8-.4 1.6-1.2 2.1l-78 45c-1.8 1-4 1-5.7 0l-78-45c-.8-.5-1.2-1.3-1.2-2.1v-8.5l74.1-35.5z" fill="url(#SVGID_49_)"/><linearGradient id="SVGID_50_" gradientUnits="userSpaceOnUse" x1="538.373" y1="154.39" x2="715.86" y2="154.39" gradientTransform="matrix(-1 0 0 1 736.719 0)"><stop offset="0" stop-color="#0ff"/><stop offset="1" stop-color="#4b02a9"/></linearGradient><path d="M92.4 114.3l5.2-3c1.8-1 4-1 5.7 0l66.7 38.5h12.4v.6c0 .8-.4 1.6-1.2 2.1l-78 45c-1.8 1-4 1-5.7 0l-78-45c-.8-.5-1.2-1.3-1.2-2.1v-.6l74.1-35.5z" fill="url(#SVGID_50_)"/><linearGradient id="SVGID_51_" gradientUnits="userSpaceOnUse" x1="643.402" y1="149.396" x2="542.99" y2="149.396" gradientTransform="matrix(-1 0 0 1 736.719 0)"><stop offset="0" stop-color="#300273"/><stop offset="1" stop-color="#29abe2"/></linearGradient><path d="M97.6 196.5l-78-45c-1.6-.9-1.6-3.2 0-4.1l78-45c1.8-1 4-1 5.7 0l78 45c1.6.9 1.6 3.2 0 4.1l-78 45c-1.7 1-3.9 1-5.7 0z" fill="url(#SVGID_51_)"/><path class="st69" d="M169.2 165.1l7.8-4.5v-3.2l-7.8 4.5z"/><defs><filter id="Adobe_OpacityMaskFilter_32_" filterUnits="userSpaceOnUse" x="169.2" y="157.4" width="27.4" height="19.1"><feFlood result="back" flood-color="#fff" flood-opacity="1"/><feBlend in="SourceGraphic" in2="back"/></filter></defs><mask maskUnits="userSpaceOnUse" x="169.2" y="157.4" width="27.4" height="19.1" id="SVGID_52_"><g filter="url(#Adobe_OpacityMaskFilter_32_)"><defs><filter id="Adobe_OpacityMaskFilter_33_" filterUnits="userSpaceOnUse" x="169.2" y="157.4" width="27.4" height="19.1"><feFlood result="back" flood-color="#fff" flood-opacity="1"/><feBlend in="SourceGraphic" in2="back"/></filter></defs><linearGradient id="SVGID_53_" gradientUnits="userSpaceOnUse" x1="336.994" y1="157.747" x2="358.414" y2="170.719" gradientTransform="translate(-169.167)"><stop offset="0" stop-color="#fff"/><stop offset=".047" stop-color="#e5e5e5"/><stop offset=".151" stop-color="#b0b0b0"/><stop offset=".26" stop-color="#818181"/><stop offset=".371" stop-color="#595959"/><stop offset=".484" stop-color="#393939"/><stop offset=".6" stop-color="#202020"/><stop offset=".722" stop-color="#0e0e0e"/><stop offset=".85" stop-color="#030303"/><stop offset="1"/></linearGradient><path mask="url(#SVGID_52_)" fill="url(#SVGID_53_)" d="M169.2 161.9v3.2l19.6 11.3 7.8-4.5v-3.2L177 157.4z"/></g></mask><linearGradient id="SVGID_54_" gradientUnits="userSpaceOnUse" x1="336.994" y1="157.747" x2="358.414" y2="170.719" gradientTransform="translate(-169.167)"><stop offset="0" stop-color="#0ff"/><stop offset=".858" stop-color="#0ff" stop-opacity=".142"/><stop offset="1" stop-color="#0ff" stop-opacity="0"/></linearGradient><path fill="url(#SVGID_54_)" d="M169.2 161.9v3.2l19.6 11.3 7.8-4.5v-3.2L177 157.4z"/><path class="st69" d="M107.1 201l7.8-4.5v-3.3l-7.8 4.5z"/><defs><filter id="Adobe_OpacityMaskFilter_34_" filterUnits="userSpaceOnUse" x="107.1" y="193.2" width="27.4" height="19.1"><feFlood result="back" flood-color="#fff" flood-opacity="1"/><feBlend in="SourceGraphic" in2="back"/></filter></defs><mask maskUnits="userSpaceOnUse" x="107.1" y="193.2" width="27.4" height="19.1" id="SVGID_55_"><g filter="url(#Adobe_OpacityMaskFilter_34_)"><defs><filter id="Adobe_OpacityMaskFilter_35_" filterUnits="userSpaceOnUse" x="107.1" y="193.2" width="27.4" height="19.1"><feFlood result="back" flood-color="#fff" flood-opacity="1"/><feBlend in="SourceGraphic" in2="back"/></filter></defs><linearGradient id="SVGID_56_" gradientUnits="userSpaceOnUse" x1="274.848" y1="193.626" x2="296.268" y2="206.599" gradientTransform="translate(-169.167)"><stop offset="0" stop-color="#fff"/><stop offset=".047" stop-color="#e5e5e5"/><stop offset=".151" stop-color="#b0b0b0"/><stop offset=".26" stop-color="#818181"/><stop offset=".371" stop-color="#595959"/><stop offset=".484" stop-color="#393939"/><stop offset=".6" stop-color="#202020"/><stop offset=".722" stop-color="#0e0e0e"/><stop offset=".85" stop-color="#030303"/><stop offset="1"/></linearGradient><path mask="url(#SVGID_55_)" fill="url(#SVGID_56_)" d="M107.1 197.7v3.3l19.6 11.3 7.8-4.5v-3.3l-19.6-11.3z"/></g></mask><linearGradient id="SVGID_57_" gradientUnits="userSpaceOnUse" x1="274.848" y1="193.626" x2="296.268" y2="206.599" gradientTransform="translate(-169.167)"><stop offset="0" stop-color="#0ff"/><stop offset=".858" stop-color="#0ff" stop-opacity=".142"/><stop offset="1" stop-color="#0ff" stop-opacity="0"/></linearGradient><path fill="url(#SVGID_57_)" d="M107.1 197.7v3.3l19.6 11.3 7.8-4.5v-3.3l-19.6-11.3z"/><path class="st69" d="M31.8 165.1l-7.8-4.5v-3.2l7.8 4.5z"/><defs><filter id="Adobe_OpacityMaskFilter_36_" filterUnits="userSpaceOnUse" x="4.4" y="157.4" width="27.4" height="19.1"><feFlood result="back" flood-color="#fff" flood-opacity="1"/><feBlend in="SourceGraphic" in2="back"/></filter></defs><mask maskUnits="userSpaceOnUse" x="4.4" y="157.4" width="27.4" height="19.1" id="SVGID_58_"><g filter="url(#Adobe_OpacityMaskFilter_36_)"><defs><filter id="Adobe_OpacityMaskFilter_37_" filterUnits="userSpaceOnUse" x="4.4" y="157.4" width="27.4" height="19.1"><feFlood result="back" flood-color="#fff" flood-opacity="1"/><feBlend in="SourceGraphic" in2="back"/></filter></defs><linearGradient id="SVGID_59_" gradientUnits="userSpaceOnUse" x1="382.19" y1="157.747" x2="403.609" y2="170.719" gradientTransform="matrix(-1 0 0 1 415.351 0)"><stop offset="0" stop-color="#fff"/><stop offset=".047" stop-color="#e5e5e5"/><stop offset=".151" stop-color="#b0b0b0"/><stop offset=".26" stop-color="#818181"/><stop offset=".371" stop-color="#595959"/><stop offset=".484" stop-color="#393939"/><stop offset=".6" stop-color="#202020"/><stop offset=".722" stop-color="#0e0e0e"/><stop offset=".85" stop-color="#030303"/><stop offset="1"/></linearGradient><path mask="url(#SVGID_58_)" fill="url(#SVGID_59_)" d="M31.8 161.9v3.2l-19.6 11.3-7.8-4.5v-3.2L24 157.4z"/></g></mask><linearGradient id="SVGID_60_" gradientUnits="userSpaceOnUse" x1="382.19" y1="157.747" x2="403.609" y2="170.719" gradientTransform="matrix(-1 0 0 1 415.351 0)"><stop offset="0" stop-color="#0ff"/><stop offset=".858" stop-color="#0ff" stop-opacity=".142"/><stop offset="1" stop-color="#0ff" stop-opacity="0"/></linearGradient><path fill="url(#SVGID_60_)" d="M31.8 161.9v3.2l-19.6 11.3-7.8-4.5v-3.2L24 157.4z"/><path class="st69" d="M93.9 201l-7.8-4.5v-3.3l7.8 4.5z"/><defs><filter id="Adobe_OpacityMaskFilter_38_" filterUnits="userSpaceOnUse" x="66.5" y="193.2" width="27.4" height="19.1"><feFlood result="back" flood-color="#fff" flood-opacity="1"/><feBlend in="SourceGraphic" in2="back"/></filter></defs><mask maskUnits="userSpaceOnUse" x="66.5" y="193.2" width="27.4" height="19.1" id="SVGID_61_"><g filter="url(#Adobe_OpacityMaskFilter_38_)"><defs><filter id="Adobe_OpacityMaskFilter_39_" filterUnits="userSpaceOnUse" x="66.5" y="193.2" width="27.4" height="19.1"><feFlood result="back" flood-color="#fff" flood-opacity="1"/><feBlend in="SourceGraphic" in2="back"/></filter></defs><linearGradient id="SVGID_62_" gradientUnits="userSpaceOnUse" x1="320.044" y1="193.626" x2="341.464" y2="206.599" gradientTransform="matrix(-1 0 0 1 415.351 0)"><stop offset="0" stop-color="#fff"/><stop offset=".047" stop-color="#e5e5e5"/><stop offset=".151" stop-color="#b0b0b0"/><stop offset=".26" stop-color="#818181"/><stop offset=".371" stop-color="#595959"/><stop offset=".484" stop-color="#393939"/><stop offset=".6" stop-color="#202020"/><stop offset=".722" stop-color="#0e0e0e"/><stop offset=".85" stop-color="#030303"/><stop offset="1"/></linearGradient><path mask="url(#SVGID_61_)" fill="url(#SVGID_62_)" d="M93.9 197.7v3.3l-19.6 11.3-7.8-4.5v-3.3l19.6-11.3z"/></g></mask><linearGradient id="SVGID_63_" gradientUnits="userSpaceOnUse" x1="320.044" y1="193.626" x2="341.464" y2="206.599" gradientTransform="matrix(-1 0 0 1 415.351 0)"><stop offset="0" stop-color="#0ff"/><stop offset=".858" stop-color="#0ff" stop-opacity=".142"/><stop offset="1" stop-color="#0ff" stop-opacity="0"/></linearGradient><path fill="url(#SVGID_63_)" d="M93.9 197.7v3.3l-19.6 11.3-7.8-4.5v-3.3l19.6-11.3z"/><path d="M96.7 210L2.9 155.8c-3.4-1.9-3.4-6.8 0-8.8l93.8-54.2c2.3-1.3 5.2-1.3 7.6 0l93.8 54.2c3.4 1.9 3.4 6.8 0 8.8L104.3 210c-2.4 1.4-5.2 1.4-7.6 0z" fill="none" stroke="#0071bc" stroke-width=".693" stroke-miterlimit="10"/><defs><filter id="Adobe_OpacityMaskFilter_40_" filterUnits="userSpaceOnUse" x="68.9" y="120.6" width="60.4" height="44.5"><feFlood result="back" flood-color="#fff" flood-opacity="1"/><feBlend in="SourceGraphic" in2="back"/></filter></defs><mask maskUnits="userSpaceOnUse" x="68.9" y="120.6" width="60.4" height="44.5" id="SVGID_64_"><g filter="url(#Adobe_OpacityMaskFilter_40_)"><defs><filter id="Adobe_OpacityMaskFilter_41_" filterUnits="userSpaceOnUse" x="68.9" y="120.6" width="60.4" height="44.5"><feFlood result="back" flood-color="#fff" flood-opacity="1"/><feBlend in="SourceGraphic" in2="back"/></filter></defs><linearGradient id="SVGID_65_" gradientUnits="userSpaceOnUse" x1="637.572" y1="86.235" x2="637.572" y2="164.527" gradientTransform="matrix(-1 0 0 1 736.719 0)"><stop offset="0" stop-color="#fff"/><stop offset=".048" stop-color="#eaeaea"/><stop offset=".2" stop-color="#adadad"/><stop offset=".351" stop-color="#787878"/><stop offset=".498" stop-color="#4d4d4d"/><stop offset=".639" stop-color="#2c2c2c"/><stop offset=".772" stop-color="#131313"/><stop offset=".896" stop-color="#050505"/><stop offset="1"/></linearGradient><path mask="url(#SVGID_64_)" fill="url(#SVGID_65_)" d="M68.9 165.2h60.5v-44.6H68.9z"/></g></mask><linearGradient id="SVGID_66_" gradientUnits="userSpaceOnUse" x1="637.572" y1="86.235" x2="637.572" y2="164.527" gradientTransform="matrix(-1 0 0 1 736.719 0)"><stop offset="0" stop-color="#0ff"/><stop offset=".855" stop-color="#0ff" stop-opacity=".145"/><stop offset="1" stop-color="#0ff" stop-opacity="0"/></linearGradient><path fill="url(#SVGID_66_)" d="M68.9 165.2h60.5v-44.6H68.9z"/><linearGradient id="SVGID_67_" gradientUnits="userSpaceOnUse" x1="632.927" y1="122.055" x2="643.056" y2="122.055" gradientTransform="matrix(-1 0 0 1 736.719 0)"><stop offset="0" stop-color="#0ff"/><stop offset="1" stop-color="#0071bc"/></linearGradient><path d="M87.1 109.5l7.7-4.4c2.6-1.5 5.8-1.5 8.4 0l7.7 4.4 18.2 7.2v5.3c0 1.2-.6 2.4-1.7 3l-24.2 14c-2.6 1.5-5.8 1.5-8.4 0l-24.2-14c-1.2-.7-1.7-1.9-1.7-3v-5.3l18.2-7.2z" fill="url(#SVGID_67_)"/><linearGradient id="SVGID_68_" gradientUnits="userSpaceOnUse" x1="649.087" y1="123.414" x2="624.949" y2="123.414" gradientTransform="matrix(-1 0 0 1 736.719 0)"><stop offset="0" stop-color="#0ff"/><stop offset="1" stop-color="#fff"/></linearGradient><path d="M87.1 116.7l7.7-4.4c2.6-1.5 5.8-1.5 8.4 0l7.7 4.4h18.2v.8c0 1.2-.6 2.4-1.7 3l-24.2 14c-2.6 1.5-5.8 1.5-8.4 0l-24.2-14c-1.2-.7-1.7-1.9-1.7-3v-.8h18.2z" fill="url(#SVGID_68_)"/><path class="st93" d="M94.8 133.1l-24.2-14c-2.3-1.3-2.3-4.7 0-6.1l24.2-14c2.6-1.5 5.8-1.5 8.4 0l24.2 14c2.3 1.3 2.3 4.7 0 6.1l-24.2 14c-2.5 1.5-5.8 1.5-8.4 0z"/><path class="st94" d="M94.9 133.1l-24-13.8c-2.3-1.3-2.3-4.7 0-6l24-13.8c2.6-1.5 5.8-1.5 8.4 0l24 13.8c2.3 1.3 2.3 4.7 0 6l-24 13.8c-2.6 1.5-5.8 1.5-8.4 0z"/><path class="st95" d="M95 132.8l-23.6-13.6c-2.3-1.3-2.3-4.6 0-5.9L95 99.6c2.5-1.5 5.7-1.5 8.2 0l23.6 13.6c2.3 1.3 2.3 4.6 0 5.9l-23.6 13.6c-2.5 1.6-5.7 1.6-8.2.1z"/><path class="st96" d="M95 132.6l-23.3-13.5c-2.2-1.3-2.2-4.5 0-5.8L95 99.9c2.5-1.5 5.6-1.5 8.1 0l23.3 13.5c2.2 1.3 2.2 4.5 0 5.8l-23.3 13.5c-2.5 1.4-5.5 1.4-8.1-.1z"/><path class="st97" d="M95.1 132.4l-23-13.3c-2.2-1.3-2.2-4.5 0-5.8l23-13.3c2.5-1.4 5.5-1.4 8 0l23 13.3c2.2 1.3 2.2 4.5 0 5.8l-23 13.3c-2.5 1.4-5.5 1.4-8 0z"/><path class="st98" d="M95.2 132.1L72.5 119c-2.2-1.3-2.2-4.4 0-5.7l22.7-13.1c2.4-1.4 5.5-1.4 7.9 0l22.7 13.1c2.2 1.3 2.2 4.4 0 5.7L103 132.1c-2.4 1.5-5.4 1.5-7.8 0z"/><path class="st99" d="M95.2 131.9L72.9 119c-2.2-1.2-2.2-4.4 0-5.6l22.3-12.9c2.4-1.4 5.4-1.4 7.8 0l22.3 12.9c2.2 1.2 2.2 4.4 0 5.6L103 131.9c-2.4 1.4-5.4 1.4-7.8 0z"/><path class="st100" d="M95.3 131.7l-22-12.7c-2.1-1.2-2.1-4.3 0-5.5l22-12.7c2.4-1.4 5.3-1.4 7.7 0l22 12.7c2.1 1.2 2.1 4.3 0 5.5l-22 12.7c-2.4 1.4-5.4 1.4-7.7 0z"/><path class="st101" d="M95.3 131.5L73.6 119c-2.1-1.2-2.1-4.2 0-5.4L95.3 101c2.3-1.3 5.2-1.3 7.6 0l21.7 12.5c2.1 1.2 2.1 4.2 0 5.4l-21.7 12.5c-2.4 1.4-5.2 1.4-7.6.1z"/><path class="st102" d="M95.4 131.2L74 118.9c-2.1-1.2-2.1-4.2 0-5.3l21.4-12.3c2.3-1.3 5.1-1.3 7.4 0l21.4 12.3c2.1 1.2 2.1 4.2 0 5.3l-21.4 12.3c-2.3 1.4-5.1 1.4-7.4 0z"/><path class="st103" d="M95.4 131l-21-12.1c-2-1.2-2-4.1 0-5.3l21-12.1c2.3-1.3 5.1-1.3 7.3 0l21 12.1c2 1.2 2 4.1 0 5.3l-21 12.1c-2.2 1.3-5 1.3-7.3 0z"/><path class="st104" d="M95.5 130.8l-20.7-12c-2-1.2-2-4 0-5.2l20.7-12c2.2-1.3 5-1.3 7.2 0l20.7 12c2 1.2 2 4 0 5.2l-20.7 12c-2.2 1.3-5 1.3-7.2 0z"/><path class="st105" d="M95.5 130.5l-20.4-11.8c-2-1.1-2-4 0-5.1l20.4-11.8c2.2-1.3 4.9-1.3 7.1 0l20.4 11.8c2 1.1 2 4 0 5.1l-20.4 11.8c-2.1 1.3-4.9 1.3-7.1 0z"/><path class="st106" d="M95.6 130.3l-20-11.6c-1.9-1.1-1.9-3.9 0-5l20-11.6c2.2-1.2 4.8-1.2 7 0l20 11.6c1.9 1.1 1.9 3.9 0 5l-20 11.6c-2.2 1.3-4.8 1.3-7 0z"/><path class="st107" d="M95.7 130.1L76 118.7c-1.9-1.1-1.9-3.8 0-4.9l19.7-11.4c2.1-1.2 4.7-1.2 6.9 0l19.7 11.4c1.9 1.1 1.9 3.8 0 4.9l-19.7 11.4c-2.2 1.2-4.8 1.2-6.9 0z"/><path class="st108" d="M95.7 129.9l-19.4-11.2c-1.9-1.1-1.9-3.8 0-4.9l19.4-11.2c2.1-1.2 4.7-1.2 6.8 0l19.4 11.2c1.9 1.1 1.9 3.8 0 4.9l-19.4 11.2c-2.1 1.2-4.7 1.2-6.8 0z"/><path class="st109" d="M95.8 129.6l-19.1-11c-1.8-1.1-1.8-3.7 0-4.8l19.1-11c2.1-1.2 4.6-1.2 6.6 0l19.1 11c1.8 1.1 1.8 3.7 0 4.8l-19.1 11c-2 1.2-4.6 1.2-6.6 0z"/><path class="st93" d="M95.8 129.4l-18.7-10.8c-1.8-1-1.8-3.7 0-4.7l18.7-10.8c2-1.2 4.5-1.2 6.5 0l18.7 10.8c1.8 1 1.8 3.7 0 4.7l-18.7 10.8c-2 1.2-4.4 1.2-6.5 0z"/><linearGradient id="SVGID_69_" gradientUnits="userSpaceOnUse" x1="632.927" y1="111.119" x2="643.056" y2="111.119" gradientTransform="matrix(-1 0 0 1 736.719 0)"><stop offset="0" stop-color="#0ff"/><stop offset="1" stop-color="#0071bc"/></linearGradient><path d="M87.1 98.6l7.7-4.4c2.6-1.5 5.8-1.5 8.4 0l7.7 4.4 18.2 7.2v5.3c0 1.2-.6 2.4-1.7 3l-24.2 14c-2.6 1.5-5.8 1.5-8.4 0l-24.2-14c-1.2-.7-1.7-1.9-1.7-3v-5.3l18.2-7.2z" fill="url(#SVGID_69_)"/><linearGradient id="SVGID_70_" gradientUnits="userSpaceOnUse" x1="649.087" y1="112.478" x2="624.949" y2="112.478" gradientTransform="matrix(-1 0 0 1 736.719 0)"><stop offset="0" stop-color="#0ff"/><stop offset="1" stop-color="#fff"/></linearGradient><path d="M87.1 105.8l7.7-4.4c2.6-1.5 5.8-1.5 8.4 0l7.7 4.4h18.2v.8c0 1.2-.6 2.4-1.7 3l-24.2 14c-2.6 1.5-5.8 1.5-8.4 0l-24.2-14c-1.2-.7-1.7-1.9-1.7-3v-.8h18.2z" fill="url(#SVGID_70_)"/><path class="st93" d="M94.8 122.1l-24.2-14c-2.3-1.3-2.3-4.7 0-6.1l24.2-14c2.6-1.5 5.8-1.5 8.4 0l24.2 14c2.3 1.3 2.3 4.7 0 6.1l-24.2 14c-2.5 1.5-5.8 1.5-8.4 0z"/><path class="st94" d="M94.9 122.1l-24-13.8c-2.3-1.3-2.3-4.7 0-6l24-13.8c2.6-1.5 5.8-1.5 8.4 0l24 13.8c2.3 1.3 2.3 4.7 0 6l-24 13.8c-2.6 1.5-5.8 1.5-8.4 0z"/><path class="st95" d="M95 121.9l-23.6-13.6c-2.3-1.3-2.3-4.6 0-5.9L95 88.7c2.5-1.5 5.7-1.5 8.2 0l23.6 13.6c2.3 1.3 2.3 4.6 0 5.9l-23.6 13.6c-2.5 1.6-5.7 1.6-8.2.1z"/><path class="st96" d="M95 121.7l-23.3-13.5c-2.2-1.3-2.2-4.5 0-5.8L95 88.9c2.5-1.5 5.6-1.5 8.1 0l23.3 13.5c2.2 1.3 2.2 4.5 0 5.8l-23.3 13.5c-2.5 1.4-5.5 1.4-8.1 0z"/><path class="st97" d="M95.1 121.4l-23-13.3c-2.2-1.3-2.2-4.5 0-5.8l23-13.3c2.5-1.4 5.5-1.4 8 0l23 13.3c2.2 1.3 2.2 4.5 0 5.8l-23 13.3c-2.5 1.5-5.5 1.5-8 0z"/><path class="st98" d="M95.2 121.2l-22.7-13.1c-2.2-1.3-2.2-4.4 0-5.7l22.7-13.1c2.4-1.4 5.5-1.4 7.9 0l22.7 13.1c2.2 1.3 2.2 4.4 0 5.7L103 121.2c-2.4 1.4-5.4 1.4-7.8 0z"/><path class="st99" d="M95.2 121l-22.3-12.9c-2.2-1.2-2.2-4.4 0-5.6l22.3-12.9c2.4-1.4 5.4-1.4 7.8 0l22.3 12.9c2.2 1.2 2.2 4.4 0 5.6L103 121c-2.4 1.4-5.4 1.4-7.8 0z"/><path class="st100" d="M95.3 120.8l-22-12.7c-2.1-1.2-2.1-4.3 0-5.5l22-12.7c2.4-1.4 5.3-1.4 7.7 0l22 12.7c2.1 1.2 2.1 4.3 0 5.5l-22 12.7c-2.4 1.3-5.4 1.3-7.7 0z"/><path class="st101" d="M95.3 120.5L73.6 108c-2.1-1.2-2.1-4.2 0-5.4l21.7-12.5c2.3-1.3 5.2-1.3 7.6 0l21.7 12.5c2.1 1.2 2.1 4.2 0 5.4l-21.7 12.5c-2.4 1.4-5.2 1.4-7.6 0z"/><path class="st102" d="M95.4 120.3L74 108c-2.1-1.2-2.1-4.2 0-5.3l21.4-12.3c2.3-1.3 5.1-1.3 7.4 0l21.4 12.3c2.1 1.2 2.1 4.2 0 5.3l-21.4 12.3c-2.3 1.3-5.1 1.3-7.4 0z"/><path class="st103" d="M95.4 120.1l-21-12.1c-2-1.2-2-4.1 0-5.3l21-12.1c2.3-1.3 5.1-1.3 7.3 0l21 12.1c2 1.2 2 4.1 0 5.3l-21 12.1c-2.2 1.3-5 1.3-7.3 0z"/><path class="st104" d="M95.5 119.8l-20.7-12c-2-1.2-2-4 0-5.2l20.7-12c2.2-1.3 5-1.3 7.2 0l20.7 12c2 1.2 2 4 0 5.2l-20.7 12c-2.2 1.3-5 1.3-7.2 0z"/><path class="st105" d="M95.5 119.6l-20.4-11.8c-2-1.1-2-4 0-5.1L95.5 91c2.2-1.3 4.9-1.3 7.1 0l20.4 11.8c2 1.1 2 4 0 5.1l-20.4 11.8c-2.1 1.2-4.9 1.2-7.1-.1z"/><path class="st106" d="M95.6 119.4l-20-11.6c-1.9-1.1-1.9-3.9 0-5l20-11.6c2.2-1.2 4.8-1.2 7 0l20 11.6c1.9 1.1 1.9 3.9 0 5l-20 11.6c-2.2 1.2-4.8 1.2-7 0z"/><path class="st107" d="M95.7 119.1L76 107.7c-1.9-1.1-1.9-3.8 0-4.9l19.7-11.4c2.1-1.2 4.7-1.2 6.9 0l19.7 11.4c1.9 1.1 1.9 3.8 0 4.9l-19.7 11.4c-2.2 1.3-4.8 1.3-6.9 0z"/><path class="st108" d="M95.7 118.9l-19.4-11.2c-1.9-1.1-1.9-3.8 0-4.9l19.4-11.2c2.1-1.2 4.7-1.2 6.8 0l19.4 11.2c1.9 1.1 1.9 3.8 0 4.9l-19.4 11.2c-2.1 1.2-4.7 1.2-6.8 0z"/><path class="st109" d="M95.8 118.7l-19.1-11c-1.8-1.1-1.8-3.7 0-4.8l19.1-11c2.1-1.2 4.6-1.2 6.6 0l19.1 11c1.8 1.1 1.8 3.7 0 4.8l-19.1 11c-2 1.2-4.6 1.2-6.6 0z"/><path class="st93" d="M95.8 118.5l-18.7-10.8c-1.8-1-1.8-3.7 0-4.7l18.7-10.8c2-1.2 4.5-1.2 6.5 0L121 103c1.8 1 1.8 3.7 0 4.7l-18.7 10.8c-2 1.1-4.4 1.1-6.5 0z"/><linearGradient id="SVGID_71_" gradientUnits="userSpaceOnUse" x1="632.927" y1="100.183" x2="643.056" y2="100.183" gradientTransform="matrix(-1 0 0 1 736.719 0)"><stop offset="0" stop-color="#0ff"/><stop offset="1" stop-color="#0071bc"/></linearGradient><path d="M87.1 87.6l7.7-4.4c2.6-1.5 5.8-1.5 8.4 0l7.7 4.4 18.2 7.2v5.3c0 1.2-.6 2.4-1.7 3l-24.2 14c-2.6 1.5-5.8 1.5-8.4 0l-24.2-14c-1.2-.7-1.7-1.9-1.7-3v-5.3l18.2-7.2z" fill="url(#SVGID_71_)"/><linearGradient id="SVGID_72_" gradientUnits="userSpaceOnUse" x1="649.087" y1="101.541" x2="624.949" y2="101.541" gradientTransform="matrix(-1 0 0 1 736.719 0)"><stop offset="0" stop-color="#0ff"/><stop offset="1" stop-color="#fff"/></linearGradient><path d="M87.1 94.9l7.7-4.4c2.6-1.5 5.8-1.5 8.4 0l7.7 4.4h18.2v.8c0 1.2-.6 2.4-1.7 3l-24.2 14c-2.6 1.5-5.8 1.5-8.4 0l-24.2-14c-1.2-.7-1.7-1.8-1.7-3v-.8h18.2z" fill="url(#SVGID_72_)"/><path class="st93" d="M94.8 111.2l-24.2-14c-2.3-1.3-2.3-4.7 0-6.1l24.2-14c2.6-1.5 5.8-1.5 8.4 0l24.2 14c2.3 1.3 2.3 4.7 0 6.1l-24.2 14c-2.5 1.5-5.8 1.5-8.4 0z"/><path class="st94" d="M94.9 111.2L71 97.4c-2.3-1.3-2.3-4.7 0-6l24-13.8c2.6-1.5 5.8-1.5 8.4 0l24 13.8c2.3 1.3 2.3 4.7 0 6l-24 13.8c-2.7 1.5-5.9 1.5-8.5 0z"/><path class="st95" d="M95 111L71.3 97.3c-2.3-1.3-2.3-4.6 0-5.9L95 77.8c2.5-1.5 5.7-1.5 8.2 0l23.6 13.6c2.3 1.3 2.3 4.6 0 5.9L103.2 111c-2.5 1.4-5.7 1.4-8.2 0z"/><path class="st96" d="M95 110.7L71.7 97.3c-2.2-1.3-2.2-4.5 0-5.8L95 78c2.5-1.5 5.6-1.5 8.1 0l23.3 13.5c2.2 1.3 2.2 4.5 0 5.8l-23.3 13.5c-2.5 1.4-5.5 1.4-8.1-.1z"/><path class="st97" d="M95.1 110.5l-23-13.3c-2.2-1.3-2.2-4.5 0-5.8l23-13.3c2.5-1.4 5.5-1.4 8 0l23 13.3c2.2 1.3 2.2 4.5 0 5.8l-23 13.3c-2.5 1.4-5.5 1.4-8 0z"/><path class="st98" d="M95.2 110.3L72.5 97.2c-2.2-1.3-2.2-4.4 0-5.7l22.7-13.1c2.4-1.4 5.5-1.4 7.9 0l22.7 13.1c2.2 1.3 2.2 4.4 0 5.7L103 110.3c-2.4 1.4-5.4 1.4-7.8 0z"/><path class="st99" d="M95.2 110L72.9 97.2c-2.2-1.2-2.2-4.4 0-5.6l22.3-12.9c2.4-1.4 5.4-1.4 7.8 0l22.3 12.9c2.2 1.2 2.2 4.4 0 5.6L103 110c-2.4 1.4-5.4 1.4-7.8 0z"/><path class="st100" d="M95.3 109.8l-22-12.7c-2.1-1.2-2.1-4.3 0-5.5l22-12.7c2.4-1.4 5.3-1.4 7.7 0l22 12.7c2.1 1.2 2.1 4.3 0 5.5l-22 12.7c-2.4 1.4-5.4 1.4-7.7 0z"/><path class="st101" d="M95.3 109.6L73.6 97.1c-2.1-1.2-2.1-4.2 0-5.4l21.7-12.5c2.3-1.3 5.2-1.3 7.6 0l21.7 12.5c2.1 1.2 2.1 4.2 0 5.4l-21.7 12.5c-2.4 1.3-5.2 1.3-7.6 0z"/><path class="st102" d="M95.4 109.4L74 97c-2.1-1.2-2.1-4.2 0-5.3l21.4-12.3c2.3-1.3 5.1-1.3 7.4 0l21.4 12.3c2.1 1.2 2.1 4.2 0 5.3l-21.4 12.3c-2.3 1.4-5.1 1.4-7.4.1z"/><path class="st103" d="M95.4 109.1L74.4 97c-2-1.2-2-4.1 0-5.3l21-12.1c2.3-1.3 5.1-1.3 7.3 0l21 12.1c2 1.2 2 4.1 0 5.3l-21 12.1c-2.2 1.3-5 1.3-7.3 0z"/><path class="st104" d="M95.5 108.9L74.8 97c-2-1.2-2-4 0-5.2l20.7-12c2.2-1.3 5-1.3 7.2 0l20.7 12c2 1.2 2 4 0 5.2l-20.7 12c-2.2 1.2-5 1.2-7.2-.1z"/><path class="st105" d="M95.5 108.7L75.2 96.9c-2-1.1-2-4 0-5.1L95.5 80c2.2-1.3 4.9-1.3 7.1 0L123 91.8c2 1.1 2 4 0 5.1l-20.4 11.8c-2.1 1.2-4.9 1.2-7.1 0z"/><path class="st106" d="M95.6 108.4l-20-11.6c-1.9-1.1-1.9-3.9 0-5l20-11.6c2.2-1.2 4.8-1.2 7 0l20 11.6c1.9 1.1 1.9 3.9 0 5l-20 11.6c-2.2 1.3-4.8 1.3-7 0z"/><path class="st107" d="M95.7 108.2L75.9 96.8c-1.9-1.1-1.9-3.8 0-4.9l19.7-11.4c2.1-1.2 4.7-1.2 6.9 0l19.7 11.4c1.9 1.1 1.9 3.8 0 4.9l-19.7 11.4c-2.1 1.2-4.7 1.2-6.8 0z"/><path class="st108" d="M95.7 108L76.3 96.8c-1.9-1.1-1.9-3.8 0-4.9l19.4-11.2c2.1-1.2 4.7-1.2 6.8 0l19.4 11.2c1.9 1.1 1.9 3.8 0 4.9L102.5 108c-2.1 1.2-4.7 1.2-6.8 0z"/><path class="st109" d="M95.8 107.8l-19.1-11c-1.8-1.1-1.8-3.7 0-4.8l19.1-11c2.1-1.2 4.6-1.2 6.6 0l19.1 11c1.8 1.1 1.8 3.7 0 4.8l-19.1 11c-2 1.1-4.6 1.1-6.6 0z"/><path class="st93" d="M95.8 107.5L77.1 96.7c-1.8-1-1.8-3.7 0-4.7l18.7-10.8c2-1.2 4.5-1.2 6.5 0L121.1 92c1.8 1 1.8 3.7 0 4.7l-18.7 10.8c-2.1 1.2-4.5 1.2-6.6 0z"/><linearGradient id="SVGID_73_" gradientUnits="userSpaceOnUse" x1="632.927" y1="89.246" x2="643.056" y2="89.246" gradientTransform="matrix(-1 0 0 1 736.719 0)"><stop offset="0" stop-color="#0ff"/><stop offset="1" stop-color="#0071bc"/></linearGradient><path d="M87.1 76.7l7.7-4.4c2.6-1.5 5.8-1.5 8.4 0l7.7 4.4 18.2 7.2v5.3c0 1.2-.6 2.4-1.7 3l-24.2 14c-2.6 1.5-5.8 1.5-8.4 0l-24.2-14c-1.2-.7-1.7-1.8-1.7-3v-5.3l18.2-7.2z" fill="url(#SVGID_73_)"/><linearGradient id="SVGID_74_" gradientUnits="userSpaceOnUse" x1="649.087" y1="90.605" x2="624.949" y2="90.605" gradientTransform="matrix(-1 0 0 1 736.719 0)"><stop offset="0" stop-color="#0ff"/><stop offset="1" stop-color="#fff"/></linearGradient><path d="M87.1 83.9l7.7-4.4c2.6-1.5 5.8-1.5 8.4 0l7.7 4.4h18.2v.8c0 1.2-.6 2.4-1.7 3l-24.2 14c-2.6 1.5-5.8 1.5-8.4 0l-24.2-14c-1.2-.7-1.7-1.8-1.7-3v-.8h18.2z" fill="url(#SVGID_74_)"/><path class="st93" d="M94.8 100.3l-24.2-14c-2.3-1.3-2.3-4.7 0-6.1l24.2-14c2.6-1.5 5.8-1.5 8.4 0l24.2 14c2.3 1.3 2.3 4.7 0 6.1l-24.2 14c-2.5 1.5-5.8 1.5-8.4 0z"/><linearGradient id="SVGID_75_" gradientUnits="userSpaceOnUse" x1="641.869" y1="83.275" x2="632.539" y2="83.275" gradientTransform="matrix(-1 0 0 1 736.719 0)"><stop offset="0" stop-color="#0ff"/><stop offset=".228" stop-color="#14f2fc"/><stop offset=".693" stop-color="#47d2f3"/><stop offset="1" stop-color="#6cbaed"/></linearGradient><path d="M96.8 92.4l-13-7.5c-1.3-.7-1.3-2.5 0-3.3l13-7.5c1.4-.8 3.1-.8 4.5 0l13 7.5c1.3.7 1.3 2.5 0 3.3l-13 7.5c-1.4.8-3.1.8-4.5 0z" fill="url(#SVGID_75_)"/><defs><filter id="Adobe_OpacityMaskFilter_42_" filterUnits="userSpaceOnUse" x="26.1" y="145.9" width="60.4" height="44.5"><feFlood result="back" flood-color="#fff" flood-opacity="1"/><feBlend in="SourceGraphic" in2="back"/></filter></defs><mask maskUnits="userSpaceOnUse" x="26.1" y="145.9" width="60.4" height="44.5" id="SVGID_76_"><g filter="url(#Adobe_OpacityMaskFilter_42_)"><defs><filter id="Adobe_OpacityMaskFilter_43_" filterUnits="userSpaceOnUse" x="26.1" y="145.9" width="60.4" height="44.5"><feFlood result="back" flood-color="#fff" flood-opacity="1"/><feBlend in="SourceGraphic" in2="back"/></filter></defs><linearGradient id="SVGID_77_" gradientUnits="userSpaceOnUse" x1="680.397" y1="111.485" x2="680.397" y2="189.777" gradientTransform="matrix(-1 0 0 1 736.719 0)"><stop offset="0" stop-color="#fff"/><stop offset=".048" stop-color="#eaeaea"/><stop offset=".2" stop-color="#adadad"/><stop offset=".351" stop-color="#787878"/><stop offset=".498" stop-color="#4d4d4d"/><stop offset=".639" stop-color="#2c2c2c"/><stop offset=".772" stop-color="#131313"/><stop offset=".896" stop-color="#050505"/><stop offset="1"/></linearGradient><path mask="url(#SVGID_76_)" fill="url(#SVGID_77_)" d="M26.1 190.4h60.4v-44.5H26.1z"/></g></mask><linearGradient id="SVGID_78_" gradientUnits="userSpaceOnUse" x1="680.397" y1="111.485" x2="680.397" y2="189.777" gradientTransform="matrix(-1 0 0 1 736.719 0)"><stop offset="0" stop-color="#0ff"/><stop offset=".855" stop-color="#0ff" stop-opacity=".145"/><stop offset="1" stop-color="#0ff" stop-opacity="0"/></linearGradient><path fill="url(#SVGID_78_)" d="M26.1 190.4h60.4v-44.5H26.1z"/><linearGradient id="SVGID_79_" gradientUnits="userSpaceOnUse" x1="675.752" y1="147.306" x2="685.88" y2="147.306" gradientTransform="matrix(-1 0 0 1 736.719 0)"><stop offset="0" stop-color="#0ff"/><stop offset="1" stop-color="#0071bc"/></linearGradient><path d="M44.3 134.8l7.7-4.4c2.6-1.5 5.8-1.5 8.4 0l7.7 4.4 18.2 7.2v5.3c0 1.2-.6 2.4-1.7 3l-24.2 14c-2.6 1.5-5.8 1.5-8.4 0l-24.2-14c-1.2-.7-1.7-1.9-1.7-3V142l18.2-7.2z" fill="url(#SVGID_79_)"/><linearGradient id="SVGID_80_" gradientUnits="userSpaceOnUse" x1="691.911" y1="148.664" x2="667.774" y2="148.664" gradientTransform="matrix(-1 0 0 1 736.719 0)"><stop offset="0" stop-color="#0ff"/><stop offset="1" stop-color="#fff"/></linearGradient><path d="M44.3 142l7.7-4.4c2.6-1.5 5.8-1.5 8.4 0l7.7 4.4h18.2v.8c0 1.2-.6 2.4-1.7 3l-24.2 14c-2.6 1.5-5.8 1.5-8.4 0l-24.2-14c-1.2-.7-1.7-1.8-1.7-3v-.8h18.2z" fill="url(#SVGID_80_)"/><path class="st93" d="M52 158.3l-24.2-14c-2.3-1.3-2.3-4.7 0-6.1l24.2-14c2.6-1.5 5.8-1.5 8.4 0l24.2 14c2.3 1.3 2.3 4.7 0 6.1l-24.2 14c-2.6 1.5-5.8 1.5-8.4 0z"/><path class="st94" d="M52.1 158.3l-24-13.8c-2.3-1.3-2.3-4.7 0-6l24-13.8c2.6-1.5 5.8-1.5 8.4 0l24 13.8c2.3 1.3 2.3 4.7 0 6l-24 13.8c-2.6 1.5-5.8 1.5-8.4 0z"/><path class="st95" d="M52.2 158.1l-23.6-13.6c-2.3-1.3-2.3-4.6 0-5.9L52.2 125c2.5-1.5 5.7-1.5 8.2 0L84 138.5c2.3 1.3 2.3 4.6 0 5.9L60.4 158c-2.6 1.6-5.7 1.6-8.2.1z"/><path class="st96" d="M52.2 157.9l-23.3-13.5c-2.2-1.3-2.2-4.5 0-5.8l23.3-13.5c2.5-1.5 5.6-1.5 8.1 0l23.3 13.5c2.2 1.3 2.2 4.5 0 5.8l-23.3 13.5c-2.5 1.4-5.6 1.4-8.1 0z"/><path class="st97" d="M52.3 157.6l-23-13.3c-2.2-1.3-2.2-4.5 0-5.8l23-13.3c2.5-1.4 5.5-1.4 8 0l23 13.3c2.2 1.3 2.2 4.5 0 5.8l-23 13.3c-2.5 1.5-5.6 1.5-8 0z"/><path class="st98" d="M52.3 157.4l-22.7-13.1c-2.2-1.3-2.2-4.4 0-5.7l22.7-13.1c2.4-1.4 5.5-1.4 7.9 0l22.7 13.1c2.2 1.3 2.2 4.4 0 5.7l-22.7 13.1c-2.4 1.4-5.4 1.4-7.9 0z"/><path class="st99" d="M52.4 157.2l-22.3-12.9c-2.2-1.2-2.2-4.4 0-5.6l22.3-12.9c2.4-1.4 5.4-1.4 7.8 0l22.3 12.9c2.2 1.2 2.2 4.4 0 5.6l-22.3 12.9c-2.4 1.4-5.4 1.4-7.8 0z"/><path class="st100" d="M52.4 156.9l-22-12.7c-2.1-1.2-2.1-4.3 0-5.5l22-12.7c2.4-1.4 5.3-1.4 7.7 0l22 12.7c2.1 1.2 2.1 4.3 0 5.5l-22 12.7c-2.4 1.4-5.3 1.4-7.7 0z"/><path class="st101" d="M52.5 156.7l-21.7-12.5c-2.1-1.2-2.1-4.2 0-5.4l21.7-12.5c2.3-1.3 5.2-1.3 7.6 0l21.7 12.5c2.1 1.2 2.1 4.2 0 5.4l-21.7 12.5c-2.4 1.4-5.3 1.4-7.6 0z"/><path class="st102" d="M52.6 156.5l-21.4-12.3c-2.1-1.2-2.1-4.2 0-5.3l21.4-12.3c2.3-1.3 5.1-1.3 7.4 0l21.4 12.3c2.1 1.2 2.1 4.2 0 5.3L60 156.5c-2.3 1.3-5.1 1.3-7.4 0z"/><path class="st103" d="M52.6 156.3l-21-12.1c-2-1.2-2-4.1 0-5.3l21-12.1c2.3-1.3 5.1-1.3 7.3 0l21 12.1c2 1.2 2 4.1 0 5.3l-21 12.1c-2.2 1.3-5 1.3-7.3 0z"/><path class="st104" d="M52.7 156L32 144c-2-1.2-2-4 0-5.2l20.7-12c2.2-1.3 5-1.3 7.2 0l20.7 12c2 1.2 2 4 0 5.2l-20.7 12c-2.2 1.3-5 1.3-7.2 0z"/><path class="st105" d="M52.7 155.8L32.4 144c-2-1.1-2-4 0-5.1l20.4-11.8c2.2-1.3 4.9-1.3 7.1 0l20.4 11.8c2 1.1 2 4 0 5.1l-20.4 11.8c-2.3 1.3-5 1.3-7.2 0z"/><path class="st106" d="M52.8 155.6l-20-11.6c-1.9-1.1-1.9-3.9 0-5l20-11.6c2.2-1.2 4.8-1.2 7 0l20 11.6c1.9 1.1 1.9 3.9 0 5l-20 11.6c-2.2 1.2-4.9 1.2-7 0z"/><path class="st107" d="M52.8 155.3L33.1 144c-1.9-1.1-1.9-3.8 0-4.9l19.7-11.4c2.1-1.2 4.7-1.2 6.9 0L79.4 139c1.9 1.1 1.9 3.8 0 4.9l-19.7 11.4c-2.1 1.3-4.7 1.3-6.9 0z"/><path class="st108" d="M52.9 155.1l-19.4-11.2c-1.9-1.1-1.9-3.8 0-4.9l19.4-11.2c2.1-1.2 4.7-1.2 6.8 0L79 139.1c1.9 1.1 1.9 3.8 0 4.9l-19.4 11.2c-2 1.1-4.6 1.1-6.7-.1z"/><path class="st109" d="M53 154.9l-19.1-11c-1.8-1.1-1.8-3.7 0-4.8l19.1-11c2.1-1.2 4.6-1.2 6.6 0l19.1 11c1.8 1.1 1.8 3.7 0 4.8l-19.1 11c-2.1 1.2-4.6 1.2-6.6 0z"/><path class="st93" d="M53 154.6l-18.7-10.8c-1.8-1-1.8-3.7 0-4.7L53 128.3c2-1.2 4.5-1.2 6.5 0l18.7 10.8c1.8 1 1.8 3.7 0 4.7l-18.7 10.8c-2 1.2-4.5 1.2-6.5 0z"/><linearGradient id="SVGID_81_" gradientUnits="userSpaceOnUse" x1="675.752" y1="137.15" x2="685.88" y2="137.15" gradientTransform="matrix(-1 0 0 1 736.719 0)"><stop offset="0" stop-color="#0ff"/><stop offset="1" stop-color="#0071bc"/></linearGradient><path d="M44.3 124.6l7.7-4.4c2.6-1.5 5.8-1.5 8.4 0l7.7 4.4 18.2 7.2v5.3c0 1.2-.6 2.4-1.7 3l-24.2 14c-2.6 1.5-5.8 1.5-8.4 0l-24.2-14c-1.2-.7-1.7-1.8-1.7-3v-5.3l18.2-7.2z" fill="url(#SVGID_81_)"/><linearGradient id="SVGID_82_" gradientUnits="userSpaceOnUse" x1="691.911" y1="138.509" x2="667.774" y2="138.509" gradientTransform="matrix(-1 0 0 1 736.719 0)"><stop offset="0" stop-color="#0ff"/><stop offset="1" stop-color="#fff"/></linearGradient><path d="M44.3 131.8l7.7-4.4c2.6-1.5 5.8-1.5 8.4 0l7.7 4.4h18.2v.8c0 1.2-.6 2.4-1.7 3l-24.2 14c-2.6 1.5-5.8 1.5-8.4 0l-24.2-14c-1.2-.7-1.7-1.9-1.7-3v-.8h18.2z" fill="url(#SVGID_82_)"/><path class="st93" d="M52 148.2l-24.2-14c-2.3-1.3-2.3-4.7 0-6.1l24.2-14c2.6-1.5 5.8-1.5 8.4 0l24.2 14c2.3 1.3 2.3 4.7 0 6.1l-24.2 14c-2.6 1.5-5.8 1.5-8.4 0z"/><path class="st94" d="M52.1 148.2l-24-13.8c-2.3-1.3-2.3-4.7 0-6l24-13.8c2.6-1.5 5.8-1.5 8.4 0l24 13.8c2.3 1.3 2.3 4.7 0 6l-24 13.8c-2.6 1.5-5.8 1.5-8.4 0z"/><path class="st95" d="M52.2 147.9l-23.6-13.6c-2.3-1.3-2.3-4.6 0-5.9l23.6-13.6c2.5-1.5 5.7-1.5 8.2 0L84 128.4c2.3 1.3 2.3 4.6 0 5.9l-23.6 13.6c-2.6 1.5-5.7 1.5-8.2 0z"/><path class="st96" d="M52.2 147.7l-23.3-13.5c-2.2-1.3-2.2-4.5 0-5.8l23.3-13.5c2.5-1.5 5.6-1.5 8.1 0l23.3 13.5c2.2 1.3 2.2 4.5 0 5.8l-23.3 13.5c-2.5 1.5-5.6 1.5-8.1 0z"/><path class="st97" d="M52.3 147.5l-23-13.3c-2.2-1.3-2.2-4.5 0-5.8l23-13.3c2.5-1.4 5.5-1.4 8 0l23 13.3c2.2 1.3 2.2 4.5 0 5.8l-23 13.3c-2.5 1.4-5.6 1.4-8 0z"/><path class="st98" d="M52.3 147.2l-22.7-13.1c-2.2-1.3-2.2-4.4 0-5.7l22.7-13.1c2.4-1.4 5.5-1.4 7.9 0l22.7 13.1c2.2 1.3 2.2 4.4 0 5.7l-22.7 13.1c-2.4 1.5-5.4 1.5-7.9 0z"/><path class="st99" d="M52.4 147l-22.3-12.9c-2.2-1.2-2.2-4.4 0-5.6l22.3-12.9c2.4-1.4 5.4-1.4 7.8 0l22.3 12.9c2.2 1.2 2.2 4.4 0 5.6L60.2 147c-2.4 1.4-5.4 1.4-7.8 0z"/><path class="st100" d="M52.4 146.8l-22-12.7c-2.1-1.2-2.1-4.3 0-5.5l22-12.7c2.4-1.4 5.3-1.4 7.7 0l22 12.7c2.1 1.2 2.1 4.3 0 5.5l-22 12.7c-2.4 1.4-5.3 1.4-7.7 0z"/><path class="st101" d="M52.5 146.6L30.8 134c-2.1-1.2-2.1-4.2 0-5.4l21.7-12.5c2.3-1.3 5.2-1.3 7.6 0l21.7 12.5c2.1 1.2 2.1 4.2 0 5.4l-21.7 12.5c-2.4 1.4-5.3 1.4-7.6.1z"/><path class="st102" d="M52.6 146.3L31.2 134c-2.1-1.2-2.1-4.2 0-5.3l21.4-12.3c2.3-1.3 5.1-1.3 7.4 0l21.4 12.3c2.1 1.2 2.1 4.2 0 5.3L60 146.3c-2.3 1.4-5.1 1.4-7.4 0z"/><path class="st103" d="M52.6 146.1l-21-12.1c-2-1.2-2-4.1 0-5.3l21-12.1c2.3-1.3 5.1-1.3 7.3 0l21 12.1c2 1.2 2 4.1 0 5.3l-21 12.1c-2.2 1.3-5 1.3-7.3 0z"/><path class="st104" d="M52.7 145.9l-20.7-12c-2-1.2-2-4 0-5.2l20.7-12c2.2-1.3 5-1.3 7.2 0l20.7 12c2 1.2 2 4 0 5.2l-20.7 12c-2.2 1.3-5 1.3-7.2 0z"/><path class="st105" d="M52.7 145.6l-20.4-11.8c-2-1.1-2-4 0-5.1L52.7 117c2.2-1.3 4.9-1.3 7.1 0l20.4 11.8c2 1.1 2 4 0 5.1l-20.4 11.8c-2.2 1.2-4.9 1.2-7.1-.1z"/><path class="st106" d="M52.8 145.4l-20-11.6c-1.9-1.1-1.9-3.9 0-5l20-11.6c2.2-1.2 4.8-1.2 7 0l20 11.6c1.9 1.1 1.9 3.9 0 5l-20 11.6c-2.2 1.3-4.9 1.3-7 0z"/><path class="st107" d="M52.8 145.2l-19.7-11.4c-1.9-1.1-1.9-3.8 0-4.9l19.7-11.4c2.1-1.2 4.7-1.2 6.9 0l19.7 11.4c1.9 1.1 1.9 3.8 0 4.9l-19.7 11.4c-2.1 1.2-4.7 1.2-6.9 0z"/><path class="st108" d="M52.9 145l-19.4-11.2c-1.9-1.1-1.9-3.8 0-4.9l19.4-11.2c2.1-1.2 4.7-1.2 6.8 0L79 128.9c1.9 1.1 1.9 3.8 0 4.9L59.7 145c-2.1 1.2-4.7 1.2-6.8 0z"/><path class="st109" d="M53 144.7l-19.1-11c-1.8-1.1-1.8-3.7 0-4.8l19.1-11c2.1-1.2 4.6-1.2 6.6 0l19.1 11c1.8 1.1 1.8 3.7 0 4.8l-19.1 11c-2.1 1.2-4.6 1.2-6.6 0z"/><path class="st93" d="M53 144.5l-18.7-10.8c-1.8-1-1.8-3.7 0-4.7L53 118.2c2-1.2 4.5-1.2 6.5 0L78.3 129c1.8 1 1.8 3.7 0 4.7l-18.7 10.8c-2.1 1.2-4.6 1.2-6.6 0z"/><linearGradient id="SVGID_83_" gradientUnits="userSpaceOnUse" x1="675.752" y1="126.214" x2="685.88" y2="126.214" gradientTransform="matrix(-1 0 0 1 736.719 0)"><stop offset="0" stop-color="#0ff"/><stop offset="1" stop-color="#0071bc"/></linearGradient><path d="M44.3 113.7l7.7-4.4c2.6-1.5 5.8-1.5 8.4 0l7.7 4.4 18.2 7.2v5.3c0 1.2-.6 2.4-1.7 3l-24.2 14c-2.6 1.5-5.8 1.5-8.4 0l-24.2-14c-1.2-.7-1.7-1.8-1.7-3v-5.3l18.2-7.2z" fill="url(#SVGID_83_)"/><linearGradient id="SVGID_84_" gradientUnits="userSpaceOnUse" x1="691.911" y1="127.572" x2="667.774" y2="127.572" gradientTransform="matrix(-1 0 0 1 736.719 0)"><stop offset="0" stop-color="#0ff"/><stop offset="1" stop-color="#fff"/></linearGradient><path d="M44.3 120.9l7.7-4.4c2.6-1.5 5.8-1.5 8.4 0l7.7 4.4h18.2v.8c0 1.2-.6 2.4-1.7 3l-24.2 14c-2.6 1.5-5.8 1.5-8.4 0l-24.2-14c-1.2-.7-1.7-1.8-1.7-3v-.8h18.2z" fill="url(#SVGID_84_)"/><path class="st93" d="M52 137.2l-24.2-14c-2.3-1.3-2.3-4.7 0-6.1l24.2-14c2.6-1.5 5.8-1.5 8.4 0l24.2 14c2.3 1.3 2.3 4.7 0 6.1l-24.2 14c-2.6 1.5-5.8 1.5-8.4 0z"/><linearGradient id="SVGID_85_" gradientUnits="userSpaceOnUse" x1="684.693" y1="120.242" x2="675.363" y2="120.242" gradientTransform="matrix(-1 0 0 1 736.719 0)"><stop offset="0" stop-color="#0ff"/><stop offset=".228" stop-color="#14f2fc"/><stop offset=".693" stop-color="#47d2f3"/><stop offset="1" stop-color="#6cbaed"/></linearGradient><path d="M54 129.4l-13-7.5c-1.3-.7-1.3-2.5 0-3.3l13-7.5c1.4-.8 3.1-.8 4.5 0l13 7.5c1.3.7 1.3 2.5 0 3.3l-13 7.5c-1.4.8-3.1.8-4.5 0z" fill="url(#SVGID_85_)"/><defs><filter id="Adobe_OpacityMaskFilter_44_" filterUnits="userSpaceOnUse" x="112.6" y="147.2" width="60.4" height="44.5"><feFlood result="back" flood-color="#fff" flood-opacity="1"/><feBlend in="SourceGraphic" in2="back"/></filter></defs><mask maskUnits="userSpaceOnUse" x="112.6" y="147.2" width="60.4" height="44.5" id="SVGID_86_"><g filter="url(#Adobe_OpacityMaskFilter_44_)"><defs><filter id="Adobe_OpacityMaskFilter_45_" filterUnits="userSpaceOnUse" x="112.6" y="147.2" width="60.4" height="44.5"><feFlood result="back" flood-color="#fff" flood-opacity="1"/><feBlend in="SourceGraphic" in2="back"/></filter></defs><linearGradient id="SVGID_87_" gradientUnits="userSpaceOnUse" x1="593.899" y1="112.793" x2="593.899" y2="191.084" gradientTransform="matrix(-1 0 0 1 736.719 0)"><stop offset="0" stop-color="#fff"/><stop offset=".048" stop-color="#eaeaea"/><stop offset=".2" stop-color="#adadad"/><stop offset=".351" stop-color="#787878"/><stop offset=".498" stop-color="#4d4d4d"/><stop offset=".639" stop-color="#2c2c2c"/><stop offset=".772" stop-color="#131313"/><stop offset=".896" stop-color="#050505"/><stop offset="1"/></linearGradient><path mask="url(#SVGID_86_)" fill="url(#SVGID_87_)" d="M112.6 191.7H173v-44.5h-60.4z"/></g></mask><linearGradient id="SVGID_88_" gradientUnits="userSpaceOnUse" x1="593.899" y1="112.793" x2="593.899" y2="191.084" gradientTransform="matrix(-1 0 0 1 736.719 0)"><stop offset="0" stop-color="#0ff"/><stop offset=".855" stop-color="#0ff" stop-opacity=".145"/><stop offset="1" stop-color="#0ff" stop-opacity="0"/></linearGradient><path fill="url(#SVGID_88_)" d="M112.6 191.7H173v-44.5h-60.4z"/><linearGradient id="SVGID_89_" gradientUnits="userSpaceOnUse" x1="589.254" y1="148.613" x2="599.383" y2="148.613" gradientTransform="matrix(-1 0 0 1 736.719 0)"><stop offset="0" stop-color="#0ff"/><stop offset="1" stop-color="#0071bc"/></linearGradient><path d="M130.8 136.1l7.7-4.4c2.6-1.5 5.8-1.5 8.4 0l7.7 4.4 18.2 7.2v5.3c0 1.2-.6 2.4-1.7 3l-24.2 14c-2.6 1.5-5.8 1.5-8.4 0l-24.2-14c-1.2-.7-1.7-1.9-1.7-3v-5.3l18.2-7.2z" fill="url(#SVGID_89_)"/><linearGradient id="SVGID_90_" gradientUnits="userSpaceOnUse" x1="605.413" y1="149.972" x2="581.276" y2="149.972" gradientTransform="matrix(-1 0 0 1 736.719 0)"><stop offset="0" stop-color="#0ff"/><stop offset="1" stop-color="#fff"/></linearGradient><path d="M130.8 143.3l7.7-4.4c2.6-1.5 5.8-1.5 8.4 0l7.7 4.4h18.2v.8c0 1.2-.6 2.4-1.7 3l-24.2 14c-2.6 1.5-5.8 1.5-8.4 0l-24.2-14c-1.2-.7-1.7-1.9-1.7-3v-.8h18.2z" fill="url(#SVGID_90_)"/><path class="st93" d="M138.5 159.6l-24.2-14c-2.3-1.3-2.3-4.7 0-6.1l24.2-14c2.6-1.5 5.8-1.5 8.4 0l24.2 14c2.3 1.3 2.3 4.7 0 6.1l-24.2 14c-2.6 1.5-5.8 1.5-8.4 0z"/><path class="st94" d="M138.6 159.6l-24-13.8c-2.3-1.3-2.3-4.7 0-6l24-13.8c2.6-1.5 5.8-1.5 8.4 0l24 13.8c2.3 1.3 2.3 4.7 0 6l-24 13.8c-2.6 1.5-5.8 1.5-8.4 0z"/><path class="st95" d="M138.7 159.4L115 145.7c-2.3-1.3-2.3-4.6 0-5.9l23.6-13.6c2.5-1.5 5.7-1.5 8.2 0l23.6 13.6c2.3 1.3 2.3 4.6 0 5.9l-23.6 13.6c-2.5 1.6-5.6 1.6-8.1.1z"/><path class="st96" d="M138.7 159.2l-23.3-13.5c-2.2-1.3-2.2-4.5 0-5.8l23.3-13.5c2.5-1.5 5.6-1.5 8.1 0l23.3 13.5c2.2 1.3 2.2 4.5 0 5.8l-23.3 13.5c-2.5 1.4-5.6 1.4-8.1 0z"/><path class="st97" d="M138.8 158.9l-23-13.3c-2.2-1.3-2.2-4.5 0-5.8l23-13.3c2.5-1.4 5.5-1.4 8 0l23 13.3c2.2 1.3 2.2 4.5 0 5.8l-23 13.3c-2.5 1.5-5.6 1.5-8 0z"/><path class="st98" d="M138.8 158.7l-22.7-13.1c-2.2-1.3-2.2-4.4 0-5.7l22.7-13.1c2.4-1.4 5.5-1.4 7.9 0l22.7 13.1c2.2 1.3 2.2 4.4 0 5.7l-22.7 13.1c-2.4 1.4-5.4 1.4-7.9 0z"/><path class="st99" d="M138.9 158.5l-22.3-12.9c-2.2-1.2-2.2-4.4 0-5.6l22.3-12.9c2.4-1.4 5.4-1.4 7.8 0L169 140c2.2 1.2 2.2 4.4 0 5.6l-22.3 12.9c-2.4 1.4-5.4 1.4-7.8 0z"/><path class="st100" d="M138.9 158.2l-22-12.7c-2.1-1.2-2.1-4.3 0-5.5l22-12.7c2.4-1.4 5.3-1.4 7.7 0l22 12.7c2.1 1.2 2.1 4.3 0 5.5l-22 12.7c-2.4 1.4-5.3 1.4-7.7 0z"/><path class="st101" d="M139 158l-21.7-12.5c-2.1-1.2-2.1-4.2 0-5.4l21.7-12.5c2.3-1.3 5.2-1.3 7.6 0l21.7 12.5c2.1 1.2 2.1 4.2 0 5.4L146.6 158c-2.4 1.4-5.3 1.4-7.6 0z"/><path class="st102" d="M139.1 157.8l-21.4-12.3c-2.1-1.2-2.1-4.2 0-5.3l21.4-12.3c2.3-1.3 5.1-1.3 7.4 0l21.4 12.3c2.1 1.2 2.1 4.2 0 5.3l-21.4 12.3c-2.3 1.3-5.1 1.3-7.4 0z"/><path class="st103" d="M139.1 157.6l-21-12.1c-2-1.2-2-4.1 0-5.3l21-12.1c2.3-1.3 5.1-1.3 7.3 0l21 12.1c2 1.2 2 4.1 0 5.3l-21 12.1c-2.2 1.3-5 1.3-7.3 0z"/><path class="st104" d="M139.2 157.3l-20.7-12c-2-1.2-2-4 0-5.2l20.7-12c2.2-1.3 5-1.3 7.2 0l20.7 12c2 1.2 2 4 0 5.2l-20.7 12c-2.3 1.3-5 1.3-7.2 0z"/><path class="st105" d="M139.2 157.1l-20.4-11.8c-2-1.1-2-4 0-5.1l20.4-11.8c2.2-1.3 4.9-1.3 7.1 0l20.4 11.8c2 1.1 2 4 0 5.1l-20.4 11.8a6.95 6.95 0 0 1-7.1 0z"/><path class="st106" d="M139.3 156.9l-20-11.6c-1.9-1.1-1.9-3.9 0-5l20-11.6c2.2-1.2 4.8-1.2 7 0l20 11.6c1.9 1.1 1.9 3.9 0 5l-20 11.6c-2.2 1.2-4.9 1.2-7 0z"/><path class="st107" d="M139.3 156.6l-19.7-11.4c-1.9-1.1-1.9-3.8 0-4.9l19.7-11.4c2.1-1.2 4.7-1.2 6.9 0l19.7 11.4c1.9 1.1 1.9 3.8 0 4.9l-19.7 11.4c-2.1 1.3-4.7 1.3-6.9 0z"/><path class="st108" d="M139.4 156.4L120 145.2c-1.9-1.1-1.9-3.8 0-4.9l19.4-11.2c2.1-1.2 4.7-1.2 6.8 0l19.4 11.2c1.9 1.1 1.9 3.8 0 4.9l-19.4 11.2c-2.1 1.2-4.7 1.2-6.8 0z"/><path class="st109" d="M139.5 156.2l-19.1-11c-1.8-1.1-1.8-3.7 0-4.8l19.1-11c2.1-1.2 4.6-1.2 6.6 0l19.1 11c1.8 1.1 1.8 3.7 0 4.8l-19.1 11c-2.1 1.2-4.6 1.2-6.6 0z"/><path class="st93" d="M139.5 156l-18.7-10.8c-1.8-1-1.8-3.7 0-4.7l18.7-10.8c2-1.2 4.5-1.2 6.5 0l18.7 10.8c1.8 1 1.8 3.7 0 4.7L146 156c-2 1.1-4.5 1.1-6.5 0z"/><linearGradient id="SVGID_91_" gradientUnits="userSpaceOnUse" x1="589.254" y1="137.498" x2="599.383" y2="137.498" gradientTransform="matrix(-1 0 0 1 736.719 0)"><stop offset="0" stop-color="#0ff"/><stop offset="1" stop-color="#0071bc"/></linearGradient><path d="M130.8 125l7.7-4.4c2.6-1.5 5.8-1.5 8.4 0l7.7 4.4 18.2 7.2v5.3c0 1.2-.6 2.4-1.7 3l-24.2 14c-2.6 1.5-5.8 1.5-8.4 0l-24.2-14c-1.2-.7-1.7-1.9-1.7-3v-5.3l18.2-7.2z" fill="url(#SVGID_91_)"/><linearGradient id="SVGID_92_" gradientUnits="userSpaceOnUse" x1="605.413" y1="138.857" x2="581.276" y2="138.857" gradientTransform="matrix(-1 0 0 1 736.719 0)"><stop offset="0" stop-color="#0ff"/><stop offset="1" stop-color="#fff"/></linearGradient><path d="M130.8 132.2l7.7-4.4c2.6-1.5 5.8-1.5 8.4 0l7.7 4.4h18.2v.8c0 1.2-.6 2.4-1.7 3l-24.2 14c-2.6 1.5-5.8 1.5-8.4 0l-24.2-14c-1.2-.7-1.7-1.8-1.7-3v-.8h18.2z" fill="url(#SVGID_92_)"/><path class="st93" d="M138.5 148.5l-24.2-14c-2.3-1.3-2.3-4.7 0-6.1l24.2-14c2.6-1.5 5.8-1.5 8.4 0l24.2 14c2.3 1.3 2.3 4.7 0 6.1l-24.2 14c-2.6 1.5-5.8 1.5-8.4 0z"/><linearGradient id="SVGID_93_" gradientUnits="userSpaceOnUse" x1="598.196" y1="131.526" x2="588.866" y2="131.526" gradientTransform="matrix(-1 0 0 1 736.719 0)"><stop offset="0" stop-color="#0ff"/><stop offset=".228" stop-color="#14f2fc"/><stop offset=".693" stop-color="#47d2f3"/><stop offset="1" stop-color="#6cbaed"/></linearGradient><path d="M140.5 140.7l-13-7.5c-1.3-.7-1.3-2.5 0-3.3l13-7.5c1.4-.8 3.1-.8 4.5 0l13 7.5c1.3.7 1.3 2.5 0 3.3l-13 7.5c-1.4.8-3.1.8-4.5 0z" fill="url(#SVGID_93_)"/><linearGradient id="SVGID_94_" gradientUnits="userSpaceOnUse" x1="56.227" y1="129.54" x2="56.227" y2="120.182"><stop offset="0" stop-color="#0ff"/><stop offset="1" stop-color="#0ff" stop-opacity=".8"/></linearGradient><path d="M40 120.1v.2c0 .6.3 1.3.9 1.6l13 7.5c1.4.8 3.1.8 4.5 0l13-7.5c.6-.4.9-1 .9-1.6v-.2H40z" fill="url(#SVGID_94_)"/><linearGradient id="SVGID_95_" gradientUnits="userSpaceOnUse" x1="56.227" y1="116.296" x2="56.227" y2="40.308"><stop offset="0" stop-color="#0ff" stop-opacity=".8"/><stop offset="1" stop-color="#0ff" stop-opacity="0"/></linearGradient><path fill="url(#SVGID_95_)" d="M40 39.4h32.5v80.7H40z"/><linearGradient id="SVGID_96_" gradientUnits="userSpaceOnUse" x1="99.146" y1="92.545" x2="99.146" y2="83.188"><stop offset="0" stop-color="#0ff"/><stop offset="1" stop-color="#0ff" stop-opacity=".8"/></linearGradient><path d="M82.9 83.1v.2c0 .6.3 1.3.9 1.6l13 7.5c1.4.8 3.1.8 4.5 0l13-7.5c.6-.4.9-1 .9-1.6v-.2H82.9z" fill="url(#SVGID_96_)"/><linearGradient id="SVGID_97_" gradientUnits="userSpaceOnUse" x1="99.146" y1="79.302" x2="99.146" y2="3.314"><stop offset="0" stop-color="#0ff" stop-opacity=".8"/><stop offset="1" stop-color="#0ff" stop-opacity="0"/></linearGradient><path fill="url(#SVGID_97_)" d="M82.9 2.4h32.5v80.7H82.9z"/><linearGradient id="SVGID_98_" gradientUnits="userSpaceOnUse" x1="142.724" y1="140.869" x2="142.724" y2="131.512"><stop offset="0" stop-color="#0ff"/><stop offset="1" stop-color="#0ff" stop-opacity=".8"/></linearGradient><path d="M126.5 131.4v.2c0 .6.3 1.3.9 1.6l13 7.5c1.4.8 3.1.8 4.5 0l13-7.5c.6-.4.9-1 .9-1.6v-.2h-32.3z" fill="url(#SVGID_98_)"/><linearGradient id="SVGID_99_" gradientUnits="userSpaceOnUse" x1="142.724" y1="127.626" x2="142.724" y2="51.638"><stop offset="0" stop-color="#0ff" stop-opacity=".8"/><stop offset="1" stop-color="#0ff" stop-opacity="0"/></linearGradient><path fill="url(#SVGID_99_)" d="M126.5 50.7H159v80.7h-32.5z"/></svg>