<svg id="google-plus" xmlns="http://www.w3.org/2000/svg" viewBox="0 0 43 26.9"><path d="M26.3 13.8c0 2.6-.5 4.8-1.6 6.8s-2.6 3.5-4.5 4.7c-2 1.1-4.2 1.7-6.7 1.7-2.4 0-4.7-.6-6.8-1.8C4.6 24 3 22.4 1.8 20.3S0 15.9 0 13.5s.6-4.7 1.8-6.7 2.8-3.7 4.9-4.9C8.8.7 11 .1 13.5.1c3.5 0 6.5 1.2 9 3.5l-3.6 3.5c-1.4-1.4-3.2-2-5.3-2-1.5 0-2.9.4-4.2 1.1S7 7.9 6.2 9.2c-.7 1.3-1.1 2.7-1.1 4.3s.4 3 1.1 4.3c.7 1.3 1.8 2.3 3 3.1 1.3.7 2.7 1.1 4.2 1.1 1.6 0 3.1-.3 4.3-1 1-.6 1.8-1.4 2.4-2.4.5-.8.8-1.6 1-2.3h-7.6v-4.7h12.7c0 .7.1 1.5.1 2.2zM39 8.1h-3.9V12h-3.8v4h3.8v3.9H39V16h4v-4h-4V8.1z"/></svg>