<svg id="_x2014_лой_x5F_1" xmlns="http://www.w3.org/2000/svg" viewBox="0 0 240.6 200.6" enable-background="new 0 0 240.6 200.6"><path d="M114.9 199.1L1.2 133.5c-1.6-.9-1.6-3.3 0-4.2l113.7-65.7c3.3-1.9 7.4-1.9 10.8 0l113.7 65.7c1.6.9 1.6 3.3 0 4.2l-113.7 65.7c-3.3 1.9-7.4 1.9-10.8-.1z" fill="#140d4c" opacity=".67"/><g opacity=".5"><linearGradient id="hole_1_" gradientUnits="userSpaceOnUse" x1="16.894" y1="131.381" x2="223.74" y2="131.381"><stop offset="0" stop-color="#1c155a"/><stop offset=".042" stop-color="#211e60"/><stop offset=".111" stop-color="#2e366f"/><stop offset=".198" stop-color="#435e88"/><stop offset=".3" stop-color="#6095ab"/><stop offset=".413" stop-color="#85dbd7"/><stop offset=".43" stop-color="#8be6de"/><stop offset=".904" stop-color="#2f3970"/><stop offset="1" stop-color="#1c155a"/></linearGradient><path d="M120.3 191.7c-1.5 0-3-.4-4.3-1.1l-97.5-56.3c-1-.6-1.6-1.7-1.6-2.9s.6-2.3 1.6-2.8L116 72.2c2.6-1.5 5.9-1.5 8.6 0l97.5 56.3c1 .6 1.6 1.7 1.6 2.9s-.6 2.3-1.6 2.9l-97.5 56.3c-1.3.7-2.8 1.1-4.3 1.1zm-2.8-3.8c1.7 1 3.9 1 5.6 0l97.5-56.3c.1-.1.1-.1.1-.3 0-.1 0-.2-.1-.3l-97.5-56.3c-1.7-1-3.9-1-5.6 0L20 131.1c-.1.1-.1.1-.1.3 0 .1 0 .2.1.3l97.5 56.2z" fill="url(#hole_1_)"/></g><path fill="#0f0b44" d="M120.3 178.5l-81.6-47.1 81.6-47.1 81.6 47.1z" opacity=".9"/><linearGradient id="hole_2_" gradientUnits="userSpaceOnUse" x1="120.32" y1="167.441" x2="120.32" y2="123.123"><stop offset="0" stop-color="#0ff"/><stop offset="1" stop-color="#0ff" stop-opacity=".7"/></linearGradient><path d="M52.7 122.6v6.4c0 2.6 1.3 5.3 3.9 6.8l54.3 31.3c5.9 3.4 13.1 3.4 18.9 0l54.3-31.3c2.6-1.5 3.9-4.2 3.9-6.8v-6.4H52.7z" fill="url(#hole_2_)"/><linearGradient id="hole_3_" gradientUnits="userSpaceOnUse" x1="120.32" y1="116.862" x2="120.32" y2="1.36"><stop offset="0" stop-color="#0ff" stop-opacity=".7"/><stop offset=".142" stop-color="#0ff" stop-opacity=".6"/><stop offset="1" stop-color="#0ff" stop-opacity="0"/></linearGradient><path fill="url(#hole_3_)" d="M52.7 38.8v83.8H188V38.8L120.3 0z"/><linearGradient id="hole_4_" gradientUnits="userSpaceOnUse" x1="120.32" y1="169.374" x2="120.32" y2="92.688"><stop offset="0" stop-color="#0ff"/><stop offset="1" stop-color="#0ff" stop-opacity="0"/></linearGradient><path d="M115.9 168.4l-60.3-34.8c-2.4-1.4-2.1-3.9.7-5.5l59-34c2.8-1.6 7.1-1.8 9.5-.4l60.3 34.8c2.4 1.4 2.1 3.9-.7 5.5l-59 34c-2.8 1.7-7.1 1.8-9.5.4z" opacity=".66" fill="url(#hole_4_)"/><defs><filter id="Adobe_OpacityMaskFilter" filterUnits="userSpaceOnUse" x="53.9" y="92.7" width="132.8" height="76.7"><feFlood result="back" flood-color="#fff" flood-opacity="1"/><feBlend in="SourceGraphic" in2="back"/></filter></defs><mask maskUnits="userSpaceOnUse" x="53.9" y="92.7" width="132.8" height="76.7" id="hole_5_"><g filter="url(#Adobe_OpacityMaskFilter)"><defs><filter id="Adobe_OpacityMaskFilter_1_" filterUnits="userSpaceOnUse" x="53.9" y="92.7" width="132.8" height="76.7"><feFlood result="back" flood-color="#fff" flood-opacity="1"/><feBlend in="SourceGraphic" in2="back"/></filter></defs><radialGradient id="hole_6_" cx="120.32" cy="161.172" r="54.225" gradientUnits="userSpaceOnUse"><stop offset="0" stop-color="#e6e6e6"/><stop offset=".097" stop-color="#dfdfdf"/><stop offset=".232" stop-color="#cdcdcd"/><stop offset=".391" stop-color="#afafaf"/><stop offset=".566" stop-color="#858585"/><stop offset=".756" stop-color="#505050"/><stop offset=".955" stop-color="#101010"/><stop offset="1"/></radialGradient><path d="M115.9 168.4l-60.3-34.8c-2.4-1.4-2.1-3.9.7-5.5l59-34c2.8-1.6 7.1-1.8 9.5-.4l60.3 34.8c2.4 1.4 2.1 3.9-.7 5.5l-59 34c-2.8 1.7-7.1 1.8-9.5.4z" mask="url(#hole_5_)" fill="url(#hole_6_)"/></g></mask><linearGradient id="hole_7_" gradientUnits="userSpaceOnUse" x1="120.32" y1="169.374" x2="120.32" y2="92.688"><stop offset="0" stop-color="#0ff"/><stop offset="1" stop-color="#0ff" stop-opacity="0"/></linearGradient><path d="M115.9 168.4l-60.3-34.8c-2.4-1.4-2.1-3.9.7-5.5l59-34c2.8-1.6 7.1-1.8 9.5-.4l60.3 34.8c2.4 1.4 2.1 3.9-.7 5.5l-59 34c-2.8 1.7-7.1 1.8-9.5.4z" opacity=".66" fill="url(#hole_7_)"/><linearGradient id="hole_8_" gradientUnits="userSpaceOnUse" x1="120.32" y1="146.742" x2="120.32" y2="92.688"><stop offset="0" stop-color="#0ff"/><stop offset=".859" stop-color="#0ff" stop-opacity=".141"/><stop offset="1" stop-color="#0ff" stop-opacity="0"/></linearGradient><path d="M55.6 133.6l22.8 13.2 36.9-21.3c2.8-1.6 7.1-1.8 9.5-.4l37.6 21.7 22.1-12.8c2.8-1.6 3.1-4.1.7-5.5l-60.3-34.8c-2.4-1.4-6.7-1.2-9.5.4l-59 34c-3 1.6-3.3 4.1-.8 5.5z" fill="url(#hole_8_)"/><defs><filter id="Adobe_OpacityMaskFilter_2_" filterUnits="userSpaceOnUse" x="124.4" y=".9" width="9" height="164.4"><feFlood result="back" flood-color="#fff" flood-opacity="1"/><feBlend in="SourceGraphic" in2="back"/></filter></defs><mask maskUnits="userSpaceOnUse" x="124.4" y=".9" width="9" height="164.4" id="hole_9_"><g filter="url(#Adobe_OpacityMaskFilter_2_)"><defs><filter id="Adobe_OpacityMaskFilter_3_" filterUnits="userSpaceOnUse" x="124.4" y=".9" width="9" height="193"><feFlood result="back" flood-color="#fff" flood-opacity="1"/><feBlend in="SourceGraphic" in2="back"/></filter></defs><linearGradient id="hole_10_" gradientUnits="userSpaceOnUse" x1="-703.98" y1="1307.414" x2="-703.98" y2="1141.47" gradientTransform="matrix(.866 .5 0 1.1547 738.496 -964.462)"><stop offset="0"/><stop offset=".058" stop-color="#292929"/><stop offset=".145" stop-color="#626262"/><stop offset=".231" stop-color="#919191"/><stop offset=".311" stop-color="#b6b6b6"/><stop offset=".386" stop-color="#d0d0d0"/><stop offset=".453" stop-color="#e0e0e0"/><stop offset=".505" stop-color="#e6e6e6"/><stop offset=".551" stop-color="#dedede"/><stop offset=".621" stop-color="#c9c9c9"/><stop offset=".706" stop-color="#a7a7a7"/><stop offset=".802" stop-color="#777"/><stop offset=".908" stop-color="#3b3b3b"/><stop offset="1"/></linearGradient><path d="M129.2 1.8l-.6-.4c-2.3-1.3-4.2.1-4.2 3.2v180.5c0 3.1 1.9 6.6 4.2 8l.6.4c2.3 1.3 4.2-.1 4.2-3.2V9.8c-.1-3.1-1.9-6.7-4.2-8z" mask="url(#hole_9_)" fill="url(#hole_10_)"/></g></mask><linearGradient id="hole_11_" gradientUnits="userSpaceOnUse" x1="-703.98" y1="1282.679" x2="-703.98" y2="1141.47" gradientTransform="matrix(.866 .5 0 1.1547 738.496 -964.462)"><stop offset="0" stop-color="#0ff"/><stop offset="1" stop-color="#0ff" stop-opacity="0"/></linearGradient><path d="M129.2 1.8l-.6-.4c-2.3-1.3-4.2.1-4.2 3.2v151.9c0 3.1 1.9 6.6 4.2 8l.6.4c2.3 1.3 4.2-.1 4.2-3.2V9.8c-.1-3.1-1.9-6.7-4.2-8z" opacity=".66" fill="url(#hole_11_)"/><defs><filter id="Adobe_OpacityMaskFilter_4_" filterUnits="userSpaceOnUse" x="141.2" y="39.4" width="9" height="115.9"><feFlood result="back" flood-color="#fff" flood-opacity="1"/><feBlend in="SourceGraphic" in2="back"/></filter></defs><mask maskUnits="userSpaceOnUse" x="141.2" y="39.4" width="9" height="115.9" id="hole_12_"><g filter="url(#Adobe_OpacityMaskFilter_4_)"><defs><filter id="Adobe_OpacityMaskFilter_5_" filterUnits="userSpaceOnUse" x="141.2" y="39.4" width="9" height="164.2"><feFlood result="back" flood-color="#fff" flood-opacity="1"/><feBlend in="SourceGraphic" in2="back"/></filter></defs><linearGradient id="hole_13_" gradientUnits="userSpaceOnUse" x1="-684.565" y1="1307.414" x2="-684.565" y2="1166.376" gradientTransform="matrix(.866 .5 0 1.1547 738.496 -964.462)"><stop offset="0"/><stop offset=".058" stop-color="#292929"/><stop offset=".145" stop-color="#626262"/><stop offset=".231" stop-color="#919191"/><stop offset=".311" stop-color="#b6b6b6"/><stop offset=".386" stop-color="#d0d0d0"/><stop offset=".453" stop-color="#e0e0e0"/><stop offset=".505" stop-color="#e6e6e6"/><stop offset=".551" stop-color="#dedede"/><stop offset=".621" stop-color="#c9c9c9"/><stop offset=".706" stop-color="#a7a7a7"/><stop offset=".802" stop-color="#777"/><stop offset=".908" stop-color="#3b3b3b"/><stop offset="1"/></linearGradient><path d="M146 40.2l-.6-.4c-2.3-1.3-4.2.1-4.2 3.2v151.7c0 3.1 1.9 6.6 4.2 8l.6.4c2.3 1.3 4.2-.1 4.2-3.2V48.2c-.1-3.1-1.9-6.6-4.2-8z" mask="url(#hole_12_)" fill="url(#hole_13_)"/></g></mask><linearGradient id="hole_14_" gradientUnits="userSpaceOnUse" x1="-684.565" y1="1265.542" x2="-684.565" y2="1166.376" gradientTransform="matrix(.866 .5 0 1.1547 738.496 -964.462)"><stop offset="0" stop-color="#0ff"/><stop offset="1" stop-color="#0ff" stop-opacity="0"/></linearGradient><path d="M146 40.2l-.6-.4c-2.3-1.3-4.2.1-4.2 3.2v103.4c0 3.1 1.9 6.6 4.2 8l.6.4c2.3 1.3 4.2-.1 4.2-3.2V48.2c-.1-3.1-1.9-6.6-4.2-8z" opacity=".66" fill="url(#hole_14_)"/><defs><filter id="Adobe_OpacityMaskFilter_6_" filterUnits="userSpaceOnUse" x="158" y="84.8" width="9" height="60.7"><feFlood result="back" flood-color="#fff" flood-opacity="1"/><feBlend in="SourceGraphic" in2="back"/></filter></defs><mask maskUnits="userSpaceOnUse" x="158" y="84.8" width="9" height="60.7" id="hole_15_"><g filter="url(#Adobe_OpacityMaskFilter_6_)"><defs><filter id="Adobe_OpacityMaskFilter_7_" filterUnits="userSpaceOnUse" x="158" y="84.8" width="9" height="69.3"><feFlood result="back" flood-color="#fff" flood-opacity="1"/><feBlend in="SourceGraphic" in2="back"/></filter></defs><linearGradient id="hole_16_" gradientUnits="userSpaceOnUse" x1="-665.151" y1="1256.192" x2="-665.151" y2="1197.315" gradientTransform="matrix(.866 .5 0 1.1547 738.496 -964.462)"><stop offset="0"/><stop offset=".058" stop-color="#292929"/><stop offset=".145" stop-color="#626262"/><stop offset=".231" stop-color="#919191"/><stop offset=".311" stop-color="#b6b6b6"/><stop offset=".386" stop-color="#d0d0d0"/><stop offset=".453" stop-color="#e0e0e0"/><stop offset=".505" stop-color="#e6e6e6"/><stop offset=".551" stop-color="#dedede"/><stop offset=".621" stop-color="#c9c9c9"/><stop offset=".706" stop-color="#a7a7a7"/><stop offset=".802" stop-color="#777"/><stop offset=".908" stop-color="#3b3b3b"/><stop offset="1"/></linearGradient><path d="M162.8 85.7l-.6-.4c-2.3-1.3-4.2.1-4.2 3.2v56.9c0 3.1 1.9 6.6 4.2 8l.6.4c2.3 1.3 4.2-.1 4.2-3.2V93.7c0-3.1-1.9-6.7-4.2-8z" mask="url(#hole_15_)" fill="url(#hole_16_)"/></g></mask><linearGradient id="hole_17_" gradientUnits="userSpaceOnUse" x1="-665.151" y1="1248.666" x2="-665.151" y2="1197.315" gradientTransform="matrix(.866 .5 0 1.1547 738.496 -964.462)"><stop offset="0" stop-color="#0ff"/><stop offset="1" stop-color="#0ff" stop-opacity="0"/></linearGradient><path d="M162.8 85.7l-.6-.4c-2.3-1.3-4.2.1-4.2 3.2v48.2c0 3.1 1.9 6.6 4.2 8l.6.4c2.3 1.3 4.2-.1 4.2-3.2V93.7c0-3.1-1.9-6.7-4.2-8z" opacity=".66" fill="url(#hole_17_)"/><defs><filter id="Adobe_OpacityMaskFilter_8_" filterUnits="userSpaceOnUse" x="174.7" y="109.8" width="9" height="26"><feFlood result="back" flood-color="#fff" flood-opacity="1"/><feBlend in="SourceGraphic" in2="back"/></filter></defs><mask maskUnits="userSpaceOnUse" x="174.7" y="109.8" width="9" height="26" id="hole_18_"><g filter="url(#Adobe_OpacityMaskFilter_8_)"><defs><filter id="Adobe_OpacityMaskFilter_9_" filterUnits="userSpaceOnUse" x="174.7" y="109.8" width="9" height="34.3"><feFlood result="back" flood-color="#fff" flood-opacity="1"/><feBlend in="SourceGraphic" in2="back"/></filter></defs><linearGradient id="hole_19_" gradientUnits="userSpaceOnUse" x1="-645.909" y1="1239.101" x2="-645.909" y2="1210.577" gradientTransform="matrix(.866 .5 0 1.1547 738.496 -964.462)"><stop offset="0"/><stop offset=".058" stop-color="#292929"/><stop offset=".145" stop-color="#626262"/><stop offset=".231" stop-color="#919191"/><stop offset=".311" stop-color="#b6b6b6"/><stop offset=".386" stop-color="#d0d0d0"/><stop offset=".453" stop-color="#e0e0e0"/><stop offset=".505" stop-color="#e6e6e6"/><stop offset=".551" stop-color="#dedede"/><stop offset=".621" stop-color="#c9c9c9"/><stop offset=".706" stop-color="#a7a7a7"/><stop offset=".802" stop-color="#777"/><stop offset=".908" stop-color="#3b3b3b"/><stop offset="1"/></linearGradient><path d="M179.4 110.6l-.6-.4c-2.3-1.3-4.2.1-4.2 3.2v21.8c0 3.1 1.9 6.6 4.2 8l.6.4c2.3 1.3 4.2-.1 4.2-3.2v-21.8c0-3.1-1.8-6.7-4.2-8z" mask="url(#hole_18_)" fill="url(#hole_19_)"/></g></mask><linearGradient id="hole_20_" gradientUnits="userSpaceOnUse" x1="-645.909" y1="1231.951" x2="-645.909" y2="1210.577" gradientTransform="matrix(.866 .5 0 1.1547 738.496 -964.462)"><stop offset="0" stop-color="#0ff"/><stop offset="1" stop-color="#0ff" stop-opacity="0"/></linearGradient><path d="M179.4 110.6l-.6-.4c-2.3-1.3-4.2.1-4.2 3.2V127c0 3.1 1.9 6.6 4.2 8l.6.4c2.3 1.3 4.2-.1 4.2-3.2v-13.6c0-3.1-1.8-6.7-4.2-8z" opacity=".66" fill="url(#hole_20_)"/><defs><filter id="Adobe_OpacityMaskFilter_10_" filterUnits="userSpaceOnUse" x="107.3" y=".9" width="9" height="163.2"><feFlood result="back" flood-color="#fff" flood-opacity="1"/><feBlend in="SourceGraphic" in2="back"/></filter></defs><mask maskUnits="userSpaceOnUse" x="107.3" y=".9" width="9" height="163.2" id="hole_21_"><g filter="url(#Adobe_OpacityMaskFilter_10_)"><defs><filter id="Adobe_OpacityMaskFilter_11_" filterUnits="userSpaceOnUse" x="107.3" y=".9" width="9" height="193"><feFlood result="back" flood-color="#fff" flood-opacity="1"/><feBlend in="SourceGraphic" in2="back"/></filter></defs><linearGradient id="hole_22_" gradientUnits="userSpaceOnUse" x1="-1711.236" y1="1743.569" x2="-1711.236" y2="1577.625" gradientTransform="matrix(-.866 .5 0 1.1547 -1370.15 -964.462)"><stop offset="0"/><stop offset=".058" stop-color="#292929"/><stop offset=".145" stop-color="#626262"/><stop offset=".231" stop-color="#919191"/><stop offset=".311" stop-color="#b6b6b6"/><stop offset=".386" stop-color="#d0d0d0"/><stop offset=".453" stop-color="#e0e0e0"/><stop offset=".505" stop-color="#e6e6e6"/><stop offset=".551" stop-color="#dedede"/><stop offset=".621" stop-color="#c9c9c9"/><stop offset=".706" stop-color="#a7a7a7"/><stop offset=".802" stop-color="#777"/><stop offset=".908" stop-color="#3b3b3b"/><stop offset="1"/></linearGradient><path d="M111.5 1.8l.6-.4c2.3-1.3 4.2.1 4.2 3.2v180.5c0 3.1-1.9 6.6-4.2 8l-.6.4c-2.3 1.3-4.2-.1-4.2-3.2V9.8c0-3.1 1.9-6.7 4.2-8z" mask="url(#hole_21_)" fill="url(#hole_22_)"/></g></mask><linearGradient id="hole_23_" gradientUnits="userSpaceOnUse" x1="-1711.236" y1="1717.752" x2="-1711.236" y2="1577.625" gradientTransform="matrix(-.866 .5 0 1.1547 -1370.15 -964.462)"><stop offset="0" stop-color="#0ff"/><stop offset="1" stop-color="#0ff" stop-opacity="0"/></linearGradient><path d="M111.5 1.8l.6-.4c2.3-1.3 4.2.1 4.2 3.2v150.7c0 3.1-1.9 6.6-4.2 8l-.6.4c-2.3 1.3-4.2-.1-4.2-3.2V9.8c0-3.1 1.9-6.7 4.2-8z" opacity=".66" fill="url(#hole_23_)"/><defs><filter id="Adobe_OpacityMaskFilter_12_" filterUnits="userSpaceOnUse" x="90.5" y="39.4" width="9" height="115.9"><feFlood result="back" flood-color="#fff" flood-opacity="1"/><feBlend in="SourceGraphic" in2="back"/></filter></defs><mask maskUnits="userSpaceOnUse" x="90.5" y="39.4" width="9" height="115.9" id="hole_24_"><g filter="url(#Adobe_OpacityMaskFilter_12_)"><defs><filter id="Adobe_OpacityMaskFilter_13_" filterUnits="userSpaceOnUse" x="90.5" y="39.4" width="9" height="164.2"><feFlood result="back" flood-color="#fff" flood-opacity="1"/><feBlend in="SourceGraphic" in2="back"/></filter></defs><linearGradient id="hole_25_" gradientUnits="userSpaceOnUse" x1="-1691.821" y1="1743.569" x2="-1691.821" y2="1602.531" gradientTransform="matrix(-.866 .5 0 1.1547 -1370.15 -964.462)"><stop offset="0"/><stop offset=".058" stop-color="#292929"/><stop offset=".145" stop-color="#626262"/><stop offset=".231" stop-color="#919191"/><stop offset=".311" stop-color="#b6b6b6"/><stop offset=".386" stop-color="#d0d0d0"/><stop offset=".453" stop-color="#e0e0e0"/><stop offset=".505" stop-color="#e6e6e6"/><stop offset=".551" stop-color="#dedede"/><stop offset=".621" stop-color="#c9c9c9"/><stop offset=".706" stop-color="#a7a7a7"/><stop offset=".802" stop-color="#777"/><stop offset=".908" stop-color="#3b3b3b"/><stop offset="1"/></linearGradient><path d="M94.7 40.2l.6-.4c2.3-1.3 4.2.1 4.2 3.2v151.7c0 3.1-1.9 6.6-4.2 8l-.6.4c-2.3 1.3-4.2-.1-4.2-3.2V48.2c0-3.1 1.9-6.6 4.2-8z" mask="url(#hole_24_)" fill="url(#hole_25_)"/></g></mask><linearGradient id="hole_26_" gradientUnits="userSpaceOnUse" x1="-1691.821" y1="1701.697" x2="-1691.821" y2="1602.531" gradientTransform="matrix(-.866 .5 0 1.1547 -1370.15 -964.462)"><stop offset="0" stop-color="#0ff"/><stop offset="1" stop-color="#0ff" stop-opacity="0"/></linearGradient><path d="M94.7 40.2l.6-.4c2.3-1.3 4.2.1 4.2 3.2v103.4c0 3.1-1.9 6.6-4.2 8l-.6.4c-2.3 1.3-4.2-.1-4.2-3.2V48.2c0-3.1 1.9-6.6 4.2-8z" opacity=".66" fill="url(#hole_26_)"/><defs><filter id="Adobe_OpacityMaskFilter_14_" filterUnits="userSpaceOnUse" x="73.7" y="84.8" width="9" height="60.7"><feFlood result="back" flood-color="#fff" flood-opacity="1"/><feBlend in="SourceGraphic" in2="back"/></filter></defs><mask maskUnits="userSpaceOnUse" x="73.7" y="84.8" width="9" height="60.7" id="hole_27_"><g filter="url(#Adobe_OpacityMaskFilter_14_)"><defs><filter id="Adobe_OpacityMaskFilter_15_" filterUnits="userSpaceOnUse" x="73.7" y="84.8" width="9" height="69.3"><feFlood result="back" flood-color="#fff" flood-opacity="1"/><feBlend in="SourceGraphic" in2="back"/></filter></defs><linearGradient id="hole_28_" gradientUnits="userSpaceOnUse" x1="-1672.407" y1="1692.347" x2="-1672.407" y2="1633.47" gradientTransform="matrix(-.866 .5 0 1.1547 -1370.15 -964.462)"><stop offset="0"/><stop offset=".058" stop-color="#292929"/><stop offset=".145" stop-color="#626262"/><stop offset=".231" stop-color="#919191"/><stop offset=".311" stop-color="#b6b6b6"/><stop offset=".386" stop-color="#d0d0d0"/><stop offset=".453" stop-color="#e0e0e0"/><stop offset=".505" stop-color="#e6e6e6"/><stop offset=".551" stop-color="#dedede"/><stop offset=".621" stop-color="#c9c9c9"/><stop offset=".706" stop-color="#a7a7a7"/><stop offset=".802" stop-color="#777"/><stop offset=".908" stop-color="#3b3b3b"/><stop offset="1"/></linearGradient><path d="M77.8 85.7l.6-.4c2.3-1.3 4.2.1 4.2 3.2v56.9c0 3.1-1.9 6.6-4.2 8l-.6.4c-2.3 1.3-4.2-.1-4.2-3.2V93.7c.1-3.1 1.9-6.7 4.2-8z" mask="url(#hole_27_)" fill="url(#hole_28_)"/></g></mask><linearGradient id="hole_29_" gradientUnits="userSpaceOnUse" x1="-1672.407" y1="1684.82" x2="-1672.407" y2="1633.47" gradientTransform="matrix(-.866 .5 0 1.1547 -1370.15 -964.462)"><stop offset="0" stop-color="#0ff"/><stop offset="1" stop-color="#0ff" stop-opacity="0"/></linearGradient><path d="M77.8 85.7l.6-.4c2.3-1.3 4.2.1 4.2 3.2v48.2c0 3.1-1.9 6.6-4.2 8l-.6.4c-2.3 1.3-4.2-.1-4.2-3.2V93.7c.1-3.1 1.9-6.7 4.2-8z" opacity=".66" fill="url(#hole_29_)"/><defs><filter id="Adobe_OpacityMaskFilter_16_" filterUnits="userSpaceOnUse" x="57" y="109.8" width="9" height="25.7"><feFlood result="back" flood-color="#fff" flood-opacity="1"/><feBlend in="SourceGraphic" in2="back"/></filter></defs><mask maskUnits="userSpaceOnUse" x="57" y="109.8" width="9" height="25.7" id="hole_30_"><g filter="url(#Adobe_OpacityMaskFilter_16_)"><defs><filter id="Adobe_OpacityMaskFilter_17_" filterUnits="userSpaceOnUse" x="57" y="109.8" width="9" height="34.3"><feFlood result="back" flood-color="#fff" flood-opacity="1"/><feBlend in="SourceGraphic" in2="back"/></filter></defs><linearGradient id="hole_31_" gradientUnits="userSpaceOnUse" x1="-1653.165" y1="1675.255" x2="-1653.165" y2="1646.732" gradientTransform="matrix(-.866 .5 0 1.1547 -1370.15 -964.462)"><stop offset="0"/><stop offset=".058" stop-color="#292929"/><stop offset=".145" stop-color="#626262"/><stop offset=".231" stop-color="#919191"/><stop offset=".311" stop-color="#b6b6b6"/><stop offset=".386" stop-color="#d0d0d0"/><stop offset=".453" stop-color="#e0e0e0"/><stop offset=".505" stop-color="#e6e6e6"/><stop offset=".551" stop-color="#dedede"/><stop offset=".621" stop-color="#c9c9c9"/><stop offset=".706" stop-color="#a7a7a7"/><stop offset=".802" stop-color="#777"/><stop offset=".908" stop-color="#3b3b3b"/><stop offset="1"/></linearGradient><path d="M61.2 110.6l.6-.4c2.3-1.3 4.2.1 4.2 3.2v21.8c0 3.1-1.9 6.6-4.2 8l-.6.4c-2.3 1.3-4.2-.1-4.2-3.2v-21.8c0-3.1 1.9-6.7 4.2-8z" mask="url(#hole_30_)" fill="url(#hole_31_)"/></g></mask><linearGradient id="hole_32_" gradientUnits="userSpaceOnUse" x1="-1653.165" y1="1667.802" x2="-1653.165" y2="1646.732" gradientTransform="matrix(-.866 .5 0 1.1547 -1370.15 -964.462)"><stop offset="0" stop-color="#0ff"/><stop offset="1" stop-color="#0ff" stop-opacity="0"/></linearGradient><path d="M61.2 110.6l.6-.4c2.3-1.3 4.2.1 4.2 3.2v13.2c0 3.1-1.9 6.6-4.2 8l-.6.4c-2.3 1.3-4.2-.1-4.2-3.2v-13.2c0-3.1 1.9-6.7 4.2-8z" opacity=".66" fill="url(#hole_32_)"/></svg>