<svg fill="#4664BC" id="Слой_1" xmlns="http://www.w3.org/2000/svg" viewBox="0 0 98.8 145.9"><path d="M86.3 49.9c-2.2-1.4-5.2-1.1-6.7 1-1.7 2.3-1 5.4 1.3 6.9 5.2 3.3 8.4 8.9 8.4 15.1 0 6.2-3.1 11.8-8.4 15.1L2.2 137.1s-.1 0-.1.1H2c-1.2.9-2 2.3-2 3.9 0 2.7 2.2 4.8 4.8 4.8.5 0 .9-.1 1.3-.2s.7-.2 1-.4l.1-.1c.1 0 .1-.1.2-.1l78.4-48.9c8.1-5 12.9-13.7 12.9-23.2.1-9.4-4.6-18-12.4-23.1zM2 8.7c.1.1.1.1 0 0l46 28.7c2.3 1.4 5.2.7 6.6-1.5 1.4-2.2.7-5.2-1.5-6.6L7.5.8s-.1 0-.1-.1L7.2.6C6.8.4 6.4.3 6.1.2 5.7.1 5.2 0 4.8 0 2.2 0 0 2.1 0 4.8c0 1.6.8 3 2 3.9z"/></svg>