<svg id="Слой_1" xmlns="http://www.w3.org/2000/svg" viewBox="0 0 157.5 93.2"><style>.st0{fill:#f9f9f9;stroke:#ececec;stroke-miterlimit:10}</style><path class="st0" d="M78.3 20.4c-3.1-4.5-7.4-8.1-13-10.7-5.6-2.6-12.1-3.9-19.5-3.9S31.9 7.1 26.3 9.7c-5.6 2.6-9.9 6.2-13 10.7-3.1 4.5-4.8 9.7-5.2 15.7-.1 3.3-.3 7.6-.3 12.8 0 5.1.1 9.3.4 12.6.7 9.2 4.3 16.6 10.7 22.2 6.4 5.6 15.4 8.4 27 8.5 11.6-.1 20.6-2.9 27-8.5 6.4-5.6 10-13 10.7-22.2.2-3.3.4-7.5.4-12.6 0-5.2-.1-9.5-.4-12.8-.4-5.9-2.2-11.2-5.3-15.7zM52.4 60.9c-.3 5.2-2.5 7.8-6.5 7.8s-6.2-2.6-6.5-7.8c-.2-4.6-.2-8.7-.2-12.1 0-3.7.1-7.7.2-12 .3-5.1 2.5-7.7 6.5-7.8 4 .1 6.2 2.7 6.5 7.8.2 2.2.2 6.2.2 12s-.1 9.8-.2 12.1zM155.4 8c-.6-.6-1.4-1-2.3-1h-22.7c-1 0-1.8.3-2.6.8L98.9 30.3c-.5.3-.9.7-1.1 1.3-.3.5-.4 1.1-.4 1.6 0 .4.2 1 .5 1.8l10.6 13.7c.8 1 1.7 1.6 2.8 1.6.7 0 1.3-.2 1.8-.6l13.4-10.3v48.5c0 .9.3 1.6 1 2.3.6.6 1.4 1 2.3 1h23.5c.9 0 1.6-.3 2.3-1 .6-.6 1-1.4 1-2.3V10.3c-.2-.9-.5-1.7-1.2-2.3z"/><path class="st0" d="M71.3 15.4c-3.1-4.5-7.4-8.1-13-10.7C52.7 2.1 46.2.8 38.8.8S24.9 2.1 19.3 4.7c-5.6 2.6-9.9 6.2-13 10.7-3.1 4.5-4.8 9.7-5.2 15.7C1 34.4.8 38.7.8 43.9c0 5.1.1 9.3.4 12.6.7 9.2 4.3 16.6 10.7 22.2 6.4 5.6 15.4 8.4 27 8.5 11.6-.1 20.6-2.9 27-8.5 6.4-5.6 10-13 10.7-22.2.2-3.3.4-7.5.4-12.6 0-5.2-.1-9.5-.4-12.8-.4-5.9-2.2-11.2-5.3-15.7zM45.4 55.9c-.3 5.2-2.5 7.8-6.5 7.8s-6.2-2.6-6.5-7.8c-.2-4.6-.2-8.7-.2-12.1 0-3.7.1-7.7.2-12 .3-5.1 2.5-7.7 6.5-7.8 4 .1 6.2 2.7 6.5 7.8.2 2.2.2 6.2.2 12s-.1 9.8-.2 12.1zM148.4 3c-.6-.6-1.4-1-2.3-1h-22.7c-1 0-1.8.3-2.6.8L91.9 25.3c-.5.3-.9.7-1.1 1.3-.3.5-.4 1.1-.4 1.6 0 .4.2 1 .5 1.8l10.6 13.7c.8 1 1.7 1.6 2.8 1.6.7 0 1.3-.2 1.8-.6l13.4-10.3v48.5c0 .9.3 1.6 1 2.3.6.6 1.4 1 2.3 1h23.5c.9 0 1.6-.3 2.3-1 .6-.6 1-1.4 1-2.3V5.3c-.2-.9-.5-1.7-1.2-2.3z"/></svg>