<svg id="Слой_1" xmlns="http://www.w3.org/2000/svg" viewBox="0 0 178 93.2"><style>.st0{fill:#f9f9f9;stroke:#ececec;stroke-miterlimit:10}</style><path class="st0" d="M78.4 20.5c-3.1-4.5-7.4-8.1-13-10.7-5.6-2.6-12.1-3.9-19.5-3.9S32 7.2 26.4 9.8c-5.6 2.6-9.9 6.2-13 10.7-3.1 4.5-4.8 9.7-5.2 15.7-.2 3.3-.3 7.6-.3 12.8 0 5.1.1 9.3.4 12.6.7 9.2 4.3 16.6 10.7 22.2 6.4 5.6 15.4 8.4 27 8.5 11.6-.1 20.6-2.9 27-8.5 6.4-5.6 10-13 10.7-22.2.2-3.3.3-7.5.3-12.6 0-5.2-.1-9.5-.4-12.8-.4-6-2.1-11.2-5.2-15.7zM52.4 61c-.3 5.2-2.5 7.8-6.5 7.8s-6.2-2.6-6.5-7.8c-.2-4.6-.2-8.7-.2-12.1 0-3.7.1-7.7.2-12 .3-5.1 2.5-7.7 6.5-7.8 4 .1 6.2 2.7 6.5 7.8.2 2.2.2 6.2.2 12 .1 5.7 0 9.7-.2 12.1zm103.3-20.9v-.4l14-9.4c.6-.5 1.2-1.1 1.7-2 .5-.8.7-1.8.7-2.8V10.3c0-.9-.3-1.6-1-2.3-.6-.6-1.4-1-2.3-1h-61.4c-.9 0-1.6.3-2.3 1-.6.6-1 1.4-1 2.3v16.9c0 .9.3 1.6 1 2.3.6.6 1.4 1 2.3 1H139l-16.7 9.1c-.6.4-1.2 1-1.7 1.9-.5.8-.7 1.8-.7 2.9v9.7c0 .9.3 1.6 1 2.3.6.6 1.4 1 2.3 1h15c5.3 0 7.9 1.8 7.9 5.3 0 1.8-.7 3.4-2 4.6-1.3 1.2-3.3 1.8-5.9 1.8-2.3 0-4.1-.2-5.3-.6-1.2-.4-2.2-1-3-1.8-.6-.6-1.2-1.1-1.8-1.4-.6-.3-1.3-.5-2.3-.5h-24.1c-.7 0-1.3.3-1.9.8-.5.5-.8 1.1-.8 1.9.2 3.6 1.6 7.3 4.2 11.2s6.9 7.1 12.7 9.8c5.8 2.7 13.2 4 22.1 4 7.5 0 14.3-1.1 20.2-3.4 6-2.3 10.6-5.5 14-9.7 3.4-4.2 5-9 5-14.4.1-13.2-7.1-21.5-21.5-24.9z"/><path class="st0" d="M71.4 15.5C68.3 11 64 7.4 58.4 4.8 52.8 2.2 46.3.9 38.9.9S25 2.2 19.4 4.8c-5.6 2.6-9.9 6.2-13 10.7-3 4.5-4.7 9.7-5.1 15.6C1 34.5.9 38.8.9 44c0 5.1.1 9.3.4 12.6.7 9.2 4.2 16.6 10.6 22.2 6.4 5.6 15.4 8.4 27 8.5 11.6-.1 20.6-2.9 27-8.5 6.4-5.6 10-13 10.7-22.2.3-3.3.4-7.5.4-12.6 0-5.2-.1-9.5-.4-12.8-.4-6-2.1-11.2-5.2-15.7zM45.4 56c-.3 5.2-2.5 7.8-6.5 7.8s-6.2-2.6-6.5-7.8c-.2-4.6-.2-8.7-.2-12.1 0-3.7.1-7.7.2-12 .3-5.1 2.5-7.7 6.5-7.8 4 .1 6.2 2.7 6.5 7.8.2 2.2.2 6.2.2 12 .1 5.7 0 9.7-.2 12.1zm103.3-20.9v-.4l14-9.4c.6-.5 1.2-1.1 1.7-2 .5-.8.7-1.8.7-2.8V5.3c0-.9-.3-1.6-1-2.3-.6-.6-1.4-1-2.3-1h-61.4c-.9 0-1.6.3-2.3 1-.6.6-1 1.4-1 2.3v16.9c0 .9.3 1.6 1 2.3.6.6 1.4 1 2.3 1H132l-16.7 9.1c-.6.4-1.2 1-1.7 1.9-.5.8-.7 1.8-.7 2.9v9.7c0 .9.3 1.6 1 2.3.6.6 1.4 1 2.3 1h15c5.3 0 7.9 1.8 7.9 5.3 0 1.8-.7 3.4-2 4.6-1.3 1.2-3.3 1.8-5.9 1.8-2.3 0-4.1-.2-5.3-.6-1.2-.4-2.2-1-3-1.8-.6-.6-1.2-1.1-1.8-1.4-.6-.3-1.3-.5-2.3-.5H94.7c-.7 0-1.3.3-1.9.8-.5.5-.8 1.1-.8 1.9.2 3.6 1.6 7.3 4.2 11.2s6.9 7.1 12.7 9.8c5.8 2.7 13.2 4 22.1 4 7.5 0 14.3-1.1 20.2-3.4 6-2.3 10.6-5.5 14-9.7 3.4-4.2 5-9 5-14.4.1-13.2-7.1-21.5-21.5-24.9z"/></svg>