<svg id="Слой_1" xmlns="http://www.w3.org/2000/svg" viewBox="0 0 176.8 93.2"><style>.st0{fill:#f9f9f9;stroke:#ececec;stroke-miterlimit:10}</style><path class="st0" d="M78.2 20.7c-3.1-4.5-7.4-8.1-13-10.7-5.6-2.6-12.1-3.9-19.5-3.9S31.8 7.4 26.2 10c-5.6 2.6-9.9 6.2-13 10.7-3.1 4.5-4.8 9.7-5.2 15.7-.2 3.3-.3 7.6-.3 12.8 0 5.1.1 9.3.4 12.6.6 9.2 4.2 16.6 10.6 22.2 6.4 5.6 15.4 8.4 27 8.5 11.6-.1 20.6-2.9 27-8.5 6.4-5.6 10-13 10.7-22.2.2-3.3.4-7.5.4-12.6 0-5.2-.1-9.5-.4-12.8-.4-6-2.2-11.2-5.2-15.7zm-26 40.5c-.3 5.2-2.5 7.8-6.5 7.8s-6.2-2.6-6.5-7.8c-.2-4.6-.2-8.7-.2-12.1 0-3.7.1-7.7.2-12 .3-5.1 2.5-7.7 6.5-7.8 4 .1 6.2 2.7 6.5 7.8.2 2.2.2 6.2.2 12 0 5.7-.1 9.8-.2 12.1zm122.7 6.4c-.6-.6-1.4-1-2.3-1h-25.3l.8-.6c8.7-6 15.2-11.5 19.5-16.6 4.3-5.1 6.4-10.7 6.4-16.9 0-8.4-3.2-15-9.7-19.7-6.3-4.8-15-7.2-26.1-7.2-6.9 0-13.1 1.2-18.5 3.7-5.5 2.5-9.8 6-13 10.5-3.2 4.5-4.8 9.7-4.9 15.7 0 .7.3 1.3.8 1.9.5.5 1.1.8 1.9.8h22.6c1.2 0 2.2-.2 3-.6.8-.4 1.4-1.1 1.8-2.2.6-1.4 1-2.5 1.3-3.1.3-.6.9-1.3 1.7-2 .9-.7 2.1-1 3.6-1 1.8 0 3 .4 3.5 1.3.5.8.8 2 .8 3.5 0 2.1-1.2 4.5-3.6 7.1-2.4 2.7-5.7 5.7-10 9s-10.9 8.2-19.9 14.7l-4.6 3.2-1.3 1c-2 1.4-3 3.6-3 6.5v12.5c0 .9.3 1.6 1 2.3.6.6 1.4 1 2.3 1h69.1c.9 0 1.6-.3 2.3-1 .6-.6 1-1.4 1-2.3V69.8c-.2-.8-.5-1.6-1.2-2.2z"/><path class="st0" d="M71.2 15.7c-3.1-4.5-7.4-8.1-13-10.7-5.6-2.6-12.1-3.9-19.5-3.9S24.8 2.4 19.2 5c-5.6 2.6-9.9 6.2-13 10.7-3 4.5-4.8 9.7-5.2 15.7C.8 34.7.7 39 .7 44.2c0 5.1.1 9.3.4 12.6C1.7 66 5.3 73.4 11.7 79c6.4 5.6 15.4 8.4 27 8.5 11.6-.1 20.6-2.9 27-8.5 6.4-5.6 10-13 10.7-22.2.2-3.3.4-7.5.4-12.6 0-5.2-.1-9.5-.4-12.8-.4-6-2.2-11.2-5.2-15.7zm-26 40.5c-.3 5.2-2.5 7.8-6.5 7.8s-6.2-2.6-6.5-7.8c-.2-4.6-.2-8.7-.2-12.1 0-3.7.1-7.7.2-12 .3-5.1 2.5-7.7 6.5-7.8 4 .1 6.2 2.7 6.5 7.8.2 2.2.2 6.2.2 12 0 5.7-.1 9.8-.2 12.1zm122.7 6.4c-.6-.6-1.4-1-2.3-1h-25.3l.8-.6c8.7-6 15.2-11.5 19.5-16.6 4.3-5.1 6.4-10.7 6.4-16.9 0-8.4-3.2-15-9.7-19.7C151 3 142.3.6 131.2.6c-6.9 0-13.1 1.2-18.5 3.7-5.5 2.5-9.8 6-13 10.5-3.2 4.5-4.8 9.7-4.9 15.7 0 .7.3 1.3.8 1.9.5.5 1.1.8 1.9.8h22.6c1.2 0 2.2-.2 3-.6.8-.4 1.4-1.1 1.8-2.2.6-1.4 1-2.5 1.3-3.1.3-.6.9-1.3 1.7-2 .9-.7 2.1-1 3.6-1 1.8 0 3 .4 3.5 1.3.5.8.8 2 .8 3.5 0 2.1-1.2 4.5-3.6 7.1-2.4 2.7-5.7 5.7-10 9s-10.9 8.2-19.9 14.7l-4.6 3.2-1.3 1c-2 1.4-3 3.6-3 6.5v12.5c0 .9.3 1.6 1 2.3.6.6 1.4 1 2.3 1h69.1c.9 0 1.6-.3 2.3-1 .6-.6 1-1.4 1-2.3V64.8c-.2-.8-.5-1.6-1.2-2.2z"/></svg>