<svg id="Слой_1" xmlns="http://www.w3.org/2000/svg" viewBox="0 0 68.2 145.9"><path d="M56.9 105.2c3.2.6 5.9 2.1 8.1 4.5 2.2 2.5 3.3 5.4 3.3 8.8v13.6c0 3.8-1.3 7-4 9.7-2.7 2.7-5.9 4-9.7 4H13.7c-3.8 0-7-1.3-9.7-4s-4-5.9-4-9.7v-13.6c0-3.4 1.1-6.4 3.3-8.8 2.2-2.5 4.9-4 8.1-4.5V86.5c-3.2-.6-5.9-2.1-8.1-4.5C1.1 79.4 0 76.5 0 73.1V59.4c0-3.8 1.3-7 4-9.7 2.7-2.7 5.9-4 9.7-4h.3c-4.7-5.1-7.1-11.2-7.1-18.2 0-7.6 2.7-14 8-19.3s11.8-8 19.3-8 14 2.7 19.3 8 8 11.8 8 19.3c0 4.2-.9 8.1-2.7 11.7-1.8 3.6-4.2 6.7-7.3 9.4 3.6 2.7 5.4 6.3 5.4 10.8v45.8zm2.3 27v-13.6c0-1.3-.4-2.4-1.3-3.3-.9-.9-1.9-1.3-3.3-1.3h-6.8V59.4c0-1.3-.4-2.4-1.3-3.3-.9-.9-1.9-1.3-3.3-1.3H13.7c-1.3 0-2.4.4-3.3 1.3-.9.9-1.3 1.9-1.3 3.3v13.7c0 1.3.4 2.4 1.3 3.3.9.9 1.9 1.3 3.3 1.3h6.8V114h-6.8c-1.3 0-2.4.4-3.3 1.3-.9.9-1.3 1.9-1.3 3.3v13.6c0 1.3.4 2.4 1.3 3.3.9.9 1.9 1.3 3.3 1.3h40.9c1.3 0 2.4-.4 3.3-1.3.8-.8 1.3-1.9 1.3-3.3zM34.1 9.4c-5.1 0-9.4 1.8-12.9 5.3s-5.3 7.8-5.3 12.9 1.8 9.4 5.3 12.9 7.8 5.3 12.9 5.3S43.5 44 47 40.5s5.3-7.8 5.3-12.9-1.8-9.4-5.3-12.9c-3.4-3.6-7.8-5.3-12.9-5.3z" fill="#fff"/></svg>