<svg id="Слой_1" xmlns="http://www.w3.org/2000/svg" viewBox="0 0 242.4 43.4"><style>.st0{fill:#fff}</style><path class="st0" d="M75.5 9.6c0 .7-.1 1.3-.2 2l-.1.8c-.3 1.8-.9 3.4-1.7 4.6-.8 1.3-1.7 2.3-3 3.1-1.2.8-2.6 1.4-4.2 1.7-1.6.4-3.4.5-5.5.5H58c-.9 0-1.7-.1-2.4-.1l-2.5 13.9c-.1.2-.2.5-.3.6-.2.2-.4.3-.6.3h-.5c-.2 0-.4-.1-.5-.2-.1-.1-.2-.3-.2-.5v-.1l6-33c0-.2.2-.4.3-.6.2-.2.4-.3.6-.3.8-.1 1.8-.1 3-.2 1.2 0 2.3-.1 3.3-.1 3.6 0 6.3.6 8.3 1.8 2 1.4 3 3.2 3 5.8zm-2.1 0c0-2.2-.8-3.7-2.4-4.5-1.6-.8-4-1.2-7.1-1.2h-2.8c-.9 0-1.6.1-2.3.1L56 20.3c.7.1 1.5.1 2.4.1H61c3.6 0 6.4-.6 8.3-1.9 2-1.3 3.2-3.4 3.8-6.3l.1-.8c.2-.5.2-1.1.2-1.8zm15.2 2.8v.4c-.1.3-.2.5-.4.6-.2.1-.5.1-.8.1-.9 0-1.9.1-2.9.4-1 .3-2.3.9-3.8 1.7L77 36.1c-.1.2-.2.5-.4.6-.2.2-.4.3-.6.3h-.3c-.5 0-.7-.2-.7-.7v-.1l4-23.3c.1-.2.2-.5.4-.7.2-.2.4-.3.7-.3h.4c.5 0 .7.2.7.7v.2l-.2 1c1.3-.8 2.4-1.3 3.4-1.7 1-.3 2.1-.5 3.2-.5.3 0 .6 0 .8.1.2.1.3.2.3.5v.2zm19.4 7.2c0 1-.1 2.1-.3 3.2l-.2 1.3c-.1.2-.2.5-.4.6-.2.2-.5.3-.7.3H90.7l-.1 1c-.1.6-.1 1.1-.2 1.6s-.1 1-.1 1.4c0 1.3.2 2.3.5 3.1.3.8.8 1.5 1.4 2 .6.5 1.3.8 2.2 1 .9.2 1.8.3 2.9.3 1 0 2.2-.1 3.4-.2 1.3-.1 2.5-.3 3.7-.6h.4c.4 0 .6.1.6.4v.3l-.1.3c-.1.4-.2.6-.4.6-.1.1-.4.2-.7.2-1.2.3-2.4.5-3.7.6-1.3.1-2.4.2-3.5.2-1.3 0-2.4-.2-3.5-.5s-2-.8-2.8-1.4c-.8-.7-1.4-1.5-1.8-2.5-.4-1-.6-2.3-.6-3.8v-1.5c0-.5.1-1.1.2-1.6l.5-3.1c.6-3.7 1.9-6.4 3.8-8.3 1.9-1.9 4.5-2.8 7.6-2.8 1.3 0 2.5.2 3.5.6 1 .4 1.8.9 2.4 1.6.6.7 1.1 1.5 1.4 2.5s.3 2.1.3 3.2zm-2-.1c0-1.9-.5-3.4-1.4-4.5-.9-1-2.4-1.5-4.6-1.5-1.3 0-2.4.2-3.4.7-1 .4-1.8 1.1-2.6 1.9-.7.8-1.3 1.8-1.8 2.9-.5 1.1-.9 2.4-1.2 3.9v.2h14.6v-.3c.1-.6.2-1.2.2-1.7.1-.6.2-1.1.2-1.6zm22.3-6.6v.4c0 .3-.1.5-.2.5-.1.1-.3.1-.5.1h-.4c-.3 0-.7-.1-1.1-.1-.5 0-1-.1-1.6-.1-.6 0-1.2-.1-1.8-.1h-1.8c-1.9 0-3.4.3-4.5.9-1.1.6-1.6 1.8-1.6 3.5 0 .8.3 1.6 1 2.2.7.7 1.6 1.4 2.8 2.1l2.8 1.7c.9.6 1.7 1.1 2.3 1.6.6.5 1.1.9 1.5 1.4.4.5.6.9.8 1.4.2.5.2 1 .2 1.6 0 1.4-.3 2.5-.8 3.5-.5.9-1.2 1.7-2.1 2.2s-1.8 1-3 1.2-2.3.4-3.5.4h-1.7c-.6 0-1.2-.1-1.8-.1-.6-.1-1.2-.1-1.7-.2-.6-.1-1-.2-1.4-.3-.2-.1-.4-.1-.6-.2-.2-.1-.3-.2-.3-.5v-.1l.1-.5c.1-.2.1-.4.2-.5.1-.1.2-.1.4-.1h.4c1.3.2 2.5.3 3.8.4 1.2.1 2.3.2 3.1.2 2.1 0 3.7-.4 4.9-1.2 1.2-.8 1.9-2.2 1.9-4.2 0-.8-.3-1.5-.9-2.1-.6-.6-1.6-1.4-3.2-2.3l-2.7-1.6c-1.3-.8-2.4-1.7-3.3-2.6-.9-.9-1.3-2.1-1.3-3.3 0-1.2.2-2.2.7-3 .5-.8 1-1.5 1.8-2 .7-.5 1.6-.8 2.6-1 1-.2 2-.3 3.1-.3 1.7 0 3 0 4 .1s1.9.2 2.7.3c.2 0 .4.1.6.2 0 0 .1.2.1.5zm22.3.2v.4l-4 22.6c-.1.2-.2.5-.4.7-.2.2-.4.3-.7.3h-.4c-.5 0-.7-.2-.7-.7v-.2l.3-1.5c-1.2.7-2.5 1.3-3.9 1.9-1.4.6-2.7.9-4.1.9-1 0-1.9-.1-2.7-.4-.8-.3-1.5-.7-2.1-1.2s-1.1-1.3-1.4-2.1c-.3-.8-.5-1.8-.5-3 0-.6.1-1.4.2-2.2l.9-5.3c.4-2 .9-3.7 1.4-5.2.6-1.4 1.3-2.6 2.2-3.5.9-.9 2-1.6 3.2-2 1.2-.4 2.7-.6 4.3-.6 1.3 0 2.7.1 4.1.3 1.4.2 2.6.4 3.6.6.5-.2.7 0 .7.2zm-2.2 1c-.8-.2-1.8-.3-2.9-.4-1.2-.1-2.3-.2-3.4-.2-2.6 0-4.6.8-5.9 2.5-1.4 1.6-2.3 4-2.8 7l-.9 5.3c-.2.9-.2 1.6-.2 2.2 0 1 .1 1.9.4 2.5.3.6.7 1.1 1.1 1.5.5.4 1 .6 1.7.7.6.1 1.3.2 2 .2 1.2 0 2.4-.3 3.6-.8 1.2-.5 2.6-1.2 4.3-2.1l3-18.4zM161 3.2l-5.8 32.9c-.1.2-.2.5-.3.6-.2.2-.4.3-.6.3h-.5c-.2 0-.4-.1-.5-.2-.1-.1-.2-.3-.2-.5v-.2l5.8-32.9c.1-.2.2-.5.3-.6.2-.2.4-.3.6-.3h.5c.2 0 .4.1.5.2.1.1.2.3.2.5v.2zm21.2 16.4c0 1-.1 2.1-.3 3.2l-.2 1.3c-.1.2-.2.5-.4.6-.2.2-.5.3-.7.3h-15.7l-.1 1c-.1.6-.1 1.1-.2 1.6s-.1 1-.1 1.4c0 1.3.2 2.3.5 3.1.3.8.8 1.5 1.4 2 .6.5 1.3.8 2.2 1 .9.2 1.8.3 2.9.3 1 0 2.2-.1 3.4-.2 1.3-.1 2.5-.3 3.7-.6h.4c.4 0 .6.1.6.4v.3l-.1.3c-.1.4-.2.6-.4.6-.1.1-.4.2-.7.2-1.2.3-2.4.5-3.7.6-1.3.1-2.4.2-3.5.2-1.3 0-2.4-.2-3.5-.5s-2-.8-2.8-1.4c-.8-.7-1.4-1.5-1.8-2.5-.4-1-.6-2.3-.6-3.8v-1.5c0-.5.1-1.1.2-1.6l.5-3.1c.6-3.7 1.9-6.4 3.8-8.3 1.9-1.9 4.5-2.8 7.6-2.8 1.3 0 2.5.2 3.5.6 1 .4 1.8.9 2.4 1.6.6.7 1.1 1.5 1.4 2.5s.3 2.1.3 3.2zm-2.1-.1c0-1.9-.5-3.4-1.4-4.5-.9-1-2.4-1.5-4.6-1.5-1.3 0-2.4.2-3.4.7-1 .4-1.8 1.1-2.6 1.9-.7.8-1.3 1.8-1.8 2.9-.5 1.1-.9 2.4-1.2 3.9v.2h14.6v-.3c.1-.6.2-1.2.2-1.7.2-.6.2-1.1.2-1.6zm29.3-9.9c0 .7-.1 1.3-.2 2l-.1.8c-.3 1.8-.9 3.4-1.7 4.6-.8 1.3-1.7 2.3-3 3.1-1.2.8-2.6 1.4-4.2 1.7-1.6.4-3.4.5-5.5.5h-2.8c-.9 0-1.7-.1-2.4-.1L187 36.1c-.1.2-.2.5-.3.6-.2.2-.4.3-.6.3h-.5c-.2 0-.4-.1-.5-.2-.1-.1-.2-.3-.2-.5v-.1l5.8-32.9.3-.6c.2-.2.4-.3.6-.3.8-.1 1.8-.1 3-.2 1.2 0 2.3-.1 3.3-.1 3.6 0 6.3.6 8.3 1.8 2.2 1.3 3.2 3.1 3.2 5.7zm-2 0c0-2.2-.8-3.7-2.4-4.5-1.6-.8-4-1.2-7.1-1.2h-2.8c-.9 0-1.6.1-2.3.1L190 20.3c.7.1 1.5.1 2.4.1h2.6c3.6 0 6.4-.6 8.3-1.9 2-1.3 3.2-3.4 3.8-6.3l.1-.8c.1-.5.2-1.1.2-1.8zm15.1 2.8v.4c-.1.3-.2.5-.4.6-.2.1-.5.1-.8.1-.9 0-1.9.1-2.9.4-1 .3-2.3.9-3.8 1.7L211 36c-.1.2-.2.5-.4.6-.2.2-.4.3-.7.3h-.3c-.5 0-.7-.2-.7-.7v-.1l4.1-23.2c.1-.2.2-.5.4-.7.2-.2.4-.3.7-.3h.4c.5 0 .7.2.7.7v.2l-.2 1c1.3-.8 2.4-1.3 3.4-1.7 1-.3 2.1-.5 3.2-.5.3 0 .6 0 .8.1.2.1.3.2.3.5v.2zm19.9 7.4c0 .9-.1 2-.3 3.1l-.6 3.3c-.6 3.6-1.9 6.3-3.7 8.3-1.9 1.9-4.5 2.9-7.9 2.9-2.6 0-4.6-.7-6-2.2-1.3-1.4-2-3.4-2-6 0-.9.1-1.9.3-3l.6-3.3c.6-3.7 1.9-6.4 3.8-8.3 1.9-1.9 4.5-2.8 7.8-2.8 2.7 0 4.7.7 6 2.1 1.4 1.4 2 3.3 2 5.9zm-2-.2c0-2-.5-3.5-1.4-4.5-.9-1.1-2.5-1.6-4.8-1.6-2.6 0-4.7.9-6.2 2.6-1.5 1.7-2.5 4-3 6.8l-.6 3.3c-.1.6-.2 1.2-.2 1.7-.1.5-.1 1-.1 1.5 0 2 .5 3.5 1.4 4.5 1 1.1 2.6 1.6 4.8 1.6 1.3 0 2.5-.2 3.6-.7 1-.5 1.9-1.1 2.7-1.9.7-.8 1.4-1.8 1.8-2.9.5-1.2.8-2.4 1.1-3.8l.6-3.3c.1-.6.2-1.2.2-1.7 0-.6.1-1.1.1-1.6zM.1 35.7l7.5 7.6 1.1.1 1.2-.7-7.5-7.5z"/><linearGradient id="SVGID_1_" gradientUnits="userSpaceOnUse" x1=".058" y1="39.285" x2="9.923" y2="39.285"><stop offset="0" stop-color="#fff" stop-opacity="0"/><stop offset=".145" stop-color="#f8f8f8" stop-opacity=".145"/><stop offset=".352" stop-color="#e5e5e5" stop-opacity=".352"/><stop offset=".597" stop-color="#c7c7c7" stop-opacity=".597"/><stop offset=".868" stop-color="#9c9c9c" stop-opacity=".868"/><stop offset="1" stop-color="#858585"/></linearGradient><path fill="url(#SVGID_1_)" d="M.1 35.7l7.5 7.6 1.1.1 1.2-.7-7.5-7.5z"/><path class="st0" d="M20.4 0H6.8c-.5 0-.6.2-.7.7l-.2 1.5h14c5.5 0 8.4 3.3 7.4 8.8-1 5.5-4.9 8.7-10.5 8.7h-14L0 35.2c-.1.5 0 .7.5.7h1.1c.5 0 .7-.2.8-.7l2.3-13.3h11.9c6.9 0 11.7-3.8 13-10.6C30.9 4.4 27.3 0 20.4 0z"/><linearGradient id="SVGID_2_" gradientUnits="userSpaceOnUse" x1="23.644" y1=".717" x2="23.154" y2="17.884"><stop offset="0" stop-color="#fff" stop-opacity="0"/><stop offset=".074" stop-color="#e2e2e2" stop-opacity=".158"/><stop offset=".194" stop-color="#bababa" stop-opacity=".416"/><stop offset=".303" stop-color="#9d9d9d" stop-opacity=".651"/><stop offset=".398" stop-color="#8b8b8b" stop-opacity=".853"/><stop offset=".466" stop-color="#858585"/><stop offset=".592" stop-color="#888" stop-opacity=".764"/><stop offset=".686" stop-color="#919191" stop-opacity=".589"/><stop offset=".769" stop-color="#a1a1a1" stop-opacity=".432"/><stop offset=".847" stop-color="#b8b8b8" stop-opacity=".287"/><stop offset=".92" stop-color="#d5d5d5" stop-opacity=".15"/><stop offset=".989" stop-color="#f9f9f9" stop-opacity=".02"/><stop offset="1" stop-color="#fff" stop-opacity="0"/></linearGradient><path d="M16.6 21.9c6.9 0 11.7-3.8 13-10.6C30.9 4.4 27.3 0 20.4 0l-.6 2.2c5.5 0 8.4 3.3 7.4 8.8-1 5.5-4.9 8.7-10.5 8.7l-.1 2.2z" fill="url(#SVGID_2_)"/><path class="st0" d="M28 7.6H14.4c-.5 0-.7.2-.7.7l-.3 1.5h14c5.5 0 8.4 3.3 7.4 8.8-1 5.5-4.9 8.7-10.5 8.7h-14L7.6 42.7c-.1.5 0 .7.5.7h1.1c.5 0 .7-.2.8-.7l2.3-13.3h11.9c6.9 0 11.7-3.8 13-10.6C38.4 12 34.8 7.6 28 7.6z"/><linearGradient id="SVGID_3_" gradientUnits="userSpaceOnUse" x1="23.965" y1="-1.647" x2="6.584" y2="2.79"><stop offset="0" stop-color="#fff" stop-opacity="0"/><stop offset=".145" stop-color="#f8f8f8" stop-opacity=".145"/><stop offset=".352" stop-color="#e5e5e5" stop-opacity=".352"/><stop offset=".597" stop-color="#c7c7c7" stop-opacity=".597"/><stop offset=".868" stop-color="#9c9c9c" stop-opacity=".868"/><stop offset="1" stop-color="#858585"/></linearGradient><path d="M20.4 0H6.8c-.5 0-.6.2-.7.7l-.2 1.5h14" fill="url(#SVGID_3_)"/><path class="st0" d="M9 2.2L7.4.6C6.9.1 7.2 0 7.2 0h-.4c-.5 0-.6.2-.7.7l-.2 1.5 7.6 7.6 1-2.2L9 2.2z"/></svg>