<svg id="reddit" xmlns="http://www.w3.org/2000/svg" viewBox="0 0 19.1 18"><path class="st0" d="M16.9 6.9c.7 0 1.3.3 1.7.8.4.5.6 1.1.4 1.7s-.5 1.1-1.1 1.4c.1.3.1.6.1 1 0 1.1-.4 2.1-1.1 3.1-.8.9-1.8 1.7-3.1 2.2s-2.7.9-4.2.9-3-.3-4.2-.8S3 15.9 2.3 15c-.8-1-1.2-2-1.2-3.1 0-.3 0-.7.1-1-.6-.3-1-.8-1.2-1.5s0-1.2.4-1.8 1-.8 1.7-.8c.6 0 1.1.2 1.5.6C5.2 6.5 7 5.9 9.1 5.8L10.3.3c0-.1.1-.2.2-.2s.2-.1.3-.1l3.9.9c.1-.3.3-.5.6-.6.3-.2.5-.3.8-.3.5 0 .8.2 1.1.5.3.3.5.7.5 1.1s-.2.8-.5 1.1c-.2.3-.6.5-1.1.5-.4 0-.8-.2-1.1-.5s-.4-.7-.4-1.1L11 .8l-1.1 5c1.1 0 2.1.2 3 .5s1.8.7 2.5 1.2c.4-.4.9-.6 1.5-.6zM4.4 11.1c0 .4.2.8.5 1.1.3.3.7.5 1.1.5.4 0 .8-.2 1.1-.5.3-.3.5-.7.5-1.1 0-.4-.2-.8-.5-1.1-.3-.3-.6-.5-1.1-.5-.4 0-.8.2-1.1.5s-.5.7-.5 1.1zm8.7 3.8c.1-.1.1-.1.1-.2s0-.2-.1-.3-.2-.1-.3-.1-.2 0-.3.1c-.4.4-1 .6-1.8.8-.8.1-1.6.1-2.4 0-.8-.1-1.4-.4-1.8-.7-.1-.1-.1-.1-.2-.1s-.2 0-.3.1-.1.2-.1.3c0 .1 0 .2.1.2.5.5 1.2.8 2.1 1 .9.2 1.9.2 2.8 0 1-.3 1.7-.7 2.2-1.1zm-.1-2.2c.4 0 .8-.2 1.1-.5.3-.3.5-.7.5-1.1 0-.4-.2-.8-.5-1.1s-.6-.5-1.1-.5-.8.2-1.1.5-.5.7-.5 1.1c0 .4.2.8.5 1.1.3.3.7.5 1.1.5z"/></svg>