<svg id="twitter" xmlns="http://www.w3.org/2000/svg" viewBox="0 0 33.2 27"><path d="M29.9 7.6c0 3.1-.8 6.1-2.3 9-1.6 3.1-3.8 5.5-6.6 7.4-3.1 2-6.6 3-10.6 3-3.8 0-7.2-1-10.4-3h1.6c3.2 0 6-1 8.5-2.9-1.5 0-2.8-.4-4-1.3-1.1-.9-1.9-2-2.4-3.3.4 0 .8.1 1.2.1.6 0 1.2-.1 1.8-.2-1.6-.3-2.9-1.1-3.9-2.4-1-1.3-1.6-2.7-1.6-4.3v-.2c1 .6 2 .9 3.1.9-.8-.7-1.5-1.5-2.1-2.5-.6-1-.8-2.1-.8-3.3s.3-2.3 1-3.4C4 3.4 6.1 5 8.5 6.3c2.4 1.3 5.1 1.9 7.8 2.1-.1-.5-.1-1-.1-1.6 0-1.2.3-2.3.9-3.4.6-1.1 1.4-1.9 2.5-2.5 1-.6 2.2-.9 3.4-.9 1 0 1.9.2 2.8.6.8.4 1.5.9 2.2 1.5 1.6-.3 3-.8 4.3-1.6-.5 1.6-1.5 2.9-3 3.8 1.3-.2 2.6-.5 3.9-1.1-1 1.4-2.1 2.6-3.4 3.6 0 .1.1.4.1.8z"/></svg>