<svg id="twitter" xmlns="http://www.w3.org/2000/svg" viewBox="0 0 22.2 18"><path d="M19.9 5.1c0 2.1-.5 4.1-1.5 6-1 2-2.5 3.7-4.4 4.9-2 1.4-4.4 2-7.1 2-2.5 0-4.9-.7-7-2H1c2.1 0 4-.6 5.7-1.9-1 0-1.9-.3-2.7-.9S2.7 11.9 2.4 11h.8c.4 0 .8 0 1.2-.1-1-.2-1.9-.8-2.6-1.6-.7-.8-1-1.8-1-2.9v-.1c.6.4 1.3.6 2 .6-.6-.4-1.1-1-1.5-1.6S.9 3.9.9 3.1s.2-1.6.6-2.3C2.6 2.2 4 3.3 5.6 4.2S9 5.5 10.8 5.6c-.1-.3-.1-.7-.1-1 0-.8.2-1.6.6-2.3.4-.7 1-1.3 1.6-1.7s1.6-.6 2.4-.6c.7 0 1.3.1 1.8.4s1.1.6 1.5 1c1-.2 2-.6 2.9-1.1-.3 1.1-1 1.9-2 2.5.9-.1 1.7-.4 2.6-.7-.6.9-1.4 1.7-2.3 2.4.1.1.1.3.1.6z"/></svg>