<svg id="Слой_1" xmlns="http://www.w3.org/2000/svg" viewBox="0 0 28.2 51.5"><path d="M14.7 51.5c.2 0 .3-.1.3-.1s.1-.1.1-.3v-4.9l.8-.1c3.9-.3 6.9-1.3 9.1-3.1 2.1-1.8 3.1-4.1 3.1-7.2 0-1.9-.4-3.5-1.2-4.7-.8-1.2-2.1-2.3-3.8-3.1-1.7-1-4.2-2-7.3-3-3.2-1-5.6-1.9-7.3-2.7-1.7-.8-3.1-1.7-4-2.9-.9-1.2-1.4-2.6-1.4-4.4 0-2.7 1-4.7 3.1-6.1C8.1 7.6 10.7 7 13.9 7c3 0 5.6.7 7.6 2.1 2.1 1.4 3.3 3.3 3.6 5.5 0 .2.1.3.1.3.1.1.2.1.3.1h1.2c.1 0 .2 0 .3-.1.1-.1.1-.1.1-.2-.1-1.3-.5-2.7-1.3-4-.8-1.3-2.1-2.5-3.7-3.5-1.7-1-3.7-1.6-6-1.8l-.8-.1v-5c0-.2-.1-.3-.1-.3s-.1-.1-.3-.1h-1.1c-.2 0-.3.1-.3.1s-.1.1-.1.3v4.9l-.8.1C8.8 5.6 6 6.7 4.1 8.5c-1.9 1.8-2.9 3.9-2.9 6.6 0 2 .4 3.6 1.1 4.8.7 1.2 1.9 2.3 3.5 3.1 1.7.9 4 1.9 7 2.8 3.4 1.1 6.1 2 7.8 2.8 1.8.8 3.2 1.7 4.2 2.8 1 1.1 1.6 2.6 1.6 4.3 0 2.7-1 4.9-3.1 6.4-2 1.5-5 2.2-8.9 2.2-3.7 0-6.7-.8-8.7-2.3-2.1-1.6-3.3-3.4-3.6-5.6-.1-.4-.2-.4-.4-.4H.3c-.1 0-.2 0-.3.1v.3c.1 1.5.6 3 1.5 4.4 1 1.4 2.4 2.6 4.2 3.5 1.9 1 4.1 1.5 6.6 1.7l.8.1v5c0 .2.1.3.1.3s.1.1.3.1h1.2z" fill="#4664bc"/></svg>