<svg id="Слой_1" xmlns="http://www.w3.org/2000/svg" viewBox="0 0 1962 211.4"><path d="M.7 121.3l.2-.5c1.9-1.7 34-29.7 77.2-57.4C152.2 16 201.3 6 229.5 6c51.1 0 81.3 42.4 110.5 83.4 27.6 38.7 53.7 75.3 95.5 75.6h.5c20.6 0 36-9.1 47.2-27.8 9.9-16.6 15.4-38.4 20.6-59.5C512.7 41.8 521.2 8 550.5 8c35 0 42.6 53.9 49.3 101.4 5.6 40 10.5 74.6 29.7 74.6 18.3 0 24.4-23.3 31.4-50.2 9.3-36 19.9-76.8 62.6-76.8 19.2 0 34.5 10 46.9 30.5 10.8 18 17.9 41.8 24.2 62.8 9.4 31.5 17.6 58.7 34.9 58.7 15.7 0 23.4-25.5 33.2-57.9 7.8-25.9 16.6-55.2 31.7-78.4C911.6 46 933.9 33 962.5 33c51.1 0 69.2 38.8 88.4 79.9 19.5 41.9 39.7 85.1 97.6 85.1 73.5 0 86.8-55.1 97.6-99.3 7.3-30.3 13.7-56.5 37.5-56.7 27.6-.2 34.8 24.3 42.4 50.3 8 27.4 16.3 55.7 49.6 55.7 35.4 0 45.5-37.1 55.3-72.9 9.7-35.5 18.9-69.1 50.7-69.1 30.1 0 44.3 31.9 60.8 68.9 20.9 46.9 44.6 100.1 108.2 100.1 108.3 0 297.4-82 310.5-87.7v1.2l1-.8v-1.9l-.7.3c-2 .9-199.3 88-310.8 88-63 0-86.5-52.9-107.3-99.5-16.6-37.3-31-69.5-61.7-69.5-32.5 0-42.2 35.5-51.6 69.9-9.7 35.5-19.7 72.1-54.4 72.1-32.6 0-40.8-28-48.7-55-7.6-26.2-14.9-51-42.9-51h-.5c-24.6.2-31 26.8-38.4 57.5-5.3 22-11.3 46.9-25.1 66-15.7 21.9-39.1 32.5-71.5 32.5-57.2 0-77.3-43-96.7-84.5-9.3-19.8-18.8-40.3-32.3-55.4-15.1-16.9-33.8-25.1-57-25.1-28.9 0-51.5 13.2-69 40.2-15.1 23.3-24 52.7-31.8 78.6-9.6 31.9-17.2 57.2-32.2 57.2-16.6 0-24.6-26.9-33.9-58-6.3-21-13.5-44.9-24.3-63-12.5-20.9-28.1-31-47.7-31-43.5 0-54.2 41.2-63.6 77.6-7 26.4-13 49.3-30.5 49.3-18.4 0-23.4-35.8-28.8-73.7C593.9 61.3 586.3 7 550.5 7c-30.1 0-38.6 34.2-47.6 70.4C492.2 120 481.3 164 436 164h-.5c-41.2-.3-67.2-36.7-94.7-75.2C311.4 47.6 281 5 229.5 5c-51.3 0-111 31.3-152 57.6C33.2 91 .4 119.8.1 120.1l-.1.1v.1l.7 1z" opacity=".1" fill="#6541a3"/></svg>