<?xml version="1.0" standalone="no"?>
<!DOCTYPE svg PUBLIC "-//W3C//DTD SVG 20010904//EN"
 "http://www.w3.org/TR/2001/REC-SVG-20010904/DTD/svg10.dtd">
<svg version="1.0" xmlns="http://www.w3.org/2000/svg"
 width="700.000000pt" height="700.000000pt" viewBox="0 0 700.000000 700.000000"
 preserveAspectRatio="xMidYMid meet">
<metadata>
Created by potrace 1.11, written by Peter Selinger 2001-2013
</metadata>
<g transform="translate(0.000000,700.000000) scale(0.100000,-0.100000)"
fill="#000000" stroke="none">
<path d="M1023 6980 c-27 -25 -38 -62 -58 -214 l-16 -119 603 -603 c331 -331
604 -607 606 -613 3 -8 337 -11 1128 -11 l1125 0 -4 -69 c-3 -38 -7 -73 -9
-78 -4 -8 -9 -47 -12 -90 0 -11 -4 -19 -7 -17 -12 7 -16 -55 -5 -67 8 -9 8
-10 -1 -5 -7 4 -14 2 -14 -3 -5 -39 -7 -52 -9 -56 -1 -3 -3 -8 -5 -12 -1 -5
-5 -16 -10 -26 -4 -10 -5 -21 -1 -24 3 -4 -2 -15 -11 -26 -13 -15 -14 -18 -3
-12 9 5 7 -1 -5 -15 -11 -13 -14 -20 -6 -15 9 5 8 0 -3 -17 -9 -14 -13 -28 -9
-31 3 -4 2 -7 -4 -7 -6 0 -14 -7 -17 -16 -4 -9 -2 -13 5 -8 6 3 4 -5 -5 -18
-9 -14 -13 -28 -9 -31 3 -4 1 -7 -6 -7 -7 0 -10 -4 -7 -9 3 -5 -1 -11 -9 -15
-9 -3 -12 -12 -8 -22 4 -12 3 -15 -5 -10 -8 5 -10 2 -6 -8 3 -9 1 -16 -5 -16
-6 0 -11 -9 -11 -20 0 -11 -5 -20 -11 -20 -5 0 -7 -4 -4 -10 3 -5 2 -10 -3
-10 -6 0 -13 -11 -16 -25 -4 -14 -11 -25 -17 -25 -6 0 -7 -5 -4 -10 3 -6 -1
-13 -9 -16 -9 -3 -13 -10 -10 -15 3 -5 -6 -20 -20 -34 -14 -14 -23 -25 -21
-25 5 0 -20 -32 -47 -62 -10 -10 -18 -22 -18 -27 0 -19 -197 -204 -281 -263
-207 -146 -493 -256 -739 -284 -25 -3 -56 -8 -70 -11 -14 -3 -577 -7 -1253 -8
-675 -1 -1229 -4 -1232 -7 -5 -4 -60 -297 -90 -473 -1 -11 -14 -83 -28 -160
-15 -77 -28 -151 -31 -165 -4 -27 -16 -93 -22 -125 -2 -11 -13 -69 -24 -130
-10 -60 -31 -173 -44 -250 -21 -119 -82 -449 -100 -550 -8 -40 -45 -247 -56
-310 -5 -27 -11 -63 -14 -80 -3 -16 -15 -79 -26 -139 -27 -150 -26 -216 5
-216 6 0 246 -237 532 -527 287 -291 555 -562 596 -604 87 -88 90 -89 256 -89
146 0 173 12 195 92 9 29 18 71 21 93 6 38 9 61 20 115 3 14 8 41 11 60 2 19
7 46 10 60 12 65 14 77 20 115 3 22 10 63 15 90 5 28 23 129 40 225 16 96 43
252 59 345 17 94 32 184 35 200 3 17 8 46 11 65 3 19 8 44 9 55 2 11 16 88 30
170 14 83 28 165 31 184 3 18 8 43 10 55 2 11 13 75 25 141 11 66 23 136 27
155 l8 35 944 2 c876 1 1181 5 1270 17 19 3 57 8 84 11 121 14 335 67 466 115
453 167 801 474 1024 905 103 199 202 497 230 695 2 19 10 71 16 115 16 106
16 379 1 490 -17 121 -45 233 -83 330 -30 80 -110 234 -131 258 -7 7 -23 28
-37 48 -131 189 -359 347 -640 442 -82 28 -92 31 -227 55 -90 16 -93 17 -94
44 -1 16 -2 31 -3 36 -1 4 -6 32 -10 62 -12 81 -53 232 -87 317 -152 384 -488
650 -949 752 -212 47 -235 48 -1510 50 -1200 2 -1206 2 -1227 -19z m2362 -344
c152 -18 180 -22 248 -40 164 -44 303 -106 375 -166 6 -6 12 -8 12 -4 0 4 14
-7 30 -24 17 -18 30 -30 30 -27 0 2 25 -19 55 -48 30 -28 55 -57 55 -63 0 -6
10 -20 23 -32 29 -27 49 -52 42 -52 -3 0 3 -10 15 -22 11 -12 20 -30 20 -40 0
-10 9 -27 20 -38 11 -11 20 -22 19 -25 -2 -16 14 -65 21 -65 5 0 7 -6 4 -14
-3 -8 -1 -17 5 -21 6 -3 11 -19 11 -36 0 -16 4 -29 8 -29 5 0 9 -6 9 -12 0 -7
4 -33 7 -58 l8 -45 -1032 0 -1031 0 -240 235 c-132 129 -330 323 -440 430
-110 108 -198 198 -195 200 7 8 1857 4 1921 -4z m1570 -1299 c451 -156 690
-510 687 -1017 -2 -272 -71 -573 -189 -819 -88 -184 -171 -302 -312 -442 -244
-243 -527 -378 -931 -443 -91 -15 -338 -19 -1402 -19 l-1148 0 -5 -31 c-3 -17
-16 -94 -30 -171 -13 -77 -38 -221 -55 -320 -17 -99 -33 -191 -36 -205 -2 -14
-6 -38 -9 -55 -3 -16 -12 -66 -20 -110 -8 -44 -16 -91 -19 -105 -12 -76 -19
-117 -22 -135 -4 -19 -41 -223 -50 -275 -3 -22 -9 -54 -29 -165 -3 -16 -10
-57 -15 -90 -5 -33 -12 -73 -15 -90 -15 -82 -35 -193 -39 -220 -3 -16 -7 -40
-10 -52 -9 -39 -20 -118 -18 -125 1 -5 -2 -8 -7 -8 -5 0 -207 199 -450 442
-442 441 -442 441 -437 477 3 20 7 45 10 56 2 11 7 43 10 70 4 28 9 57 11 65
2 8 7 29 10 45 10 58 36 210 41 240 5 35 23 139 30 175 2 14 7 40 10 59 3 18
8 43 10 55 6 30 32 184 40 230 3 21 8 48 10 60 2 11 7 37 10 56 10 63 13 83
24 134 5 28 12 65 14 81 3 26 14 92 31 190 3 17 10 53 15 80 5 28 12 68 15 90
3 22 10 63 15 90 5 28 12 66 15 85 6 35 32 185 41 227 l4 22 1028 1 c565 0
1045 2 1067 4 22 2 76 7 120 11 221 18 513 98 720 196 362 172 667 470 855
834 112 218 195 479 236 736 9 57 17 109 19 116 4 14 48 5 150 -30z"/>
</g>
</svg>
