<?xml version="1.0" encoding="utf-8"?>
<!-- Generator: Adobe Illustrator 21.0.0, SVG Export Plug-In . SVG Version: 6.00 Build 0)  -->
<svg version="1.1" id="Слой_1" xmlns="http://www.w3.org/2000/svg" xmlns:xlink="http://www.w3.org/1999/xlink" x="0px" y="0px"
	 viewBox="0 0 26.9 16" style="enable-background:new 0 0 26.9 16;" xml:space="preserve">
<style type="text/css">
	.st0{fill:rgb(0, 253, 254);}
</style>
<g>
	<path class="st0" d="M0.3,3.4C0.1,3.1,0,2.9,0,2.6s0.1-0.5,0.3-0.7l1.7-1.7C2.2,0.1,2.4,0,2.7,0s0.5,0.1,0.7,0.3l10.1,10l10.1-10
		C23.7,0.1,23.9,0,24.2,0s0.5,0.1,0.8,0.3l1.7,1.7c0.2,0.2,0.3,0.5,0.3,0.7s-0.1,0.5-0.3,0.7L14.2,15.7C14,15.9,13.7,16,13.4,16
		s-0.5-0.1-0.8-0.3h0.1L0.3,3.4z"/>
</g>
</svg>
