<?xml version="1.0" encoding="utf-8"?>
<!-- Generator: Adobe Illustrator 21.0.0, SVG Export Plug-In . SVG Version: 6.00 Build 0)  -->
<svg version="1.1" id="bitcoin" xmlns="http://www.w3.org/2000/svg" xmlns:xlink="http://www.w3.org/1999/xlink" x="0px" y="0px"
	 viewBox="0 0 18 18" style="enable-background:new 0 0 18 18;" xml:space="preserve">
<path d="M9.5,8.4c0.4-0.1,0.6-0.3,0.6-0.7c0-0.4-0.2-0.6-0.6-0.7C9.3,7,9,6.9,8.5,6.9l-0.1,0l0,1.5l0.1,0C9,8.5,9.3,8.5,9.5,8.4z
	 M9.8,9.3C9.5,9.2,9.1,9.2,8.6,9.2l-0.2,0l0,1.7l0.2,0c0.5,0,0.9,0,1.2-0.1c0.5-0.1,0.8-0.4,0.8-0.7C10.5,9.7,10.2,9.4,9.8,9.3z
	 M15.5,7.4c-0.3-1.2-0.8-2.2-1.7-3c-0.8-0.9-1.8-1.5-3-1.8S8.6,2.2,7.4,2.5c-1.2,0.3-2.2,0.8-3,1.7C3.5,5,2.9,6,2.6,7.1
	c-0.3,1.1-0.4,2.3-0.1,3.5c0.3,1.2,0.8,2.2,1.7,3c0.8,0.9,1.8,1.5,3,1.8c1.1,0.3,2.3,0.4,3.5,0.1c1.2-0.3,2.2-0.8,3-1.7
	c0.9-0.8,1.5-1.8,1.8-3C15.8,9.7,15.8,8.6,15.5,7.4z M12,10.2c-0.1,0.6-0.3,1-0.7,1.2c-0.4,0.2-0.9,0.3-1.6,0.4l0,1.3l-0.7,0l0-1.3
	l-0.6,0l0,1.2l-0.8,0l0-1.3l-1.5,0l0.1-0.9c0.4,0,0.6,0,0.6,0c0.2,0,0.3-0.1,0.3-0.2l0-2l0-1.4C7,7,6.9,6.9,6.6,6.9c0,0-0.1,0-0.2,0
	l-0.3,0l0-0.8l1.5,0l0-1.3l0.8,0l0,1.2l0.6,0l0-1.2l0.7,0l0,1.3c0.5,0.1,1,0.2,1.3,0.3c0.4,0.2,0.5,0.6,0.6,1c0.1,0.6-0.2,1-0.6,1.3
	C11.7,8.9,12.1,9.4,12,10.2z M9,0C4,0,0,4,0,9s4,9,9,9s9-4,9-9S14,0,9,0z M9,17c-4.4,0-8-3.6-8-8s3.6-8,8-8s8,3.6,8,8S13.4,17,9,17z
	"/>
</svg>
