<?xml version="1.0" encoding="utf-8"?>
<!-- Generator: Adobe Illustrator 21.0.0, SVG Export Plug-In . SVG Version: 6.00 Build 0)  -->
<svg version="1.1" id="Слой_1" xmlns="http://www.w3.org/2000/svg" xmlns:xlink="http://www.w3.org/1999/xlink" x="0px" y="0px"
	 viewBox="0 0 35.3 52.6" style="enable-background:new 0 0 35.3 52.6;" xml:space="preserve">
<style type="text/css">
	.st0{fill:#4664BC;stroke:#4664BC;stroke-miterlimit:10;}
</style>
<path class="st0" d="M0.8,25.4l16.6,8.1c0.1,0,0.1,0.1,0.2,0.1c0.1,0,0.2,0,0.2-0.1l16.6-8.1c0.1-0.1,0.2-0.2,0.3-0.3s0-0.3-0.1-0.4
	L18.1,0.2c0,0,0,0,0,0c0,0-0.1-0.1-0.1-0.1c0,0-0.1-0.1-0.1-0.1c0,0,0,0,0,0c-0.1,0-0.1,0-0.1,0c0,0-0.1,0-0.1,0c0,0,0,0,0,0
	c0,0-0.1,0.1-0.1,0.1c0,0-0.1,0.1-0.1,0.1c0,0,0,0,0,0L0.6,24.6c-0.1,0.1-0.1,0.3-0.1,0.4S0.7,25.3,0.8,25.4z M18.2,2.1L33.1,24
	l-14.9-4.8V2.1z M18.2,20.3L33,25l-14.8,7.2V20.3z M17.2,32.2L2.4,25l14.8-4.7V32.2z M17.2,2.1v17.1L2.3,24L17.2,2.1z M34.7,28.6
	c-0.1-0.2-0.4-0.2-0.6-0.1l-16.4,8l-16.4-8c-0.2-0.1-0.5,0-0.6,0.1c-0.1,0.2-0.2,0.4,0,0.6l16.6,22.6c0.1,0.1,0.1,0.1,0.2,0.2
	c0,0,0,0,0,0c0.1,0,0.1,0,0.2,0c0.1,0,0.1,0,0.2,0c0,0,0,0,0,0c0.1,0,0.2-0.1,0.2-0.2l16.6-22.6C34.8,29,34.8,28.8,34.7,28.6z
	 M17.2,50L2.6,30.2l14.5,7.1V50z M18.2,50V37.3l14.5-7.1L18.2,50z"/>
</svg>
