<?xml version="1.0" encoding="utf-8"?>
<!-- Generator: Adobe Illustrator 21.0.0, SVG Export Plug-In . SVG Version: 6.00 Build 0)  -->
<svg version="1.1" id="google-plus" xmlns="http://www.w3.org/2000/svg" xmlns:xlink="http://www.w3.org/1999/xlink" x="0px" y="0px"
	 viewBox="0 0 43 26.9" style="enable-background:new 0 0 43 26.9;" xml:space="preserve">
<g>
	<path d="M26.3,13.8c0,2.6-0.5,4.8-1.6,6.8s-2.6,3.5-4.5,4.7c-2,1.1-4.2,1.7-6.7,1.7c-2.4,0-4.7-0.6-6.8-1.8
		c-2.1-1.2-3.7-2.8-4.9-4.9S0,15.9,0,13.5s0.6-4.7,1.8-6.7s2.8-3.7,4.9-4.9c2.1-1.2,4.3-1.8,6.8-1.8c3.5,0,6.5,1.2,9,3.5l-3.6,3.5
		c-1.4-1.4-3.2-2-5.3-2c-1.5,0-2.9,0.4-4.2,1.1S7,7.9,6.2,9.2c-0.7,1.3-1.1,2.7-1.1,4.3s0.4,3,1.1,4.3c0.7,1.3,1.8,2.3,3,3.1
		c1.3,0.7,2.7,1.1,4.2,1.1c1.6,0,3.1-0.3,4.3-1c1-0.6,1.8-1.4,2.4-2.4c0.5-0.8,0.8-1.6,1-2.3h-7.6v-4.7h12.7
		C26.2,12.3,26.3,13.1,26.3,13.8z M39,8.1h-3.9V12h-3.8V16h3.8v3.9H39V16H43V12H39V8.1z"/>
</g>
</svg>
