<svg version="1.1" id="_x2014_лой_x5F_1" xmlns="http://www.w3.org/2000/svg" xmlns:xlink="http://www.w3.org/1999/xlink"
	 x="0px" y="0px" viewBox="0 0 240.6 200.6" style="enable-background:new 0 0 240.6 200.6;" xml:space="preserve">
<style type="text/css">
	.hole0{opacity:0.67;}
	.hole1{fill:#140D4C;}
	.hole2{opacity:0.5;}
	.hole3{fill:url(#hole_1_);}
	.hole4{opacity:0.9;}
	.hole5{fill:#0F0B44;}
	.hole6{fill:url(#hole_2_);}
	.hole7{fill:url(#hole_3_);}
	.hole8{opacity:0.66;fill:url(#hole_4_);}
	.hole9{filter:url(#Adobe_OpacityMaskFilter);}
	.hole10{filter:url(#Adobe_OpacityMaskFilter_1_);}
	.hole11{mask:url(#hole_5_);fill:url(#hole_6_);}
	.hole12{opacity:0.66;fill:url(#hole_7_);}
	.hole13{fill:url(#hole_8_);}
	.hole14{filter:url(#Adobe_OpacityMaskFilter_2_);}
	.hole15{filter:url(#Adobe_OpacityMaskFilter_3_);}
	.hole16{mask:url(#hole_9_);fill:url(#hole_10_);}
	.hole17{opacity:0.66;fill:url(#hole_11_);}
	.hole18{filter:url(#Adobe_OpacityMaskFilter_4_);}
	.hole19{filter:url(#Adobe_OpacityMaskFilter_5_);}
	.hole20{mask:url(#hole_12_);fill:url(#hole_13_);}
	.hole21{opacity:0.66;fill:url(#hole_14_);}
	.hole22{filter:url(#Adobe_OpacityMaskFilter_6_);}
	.hole23{filter:url(#Adobe_OpacityMaskFilter_7_);}
	.hole24{mask:url(#hole_15_);fill:url(#hole_16_);}
	.hole25{opacity:0.66;fill:url(#hole_17_);}
	.hole26{filter:url(#Adobe_OpacityMaskFilter_8_);}
	.hole27{filter:url(#Adobe_OpacityMaskFilter_9_);}
	.hole28{mask:url(#hole_18_);fill:url(#hole_19_);}
	.hole29{opacity:0.66;fill:url(#hole_20_);}
	.hole30{filter:url(#Adobe_OpacityMaskFilter_10_);}
	.hole31{filter:url(#Adobe_OpacityMaskFilter_11_);}
	.hole32{mask:url(#hole_21_);fill:url(#hole_22_);}
	.hole33{opacity:0.66;fill:url(#hole_23_);}
	.hole34{filter:url(#Adobe_OpacityMaskFilter_12_);}
	.hole35{filter:url(#Adobe_OpacityMaskFilter_13_);}
	.hole36{mask:url(#hole_24_);fill:url(#hole_25_);}
	.hole37{opacity:0.66;fill:url(#hole_26_);}
	.hole38{filter:url(#Adobe_OpacityMaskFilter_14_);}
	.hole39{filter:url(#Adobe_OpacityMaskFilter_15_);}
	.hole40{mask:url(#hole_27_);fill:url(#hole_28_);}
	.hole41{opacity:0.66;fill:url(#hole_29_);}
	.hole42{filter:url(#Adobe_OpacityMaskFilter_16_);}
	.hole43{filter:url(#Adobe_OpacityMaskFilter_17_);}
	.hole44{mask:url(#hole_30_);fill:url(#hole_31_);}
	.hole45{opacity:0.66;fill:url(#hole_32_);}
</style>
<g>
	<g class="hole0">
		<path class="hole1" d="M114.9,199.1L1.2,133.5c-1.6-0.9-1.6-3.3,0-4.2l113.7-65.7c3.3-1.9,7.4-1.9,10.8,0l113.7,65.7
			c1.6,0.9,1.6,3.3,0,4.2l-113.7,65.7C122.4,201.1,118.3,201.1,114.9,199.1z"/>
	</g>
	<g class="hole2">
		<linearGradient id="hole_1_" gradientUnits="userSpaceOnUse" x1="16.8937" y1="131.3813" x2="223.7405" y2="131.3813">
			<stop  offset="0" style="stop-color:#1C155A"/>
			<stop  offset="4.225362e-02" style="stop-color:#211E60"/>
			<stop  offset="0.1112" style="stop-color:#2E366F"/>
			<stop  offset="0.1983" style="stop-color:#435E88"/>
			<stop  offset="0.3001" style="stop-color:#6095AB"/>
			<stop  offset="0.4131" style="stop-color:#85DBD7"/>
			<stop  offset="0.4301" style="stop-color:#8BE6DE"/>
			<stop  offset="0.9045" style="stop-color:#2F3970"/>
			<stop  offset="1" style="stop-color:#1C155A"/>
		</linearGradient>
		<path class="hole3" d="M120.3,191.7c-1.5,0-3-0.4-4.3-1.1c0,0,0,0,0,0l-97.5-56.3c-1-0.6-1.6-1.7-1.6-2.9c0-1.2,0.6-2.3,1.6-2.8
			L116,72.2c2.6-1.5,5.9-1.5,8.6,0l97.5,56.3c1,0.6,1.6,1.7,1.6,2.9c0,1.2-0.6,2.3-1.6,2.9l-97.5,56.3
			C123.3,191.3,121.8,191.7,120.3,191.7z M117.5,187.9c1.7,1,3.9,1,5.6,0l97.5-56.3c0.1-0.1,0.1-0.1,0.1-0.3c0-0.1,0-0.2-0.1-0.3
			l-97.5-56.3c-1.7-1-3.9-1-5.6,0L20,131.1c-0.1,0.1-0.1,0.1-0.1,0.3c0,0.1,0,0.2,0.1,0.3L117.5,187.9L117.5,187.9z"/>
	</g>
	<g class="hole4">
		<polygon class="hole5" points="120.3,178.5 38.7,131.4 120.3,84.3 201.9,131.4 		"/>
	</g>
</g>
<linearGradient id="hole_2_" gradientUnits="userSpaceOnUse" x1="120.3198" y1="167.4413" x2="120.3198" y2="123.1231">
	<stop  offset="0" style="stop-color:#00FFFF"/>
	<stop  offset="1" style="stop-color:#00FFFF;stop-opacity:0.7"/>
</linearGradient>
<path class="hole6" d="M52.7,122.6v6.4c0,2.6,1.3,5.3,3.9,6.8l54.3,31.3c5.9,3.4,13.1,3.4,18.9,0l54.3-31.3c2.6-1.5,3.9-4.2,3.9-6.8
	v-6.4H52.7z"/>
<linearGradient id="hole_3_" gradientUnits="userSpaceOnUse" x1="120.3198" y1="116.862" x2="120.3198" y2="1.3598">
	<stop  offset="0" style="stop-color:#00FFFF;stop-opacity:0.7"/>
	<stop  offset="0.1423" style="stop-color:#00FFFF;stop-opacity:0.6004"/>
	<stop  offset="1" style="stop-color:#00FFFF;stop-opacity:0"/>
</linearGradient>
<polygon class="hole7" points="52.7,38.8 52.7,122.6 188,122.6 188,38.8 120.3,0 "/>
<g>
	<g>
		<linearGradient id="hole_4_" gradientUnits="userSpaceOnUse" x1="120.3198" y1="169.3736" x2="120.3198" y2="92.6878">
			<stop  offset="0" style="stop-color:#00FFFF"/>
			<stop  offset="1" style="stop-color:#00FFFF;stop-opacity:0"/>
		</linearGradient>
		<path class="hole8" d="M115.9,168.4l-60.3-34.8c-2.4-1.4-2.1-3.9,0.7-5.5l59-34c2.8-1.6,7.1-1.8,9.5-0.4l60.3,34.8
			c2.4,1.4,2.1,3.9-0.7,5.5l-59,34C122.6,169.7,118.3,169.8,115.9,168.4z"/>
		<defs>
			<filter id="Adobe_OpacityMaskFilter" filterUnits="userSpaceOnUse" x="53.9" y="92.7" width="132.8" height="76.7">
				<feFlood  style="flood-color:white;flood-opacity:1" result="back"/>
				<feBlend  in="SourceGraphic" in2="back" mode="normal"/>
			</filter>
		</defs>
		<mask maskUnits="userSpaceOnUse" x="53.9" y="92.7" width="132.8" height="76.7" id="hole_5_">
			<g class="hole9">
				<defs>
					<filter id="Adobe_OpacityMaskFilter_1_" filterUnits="userSpaceOnUse" x="53.9" y="92.7" width="132.8" height="76.7">
						<feFlood  style="flood-color:white;flood-opacity:1" result="back"/>
						<feBlend  in="SourceGraphic" in2="back" mode="normal"/>
					</filter>
				</defs>
				<mask maskUnits="userSpaceOnUse" x="53.9" y="92.7" width="132.8" height="76.7" id="hole_5_">
					<g class="hole10">
					</g>
				</mask>
				<radialGradient id="hole_6_" cx="120.3198" cy="161.1721" r="54.2249" gradientUnits="userSpaceOnUse">
					<stop  offset="0" style="stop-color:#E6E6E6"/>
					<stop  offset="9.677999e-02" style="stop-color:#DFDFDF"/>
					<stop  offset="0.2322" style="stop-color:#CDCDCD"/>
					<stop  offset="0.3905" style="stop-color:#AFAFAF"/>
					<stop  offset="0.5662" style="stop-color:#858585"/>
					<stop  offset="0.756" style="stop-color:#505050"/>
					<stop  offset="0.955" style="stop-color:#101010"/>
					<stop  offset="1" style="stop-color:#000000"/>
				</radialGradient>
				<path class="hole11" d="M115.9,168.4l-60.3-34.8c-2.4-1.4-2.1-3.9,0.7-5.5l59-34c2.8-1.6,7.1-1.8,9.5-0.4l60.3,34.8
					c2.4,1.4,2.1,3.9-0.7,5.5l-59,34C122.6,169.7,118.3,169.8,115.9,168.4z"/>
			</g>
		</mask>
		<linearGradient id="hole_7_" gradientUnits="userSpaceOnUse" x1="120.3198" y1="169.3736" x2="120.3198" y2="92.6878">
			<stop  offset="0" style="stop-color:#00FFFF"/>
			<stop  offset="1" style="stop-color:#00FFFF;stop-opacity:0"/>
		</linearGradient>
		<path class="hole12" d="M115.9,168.4l-60.3-34.8c-2.4-1.4-2.1-3.9,0.7-5.5l59-34c2.8-1.6,7.1-1.8,9.5-0.4l60.3,34.8
			c2.4,1.4,2.1,3.9-0.7,5.5l-59,34C122.6,169.7,118.3,169.8,115.9,168.4z"/>
		<linearGradient id="hole_8_" gradientUnits="userSpaceOnUse" x1="120.3198" y1="146.742" x2="120.3198" y2="92.6878">
			<stop  offset="0" style="stop-color:#00FFFF"/>
			<stop  offset="0.8587" style="stop-color:#00FFFF;stop-opacity:0.1413"/>
			<stop  offset="1" style="stop-color:#00FFFF;stop-opacity:0"/>
		</linearGradient>
		<path class="hole13" d="M55.6,133.6l22.8,13.2l36.9-21.3c2.8-1.6,7.1-1.8,9.5-0.4l37.6,21.7l22.1-12.8c2.8-1.6,3.1-4.1,0.7-5.5
			l-60.3-34.8c-2.4-1.4-6.7-1.2-9.5,0.4l-59,34C53.4,129.7,53.1,132.2,55.6,133.6z"/>
	</g>
	<g>
		<g>
			<g>
				<g>
					<defs>
						<filter id="Adobe_OpacityMaskFilter_2_" filterUnits="userSpaceOnUse" x="124.4" y="0.9" width="9" height="164.4">
							<feFlood  style="flood-color:white;flood-opacity:1" result="back"/>
							<feBlend  in="SourceGraphic" in2="back" mode="normal"/>
						</filter>
					</defs>
					<mask maskUnits="userSpaceOnUse" x="124.4" y="0.9" width="9" height="164.4" id="hole_9_">
						<g class="hole14">
							<defs>
								<filter id="Adobe_OpacityMaskFilter_3_" filterUnits="userSpaceOnUse" x="124.4" y="0.9" width="9" height="193">
									<feFlood  style="flood-color:white;flood-opacity:1" result="back"/>
									<feBlend  in="SourceGraphic" in2="back" mode="normal"/>
								</filter>
							</defs>
							<mask maskUnits="userSpaceOnUse" x="124.4" y="0.9" width="9" height="193" id="hole_9_">
								<g class="hole15">
								</g>
							</mask>

								<linearGradient id="hole_10_" gradientUnits="userSpaceOnUse" x1="-703.9799" y1="1307.4142" x2="-703.9799" y2="1141.4702" gradientTransform="matrix(0.866 0.5 0 1.1547 738.4956 -964.4624)">
								<stop  offset="0" style="stop-color:#000000"/>
								<stop  offset="5.762670e-02" style="stop-color:#292929"/>
								<stop  offset="0.1455" style="stop-color:#626262"/>
								<stop  offset="0.2308" style="stop-color:#919191"/>
								<stop  offset="0.3114" style="stop-color:#B6B6B6"/>
								<stop  offset="0.3863" style="stop-color:#D0D0D0"/>
								<stop  offset="0.4531" style="stop-color:#E0E0E0"/>
								<stop  offset="0.5054" style="stop-color:#E6E6E6"/>
								<stop  offset="0.5514" style="stop-color:#DEDEDE"/>
								<stop  offset="0.6211" style="stop-color:#C9C9C9"/>
								<stop  offset="0.7058" style="stop-color:#A7A7A7"/>
								<stop  offset="0.8025" style="stop-color:#777777"/>
								<stop  offset="0.9076" style="stop-color:#3B3B3B"/>
								<stop  offset="1" style="stop-color:#000000"/>
							</linearGradient>
							<path class="hole16" d="M129.2,1.8l-0.6-0.4c-2.3-1.3-4.2,0.1-4.2,3.2v180.5c0,3.1,1.9,6.6,4.2,8l0.6,0.4
								c2.3,1.3,4.2-0.1,4.2-3.2V9.8C133.3,6.7,131.5,3.1,129.2,1.8z"/>
						</g>
					</mask>

						<linearGradient id="hole_11_" gradientUnits="userSpaceOnUse" x1="-703.9799" y1="1282.679" x2="-703.9799" y2="1141.4702" gradientTransform="matrix(0.866 0.5 0 1.1547 738.4956 -964.4624)">
						<stop  offset="0" style="stop-color:#00FFFF"/>
						<stop  offset="1" style="stop-color:#00FFFF;stop-opacity:0"/>
					</linearGradient>
					<path class="hole17" d="M129.2,1.8l-0.6-0.4c-2.3-1.3-4.2,0.1-4.2,3.2v151.9c0,3.1,1.9,6.6,4.2,8l0.6,0.4
						c2.3,1.3,4.2-0.1,4.2-3.2V9.8C133.3,6.7,131.5,3.1,129.2,1.8z"/>
					<defs>
						<filter id="Adobe_OpacityMaskFilter_4_" filterUnits="userSpaceOnUse" x="141.2" y="39.4" width="9" height="115.9">
							<feFlood  style="flood-color:white;flood-opacity:1" result="back"/>
							<feBlend  in="SourceGraphic" in2="back" mode="normal"/>
						</filter>
					</defs>
					<mask maskUnits="userSpaceOnUse" x="141.2" y="39.4" width="9" height="115.9" id="hole_12_">
						<g class="hole18">
							<defs>
								<filter id="Adobe_OpacityMaskFilter_5_" filterUnits="userSpaceOnUse" x="141.2" y="39.4" width="9" height="164.2">
									<feFlood  style="flood-color:white;flood-opacity:1" result="back"/>
									<feBlend  in="SourceGraphic" in2="back" mode="normal"/>
								</filter>
							</defs>
							<mask maskUnits="userSpaceOnUse" x="141.2" y="39.4" width="9" height="164.2" id="hole_12_">
								<g class="hole19">
								</g>
							</mask>

								<linearGradient id="hole_13_" gradientUnits="userSpaceOnUse" x1="-684.5654" y1="1307.4139" x2="-684.5654" y2="1166.3761" gradientTransform="matrix(0.866 0.5 0 1.1547 738.4956 -964.4624)">
								<stop  offset="0" style="stop-color:#000000"/>
								<stop  offset="5.762670e-02" style="stop-color:#292929"/>
								<stop  offset="0.1455" style="stop-color:#626262"/>
								<stop  offset="0.2308" style="stop-color:#919191"/>
								<stop  offset="0.3114" style="stop-color:#B6B6B6"/>
								<stop  offset="0.3863" style="stop-color:#D0D0D0"/>
								<stop  offset="0.4531" style="stop-color:#E0E0E0"/>
								<stop  offset="0.5054" style="stop-color:#E6E6E6"/>
								<stop  offset="0.5514" style="stop-color:#DEDEDE"/>
								<stop  offset="0.6211" style="stop-color:#C9C9C9"/>
								<stop  offset="0.7058" style="stop-color:#A7A7A7"/>
								<stop  offset="0.8025" style="stop-color:#777777"/>
								<stop  offset="0.9076" style="stop-color:#3B3B3B"/>
								<stop  offset="1" style="stop-color:#000000"/>
							</linearGradient>
							<path class="hole20" d="M146,40.2l-0.6-0.4c-2.3-1.3-4.2,0.1-4.2,3.2v151.7c0,3.1,1.9,6.6,4.2,8l0.6,0.4
								c2.3,1.3,4.2-0.1,4.2-3.2V48.2C150.1,45.1,148.3,41.6,146,40.2z"/>
						</g>
					</mask>

						<linearGradient id="hole_14_" gradientUnits="userSpaceOnUse" x1="-684.5654" y1="1265.5417" x2="-684.5654" y2="1166.3761" gradientTransform="matrix(0.866 0.5 0 1.1547 738.4956 -964.4624)">
						<stop  offset="0" style="stop-color:#00FFFF"/>
						<stop  offset="1" style="stop-color:#00FFFF;stop-opacity:0"/>
					</linearGradient>
					<path class="hole21" d="M146,40.2l-0.6-0.4c-2.3-1.3-4.2,0.1-4.2,3.2v103.4c0,3.1,1.9,6.6,4.2,8l0.6,0.4c2.3,1.3,4.2-0.1,4.2-3.2
						V48.2C150.1,45.1,148.3,41.6,146,40.2z"/>
					<defs>
						<filter id="Adobe_OpacityMaskFilter_6_" filterUnits="userSpaceOnUse" x="158" y="84.8" width="9" height="60.7">
							<feFlood  style="flood-color:white;flood-opacity:1" result="back"/>
							<feBlend  in="SourceGraphic" in2="back" mode="normal"/>
						</filter>
					</defs>
					<mask maskUnits="userSpaceOnUse" x="158" y="84.8" width="9" height="60.7" id="hole_15_">
						<g class="hole22">
							<defs>
								<filter id="Adobe_OpacityMaskFilter_7_" filterUnits="userSpaceOnUse" x="158" y="84.8" width="9" height="69.3">
									<feFlood  style="flood-color:white;flood-opacity:1" result="back"/>
									<feBlend  in="SourceGraphic" in2="back" mode="normal"/>
								</filter>
							</defs>
							<mask maskUnits="userSpaceOnUse" x="158" y="84.8" width="9" height="69.3" id="hole_15_">
								<g class="hole23">
								</g>
							</mask>

								<linearGradient id="hole_16_" gradientUnits="userSpaceOnUse" x1="-665.151" y1="1256.1919" x2="-665.151" y2="1197.3153" gradientTransform="matrix(0.866 0.5 0 1.1547 738.4956 -964.4624)">
								<stop  offset="0" style="stop-color:#000000"/>
								<stop  offset="5.762670e-02" style="stop-color:#292929"/>
								<stop  offset="0.1455" style="stop-color:#626262"/>
								<stop  offset="0.2308" style="stop-color:#919191"/>
								<stop  offset="0.3114" style="stop-color:#B6B6B6"/>
								<stop  offset="0.3863" style="stop-color:#D0D0D0"/>
								<stop  offset="0.4531" style="stop-color:#E0E0E0"/>
								<stop  offset="0.5054" style="stop-color:#E6E6E6"/>
								<stop  offset="0.5514" style="stop-color:#DEDEDE"/>
								<stop  offset="0.6211" style="stop-color:#C9C9C9"/>
								<stop  offset="0.7058" style="stop-color:#A7A7A7"/>
								<stop  offset="0.8025" style="stop-color:#777777"/>
								<stop  offset="0.9076" style="stop-color:#3B3B3B"/>
								<stop  offset="1" style="stop-color:#000000"/>
							</linearGradient>
							<path class="hole24" d="M162.8,85.7l-0.6-0.4c-2.3-1.3-4.2,0.1-4.2,3.2v56.9c0,3.1,1.9,6.6,4.2,8l0.6,0.4
								c2.3,1.3,4.2-0.1,4.2-3.2V93.7C167,90.6,165.1,87,162.8,85.7z"/>
						</g>
					</mask>

						<linearGradient id="hole_17_" gradientUnits="userSpaceOnUse" x1="-665.151" y1="1248.6656" x2="-665.151" y2="1197.3153" gradientTransform="matrix(0.866 0.5 0 1.1547 738.4956 -964.4624)">
						<stop  offset="0" style="stop-color:#00FFFF"/>
						<stop  offset="1" style="stop-color:#00FFFF;stop-opacity:0"/>
					</linearGradient>
					<path class="hole25" d="M162.8,85.7l-0.6-0.4c-2.3-1.3-4.2,0.1-4.2,3.2v48.2c0,3.1,1.9,6.6,4.2,8l0.6,0.4
						c2.3,1.3,4.2-0.1,4.2-3.2V93.7C167,90.6,165.1,87,162.8,85.7z"/>
					<defs>
						<filter id="Adobe_OpacityMaskFilter_8_" filterUnits="userSpaceOnUse" x="174.7" y="109.8" width="9" height="26">
							<feFlood  style="flood-color:white;flood-opacity:1" result="back"/>
							<feBlend  in="SourceGraphic" in2="back" mode="normal"/>
						</filter>
					</defs>
					<mask maskUnits="userSpaceOnUse" x="174.7" y="109.8" width="9" height="26" id="hole_18_">
						<g class="hole26">
							<defs>
								<filter id="Adobe_OpacityMaskFilter_9_" filterUnits="userSpaceOnUse" x="174.7" y="109.8" width="9" height="34.3">
									<feFlood  style="flood-color:white;flood-opacity:1" result="back"/>
									<feBlend  in="SourceGraphic" in2="back" mode="normal"/>
								</filter>
							</defs>
							<mask maskUnits="userSpaceOnUse" x="174.7" y="109.8" width="9" height="34.3" id="hole_18_">
								<g class="hole27">
								</g>
							</mask>

								<linearGradient id="hole_19_" gradientUnits="userSpaceOnUse" x1="-645.9086" y1="1239.1005" x2="-645.9086" y2="1210.5768" gradientTransform="matrix(0.866 0.5 0 1.1547 738.4956 -964.4624)">
								<stop  offset="0" style="stop-color:#000000"/>
								<stop  offset="5.762670e-02" style="stop-color:#292929"/>
								<stop  offset="0.1455" style="stop-color:#626262"/>
								<stop  offset="0.2308" style="stop-color:#919191"/>
								<stop  offset="0.3114" style="stop-color:#B6B6B6"/>
								<stop  offset="0.3863" style="stop-color:#D0D0D0"/>
								<stop  offset="0.4531" style="stop-color:#E0E0E0"/>
								<stop  offset="0.5054" style="stop-color:#E6E6E6"/>
								<stop  offset="0.5514" style="stop-color:#DEDEDE"/>
								<stop  offset="0.6211" style="stop-color:#C9C9C9"/>
								<stop  offset="0.7058" style="stop-color:#A7A7A7"/>
								<stop  offset="0.8025" style="stop-color:#777777"/>
								<stop  offset="0.9076" style="stop-color:#3B3B3B"/>
								<stop  offset="1" style="stop-color:#000000"/>
							</linearGradient>
							<path class="hole28" d="M179.4,110.6l-0.6-0.4c-2.3-1.3-4.2,0.1-4.2,3.2v21.8c0,3.1,1.9,6.6,4.2,8l0.6,0.4
								c2.3,1.3,4.2-0.1,4.2-3.2v-21.8C183.6,115.5,181.8,111.9,179.4,110.6z"/>
						</g>
					</mask>

						<linearGradient id="hole_20_" gradientUnits="userSpaceOnUse" x1="-645.9086" y1="1231.9513" x2="-645.9086" y2="1210.5768" gradientTransform="matrix(0.866 0.5 0 1.1547 738.4956 -964.4624)">
						<stop  offset="0" style="stop-color:#00FFFF"/>
						<stop  offset="1" style="stop-color:#00FFFF;stop-opacity:0"/>
					</linearGradient>
					<path class="hole29" d="M179.4,110.6l-0.6-0.4c-2.3-1.3-4.2,0.1-4.2,3.2V127c0,3.1,1.9,6.6,4.2,8l0.6,0.4
						c2.3,1.3,4.2-0.1,4.2-3.2v-13.6C183.6,115.5,181.8,111.9,179.4,110.6z"/>
				</g>
			</g>
			<g>
				<g>
					<defs>
						<filter id="Adobe_OpacityMaskFilter_10_" filterUnits="userSpaceOnUse" x="107.3" y="0.9" width="9" height="163.2">
							<feFlood  style="flood-color:white;flood-opacity:1" result="back"/>
							<feBlend  in="SourceGraphic" in2="back" mode="normal"/>
						</filter>
					</defs>
					<mask maskUnits="userSpaceOnUse" x="107.3" y="0.9" width="9" height="163.2" id="hole_21_">
						<g class="hole30">
							<defs>
								<filter id="Adobe_OpacityMaskFilter_11_" filterUnits="userSpaceOnUse" x="107.3" y="0.9" width="9" height="193">
									<feFlood  style="flood-color:white;flood-opacity:1" result="back"/>
									<feBlend  in="SourceGraphic" in2="back" mode="normal"/>
								</filter>
							</defs>
							<mask maskUnits="userSpaceOnUse" x="107.3" y="0.9" width="9" height="193" id="hole_21_">
								<g class="hole31">
								</g>
							</mask>

								<linearGradient id="hole_22_" gradientUnits="userSpaceOnUse" x1="-1711.236" y1="1743.5691" x2="-1711.236" y2="1577.625" gradientTransform="matrix(-0.866 0.5 0 1.1547 -1370.1498 -964.4624)">
								<stop  offset="0" style="stop-color:#000000"/>
								<stop  offset="5.762670e-02" style="stop-color:#292929"/>
								<stop  offset="0.1455" style="stop-color:#626262"/>
								<stop  offset="0.2308" style="stop-color:#919191"/>
								<stop  offset="0.3114" style="stop-color:#B6B6B6"/>
								<stop  offset="0.3863" style="stop-color:#D0D0D0"/>
								<stop  offset="0.4531" style="stop-color:#E0E0E0"/>
								<stop  offset="0.5054" style="stop-color:#E6E6E6"/>
								<stop  offset="0.5514" style="stop-color:#DEDEDE"/>
								<stop  offset="0.6211" style="stop-color:#C9C9C9"/>
								<stop  offset="0.7058" style="stop-color:#A7A7A7"/>
								<stop  offset="0.8025" style="stop-color:#777777"/>
								<stop  offset="0.9076" style="stop-color:#3B3B3B"/>
								<stop  offset="1" style="stop-color:#000000"/>
							</linearGradient>
							<path class="hole32" d="M111.5,1.8l0.6-0.4c2.3-1.3,4.2,0.1,4.2,3.2v180.5c0,3.1-1.9,6.6-4.2,8l-0.6,0.4
								c-2.3,1.3-4.2-0.1-4.2-3.2V9.8C107.3,6.7,109.2,3.1,111.5,1.8z"/>
						</g>
					</mask>

						<linearGradient id="hole_23_" gradientUnits="userSpaceOnUse" x1="-1711.236" y1="1717.752" x2="-1711.236" y2="1577.625" gradientTransform="matrix(-0.866 0.5 0 1.1547 -1370.1498 -964.4624)">
						<stop  offset="0" style="stop-color:#00FFFF"/>
						<stop  offset="1" style="stop-color:#00FFFF;stop-opacity:0"/>
					</linearGradient>
					<path class="hole33" d="M111.5,1.8l0.6-0.4c2.3-1.3,4.2,0.1,4.2,3.2v150.7c0,3.1-1.9,6.6-4.2,8l-0.6,0.4
						c-2.3,1.3-4.2-0.1-4.2-3.2V9.8C107.3,6.7,109.2,3.1,111.5,1.8z"/>
					<defs>
						<filter id="Adobe_OpacityMaskFilter_12_" filterUnits="userSpaceOnUse" x="90.5" y="39.4" width="9" height="115.9">
							<feFlood  style="flood-color:white;flood-opacity:1" result="back"/>
							<feBlend  in="SourceGraphic" in2="back" mode="normal"/>
						</filter>
					</defs>
					<mask maskUnits="userSpaceOnUse" x="90.5" y="39.4" width="9" height="115.9" id="hole_24_">
						<g class="hole34">
							<defs>
								<filter id="Adobe_OpacityMaskFilter_13_" filterUnits="userSpaceOnUse" x="90.5" y="39.4" width="9" height="164.2">
									<feFlood  style="flood-color:white;flood-opacity:1" result="back"/>
									<feBlend  in="SourceGraphic" in2="back" mode="normal"/>
								</filter>
							</defs>
							<mask maskUnits="userSpaceOnUse" x="90.5" y="39.4" width="9" height="164.2" id="hole_24_">
								<g class="hole35">
								</g>
							</mask>

								<linearGradient id="hole_25_" gradientUnits="userSpaceOnUse" x1="-1691.8214" y1="1743.5688" x2="-1691.8214" y2="1602.5309" gradientTransform="matrix(-0.866 0.5 0 1.1547 -1370.1498 -964.4624)">
								<stop  offset="0" style="stop-color:#000000"/>
								<stop  offset="5.762670e-02" style="stop-color:#292929"/>
								<stop  offset="0.1455" style="stop-color:#626262"/>
								<stop  offset="0.2308" style="stop-color:#919191"/>
								<stop  offset="0.3114" style="stop-color:#B6B6B6"/>
								<stop  offset="0.3863" style="stop-color:#D0D0D0"/>
								<stop  offset="0.4531" style="stop-color:#E0E0E0"/>
								<stop  offset="0.5054" style="stop-color:#E6E6E6"/>
								<stop  offset="0.5514" style="stop-color:#DEDEDE"/>
								<stop  offset="0.6211" style="stop-color:#C9C9C9"/>
								<stop  offset="0.7058" style="stop-color:#A7A7A7"/>
								<stop  offset="0.8025" style="stop-color:#777777"/>
								<stop  offset="0.9076" style="stop-color:#3B3B3B"/>
								<stop  offset="1" style="stop-color:#000000"/>
							</linearGradient>
							<path class="hole36" d="M94.7,40.2l0.6-0.4c2.3-1.3,4.2,0.1,4.2,3.2v151.7c0,3.1-1.9,6.6-4.2,8l-0.6,0.4
								c-2.3,1.3-4.2-0.1-4.2-3.2V48.2C90.5,45.1,92.4,41.6,94.7,40.2z"/>
						</g>
					</mask>

						<linearGradient id="hole_26_" gradientUnits="userSpaceOnUse" x1="-1691.8214" y1="1701.6965" x2="-1691.8214" y2="1602.5309" gradientTransform="matrix(-0.866 0.5 0 1.1547 -1370.1498 -964.4624)">
						<stop  offset="0" style="stop-color:#00FFFF"/>
						<stop  offset="1" style="stop-color:#00FFFF;stop-opacity:0"/>
					</linearGradient>
					<path class="hole37" d="M94.7,40.2l0.6-0.4c2.3-1.3,4.2,0.1,4.2,3.2v103.4c0,3.1-1.9,6.6-4.2,8l-0.6,0.4
						c-2.3,1.3-4.2-0.1-4.2-3.2V48.2C90.5,45.1,92.4,41.6,94.7,40.2z"/>
					<defs>
						<filter id="Adobe_OpacityMaskFilter_14_" filterUnits="userSpaceOnUse" x="73.7" y="84.8" width="9" height="60.7">
							<feFlood  style="flood-color:white;flood-opacity:1" result="back"/>
							<feBlend  in="SourceGraphic" in2="back" mode="normal"/>
						</filter>
					</defs>
					<mask maskUnits="userSpaceOnUse" x="73.7" y="84.8" width="9" height="60.7" id="hole_27_">
						<g class="hole38">
							<defs>
								<filter id="Adobe_OpacityMaskFilter_15_" filterUnits="userSpaceOnUse" x="73.7" y="84.8" width="9" height="69.3">
									<feFlood  style="flood-color:white;flood-opacity:1" result="back"/>
									<feBlend  in="SourceGraphic" in2="back" mode="normal"/>
								</filter>
							</defs>
							<mask maskUnits="userSpaceOnUse" x="73.7" y="84.8" width="9" height="69.3" id="hole_27_">
								<g class="hole39">
								</g>
							</mask>

								<linearGradient id="hole_28_" gradientUnits="userSpaceOnUse" x1="-1672.407" y1="1692.3468" x2="-1672.407" y2="1633.4702" gradientTransform="matrix(-0.866 0.5 0 1.1547 -1370.1498 -964.4624)">
								<stop  offset="0" style="stop-color:#000000"/>
								<stop  offset="5.762670e-02" style="stop-color:#292929"/>
								<stop  offset="0.1455" style="stop-color:#626262"/>
								<stop  offset="0.2308" style="stop-color:#919191"/>
								<stop  offset="0.3114" style="stop-color:#B6B6B6"/>
								<stop  offset="0.3863" style="stop-color:#D0D0D0"/>
								<stop  offset="0.4531" style="stop-color:#E0E0E0"/>
								<stop  offset="0.5054" style="stop-color:#E6E6E6"/>
								<stop  offset="0.5514" style="stop-color:#DEDEDE"/>
								<stop  offset="0.6211" style="stop-color:#C9C9C9"/>
								<stop  offset="0.7058" style="stop-color:#A7A7A7"/>
								<stop  offset="0.8025" style="stop-color:#777777"/>
								<stop  offset="0.9076" style="stop-color:#3B3B3B"/>
								<stop  offset="1" style="stop-color:#000000"/>
							</linearGradient>
							<path class="hole40" d="M77.8,85.7l0.6-0.4c2.3-1.3,4.2,0.1,4.2,3.2v56.9c0,3.1-1.9,6.6-4.2,8l-0.6,0.4
								c-2.3,1.3-4.2-0.1-4.2-3.2V93.7C73.7,90.6,75.5,87,77.8,85.7z"/>
						</g>
					</mask>

						<linearGradient id="hole_29_" gradientUnits="userSpaceOnUse" x1="-1672.407" y1="1684.8204" x2="-1672.407" y2="1633.4702" gradientTransform="matrix(-0.866 0.5 0 1.1547 -1370.1498 -964.4624)">
						<stop  offset="0" style="stop-color:#00FFFF"/>
						<stop  offset="1" style="stop-color:#00FFFF;stop-opacity:0"/>
					</linearGradient>
					<path class="hole41" d="M77.8,85.7l0.6-0.4c2.3-1.3,4.2,0.1,4.2,3.2v48.2c0,3.1-1.9,6.6-4.2,8l-0.6,0.4c-2.3,1.3-4.2-0.1-4.2-3.2
						V93.7C73.7,90.6,75.5,87,77.8,85.7z"/>
					<defs>
						<filter id="Adobe_OpacityMaskFilter_16_" filterUnits="userSpaceOnUse" x="57" y="109.8" width="9" height="25.7">
							<feFlood  style="flood-color:white;flood-opacity:1" result="back"/>
							<feBlend  in="SourceGraphic" in2="back" mode="normal"/>
						</filter>
					</defs>
					<mask maskUnits="userSpaceOnUse" x="57" y="109.8" width="9" height="25.7" id="hole_30_">
						<g class="hole42">
							<defs>
								<filter id="Adobe_OpacityMaskFilter_17_" filterUnits="userSpaceOnUse" x="57" y="109.8" width="9" height="34.3">
									<feFlood  style="flood-color:white;flood-opacity:1" result="back"/>
									<feBlend  in="SourceGraphic" in2="back" mode="normal"/>
								</filter>
							</defs>
							<mask maskUnits="userSpaceOnUse" x="57" y="109.8" width="9" height="34.3" id="hole_30_">
								<g class="hole43">
								</g>
							</mask>

								<linearGradient id="hole_31_" gradientUnits="userSpaceOnUse" x1="-1653.1647" y1="1675.2554" x2="-1653.1647" y2="1646.7317" gradientTransform="matrix(-0.866 0.5 0 1.1547 -1370.1498 -964.4624)">
								<stop  offset="0" style="stop-color:#000000"/>
								<stop  offset="5.762670e-02" style="stop-color:#292929"/>
								<stop  offset="0.1455" style="stop-color:#626262"/>
								<stop  offset="0.2308" style="stop-color:#919191"/>
								<stop  offset="0.3114" style="stop-color:#B6B6B6"/>
								<stop  offset="0.3863" style="stop-color:#D0D0D0"/>
								<stop  offset="0.4531" style="stop-color:#E0E0E0"/>
								<stop  offset="0.5054" style="stop-color:#E6E6E6"/>
								<stop  offset="0.5514" style="stop-color:#DEDEDE"/>
								<stop  offset="0.6211" style="stop-color:#C9C9C9"/>
								<stop  offset="0.7058" style="stop-color:#A7A7A7"/>
								<stop  offset="0.8025" style="stop-color:#777777"/>
								<stop  offset="0.9076" style="stop-color:#3B3B3B"/>
								<stop  offset="1" style="stop-color:#000000"/>
							</linearGradient>
							<path class="hole44" d="M61.2,110.6l0.6-0.4c2.3-1.3,4.2,0.1,4.2,3.2v21.8c0,3.1-1.9,6.6-4.2,8l-0.6,0.4
								c-2.3,1.3-4.2-0.1-4.2-3.2v-21.8C57,115.5,58.9,111.9,61.2,110.6z"/>
						</g>
					</mask>

						<linearGradient id="hole_32_" gradientUnits="userSpaceOnUse" x1="-1653.1647" y1="1667.8021" x2="-1653.1647" y2="1646.7317" gradientTransform="matrix(-0.866 0.5 0 1.1547 -1370.1498 -964.4624)">
						<stop  offset="0" style="stop-color:#00FFFF"/>
						<stop  offset="1" style="stop-color:#00FFFF;stop-opacity:0"/>
					</linearGradient>
					<path class="hole45" d="M61.2,110.6l0.6-0.4c2.3-1.3,4.2,0.1,4.2,3.2v13.2c0,3.1-1.9,6.6-4.2,8l-0.6,0.4
						c-2.3,1.3-4.2-0.1-4.2-3.2v-13.2C57,115.5,58.9,111.9,61.2,110.6z"/>
				</g>
			</g>
		</g>
	</g>
</g>
</svg>
