<?xml version="1.0" encoding="utf-8"?>
<!-- Generator: Adobe Illustrator 21.0.0, SVG Export Plug-In . SVG Version: 6.00 Build 0)  -->
<svg version="1.1" id="Слой_1" xmlns="http://www.w3.org/2000/svg" xmlns:xlink="http://www.w3.org/1999/xlink" x="0px" y="0px"
	 viewBox="0 0 68.2 145.9" style="enable-background:new 0 0 68.2 145.9;" xml:space="preserve">
<style type="text/css">
	.st0{fill:#FFFFFF;}
</style>
<g>
	<path class="st0" d="M56.9,105.2c3.2,0.6,5.9,2.1,8.1,4.5c2.2,2.5,3.3,5.4,3.3,8.8v13.6c0,3.8-1.3,7-4,9.7c-2.7,2.7-5.9,4-9.7,4
		H13.7c-3.8,0-7-1.3-9.7-4s-4-5.9-4-9.7v-13.6c0-3.4,1.1-6.4,3.3-8.8c2.2-2.5,4.9-4,8.1-4.5V86.5c-3.2-0.6-5.9-2.1-8.1-4.5
		C1.1,79.4,0,76.5,0,73.1V59.4c0-3.8,1.3-7,4-9.7c2.7-2.7,5.9-4,9.7-4h0.3c-4.7-5.1-7.1-11.2-7.1-18.2c0-7.6,2.7-14,8-19.3
		s11.8-8,19.3-8s14,2.7,19.3,8s8,11.8,8,19.3c0,4.2-0.9,8.1-2.7,11.7c-1.8,3.6-4.2,6.7-7.3,9.4c3.6,2.7,5.4,6.3,5.4,10.8V105.2z
		 M59.2,132.2v-13.6c0-1.3-0.4-2.4-1.3-3.3c-0.9-0.9-1.9-1.3-3.3-1.3h-6.8V59.4c0-1.3-0.4-2.4-1.3-3.3c-0.9-0.9-1.9-1.3-3.3-1.3
		H13.7c-1.3,0-2.4,0.4-3.3,1.3c-0.9,0.9-1.3,1.9-1.3,3.3v13.7c0,1.3,0.4,2.4,1.3,3.3c0.9,0.9,1.9,1.3,3.3,1.3h6.8V114h-6.8
		c-1.3,0-2.4,0.4-3.3,1.3c-0.9,0.9-1.3,1.9-1.3,3.3v13.6c0,1.3,0.4,2.4,1.3,3.3c0.9,0.9,1.9,1.3,3.3,1.3h40.9c1.3,0,2.4-0.4,3.3-1.3
		C58.7,134.7,59.2,133.6,59.2,132.2z M34.1,9.4c-5.1,0-9.4,1.8-12.9,5.3s-5.3,7.8-5.3,12.9s1.8,9.4,5.3,12.9s7.8,5.3,12.9,5.3
		s9.4-1.8,12.9-5.3c3.5-3.5,5.3-7.8,5.3-12.9s-1.8-9.4-5.3-12.9C43.6,11.1,39.2,9.4,34.1,9.4z"/>
</g>
</svg>
