<?xml version="1.0" encoding="utf-8"?>
<!-- Generator: Adobe Illustrator 21.0.0, SVG Export Plug-In . SVG Version: 6.00 Build 0)  -->
<svg version="1.1" id="Слой_1" xmlns="http://www.w3.org/2000/svg" xmlns:xlink="http://www.w3.org/1999/xlink" x="0px" y="0px"
	 viewBox="0 0 178 93.2" style="enable-background:new 0 0 178 93.2;" xml:space="preserve">
<style type="text/css">
	.st0{fill:#F9F9F9;stroke:#ECECEC;stroke-miterlimit:10;}
</style>
<g>
	<path class="st0" d="M78.4,20.5c-3.1-4.5-7.4-8.1-13-10.7c-5.6-2.6-12.1-3.9-19.5-3.9c-7.4,0-13.9,1.3-19.5,3.9
		c-5.6,2.6-9.9,6.2-13,10.7c-3.1,4.5-4.8,9.7-5.2,15.7C8,39.5,7.9,43.8,7.9,49c0,5.1,0.1,9.3,0.4,12.6c0.7,9.2,4.3,16.6,10.7,22.2
		c6.4,5.6,15.4,8.4,27,8.5c11.6-0.1,20.6-2.9,27-8.5c6.4-5.6,10-13,10.7-22.2C83.9,58.3,84,54.1,84,49c0-5.2-0.1-9.5-0.4-12.8
		C83.2,30.2,81.5,25,78.4,20.5z M52.4,61c-0.3,5.2-2.5,7.8-6.5,7.8s-6.2-2.6-6.5-7.8c-0.2-4.6-0.2-8.7-0.2-12.1
		c0-3.7,0.1-7.7,0.2-12c0.3-5.1,2.5-7.7,6.5-7.8c4,0.1,6.2,2.7,6.5,7.8c0.2,2.2,0.2,6.2,0.2,12C52.7,54.6,52.6,58.6,52.4,61z
		 M155.7,40.1v-0.4l14-9.4c0.6-0.5,1.2-1.1,1.7-2c0.5-0.8,0.7-1.8,0.7-2.8V10.3c0-0.9-0.3-1.6-1-2.3c-0.6-0.6-1.4-1-2.3-1h-61.4
		c-0.9,0-1.6,0.3-2.3,1c-0.6,0.6-1,1.4-1,2.3v16.9c0,0.9,0.3,1.6,1,2.3c0.6,0.6,1.4,1,2.3,1h31.6l-16.7,9.1c-0.6,0.4-1.2,1-1.7,1.9
		c-0.5,0.8-0.7,1.8-0.7,2.9v9.7c0,0.9,0.3,1.6,1,2.3c0.6,0.6,1.4,1,2.3,1h15c5.3,0,7.9,1.8,7.9,5.3c0,1.8-0.7,3.4-2,4.6
		c-1.3,1.2-3.3,1.8-5.9,1.8c-2.3,0-4.1-0.2-5.3-0.6c-1.2-0.4-2.2-1-3-1.8c-0.6-0.6-1.2-1.1-1.8-1.4c-0.6-0.3-1.3-0.5-2.3-0.5h-24.1
		c-0.7,0-1.3,0.3-1.9,0.8c-0.5,0.5-0.8,1.1-0.8,1.9c0.2,3.6,1.6,7.3,4.2,11.2s6.9,7.1,12.7,9.8c5.8,2.7,13.2,4,22.1,4
		c7.5,0,14.3-1.1,20.2-3.4c6-2.3,10.6-5.5,14-9.7c3.4-4.2,5-9,5-14.4C177.3,51.8,170.1,43.5,155.7,40.1z"/>
	<path class="st0" d="M71.4,15.5c-3.1-4.5-7.4-8.1-13-10.7c-5.6-2.6-12.1-3.9-19.5-3.9c-7.4,0-13.9,1.3-19.5,3.9
		c-5.6,2.6-9.9,6.2-13,10.7C3.4,20,1.7,25.2,1.3,31.1C1,34.5,0.9,38.8,0.9,44c0,5.1,0.1,9.3,0.4,12.6C2,65.8,5.5,73.2,11.9,78.8
		c6.4,5.6,15.4,8.4,27,8.5c11.6-0.1,20.6-2.9,27-8.5c6.4-5.6,10-13,10.7-22.2C76.9,53.3,77,49.1,77,44c0-5.2-0.1-9.5-0.4-12.8
		C76.2,25.2,74.5,20,71.4,15.5z M45.4,56c-0.3,5.2-2.5,7.8-6.5,7.8s-6.2-2.6-6.5-7.8c-0.2-4.6-0.2-8.7-0.2-12.1
		c0-3.7,0.1-7.7,0.2-12c0.3-5.1,2.5-7.7,6.5-7.8c4,0.1,6.2,2.7,6.5,7.8c0.2,2.2,0.2,6.2,0.2,12C45.7,49.6,45.6,53.6,45.4,56z
		 M148.7,35.1v-0.4l14-9.4c0.6-0.5,1.2-1.1,1.7-2c0.5-0.8,0.7-1.8,0.7-2.8V5.3c0-0.9-0.3-1.6-1-2.3c-0.6-0.6-1.4-1-2.3-1h-61.4
		c-0.9,0-1.6,0.3-2.3,1c-0.6,0.6-1,1.4-1,2.3v16.9c0,0.9,0.3,1.6,1,2.3c0.6,0.6,1.4,1,2.3,1h31.6l-16.7,9.1c-0.6,0.4-1.2,1-1.7,1.9
		c-0.5,0.8-0.7,1.8-0.7,2.9v9.7c0,0.9,0.3,1.6,1,2.3c0.6,0.6,1.4,1,2.3,1h15c5.3,0,7.9,1.8,7.9,5.3c0,1.8-0.7,3.4-2,4.6
		c-1.3,1.2-3.3,1.8-5.9,1.8c-2.3,0-4.1-0.2-5.3-0.6c-1.2-0.4-2.2-1-3-1.8c-0.6-0.6-1.2-1.1-1.8-1.4c-0.6-0.3-1.3-0.5-2.3-0.5H94.7
		c-0.7,0-1.3,0.3-1.9,0.8c-0.5,0.5-0.8,1.1-0.8,1.9c0.2,3.6,1.6,7.3,4.2,11.2s6.9,7.1,12.7,9.8c5.8,2.7,13.2,4,22.1,4
		c7.5,0,14.3-1.1,20.2-3.4c6-2.3,10.6-5.5,14-9.7c3.4-4.2,5-9,5-14.4C170.3,46.8,163.1,38.5,148.7,35.1z"/>
</g>
</svg>
