<?xml version="1.0" encoding="utf-8"?>
<!-- Generator: Adobe Illustrator 21.0.0, SVG Export Plug-In . SVG Version: 6.00 Build 0)  -->
<svg version="1.1" id="Слой_1" xmlns="http://www.w3.org/2000/svg" xmlns:xlink="http://www.w3.org/1999/xlink" x="0px" y="0px"
	 viewBox="0 0 157.5 93.2" style="enable-background:new 0 0 157.5 93.2;" xml:space="preserve">
<style type="text/css">
	.st0{fill:#F9F9F9;stroke:#ECECEC;stroke-miterlimit:10;}
</style>
<path class="st0" d="M78.3,20.4c-3.1-4.5-7.4-8.1-13-10.7c-5.6-2.6-12.1-3.9-19.5-3.9c-7.4,0-13.9,1.3-19.5,3.9
	c-5.6,2.6-9.9,6.2-13,10.7c-3.1,4.5-4.8,9.7-5.2,15.7C8,39.4,7.8,43.7,7.8,48.9c0,5.1,0.1,9.3,0.4,12.6c0.7,9.2,4.3,16.6,10.7,22.2
	c6.4,5.6,15.4,8.4,27,8.5c11.6-0.1,20.6-2.9,27-8.5c6.4-5.6,10-13,10.7-22.2c0.2-3.3,0.4-7.5,0.4-12.6c0-5.2-0.1-9.5-0.4-12.8
	C83.2,30.2,81.4,24.9,78.3,20.4z M52.4,60.9c-0.3,5.2-2.5,7.8-6.5,7.8s-6.2-2.6-6.5-7.8c-0.2-4.6-0.2-8.7-0.2-12.1
	c0-3.7,0.1-7.7,0.2-12c0.3-5.1,2.5-7.7,6.5-7.8c4,0.1,6.2,2.7,6.5,7.8c0.2,2.2,0.2,6.2,0.2,12C52.6,54.6,52.5,58.6,52.4,60.9z
	 M155.4,8c-0.6-0.6-1.4-1-2.3-1h-22.7c-1,0-1.8,0.3-2.6,0.8L98.9,30.3c-0.5,0.3-0.9,0.7-1.1,1.3c-0.3,0.5-0.4,1.1-0.4,1.6
	c0,0.4,0.2,1,0.5,1.8l10.6,13.7c0.8,1,1.7,1.6,2.8,1.6c0.7,0,1.3-0.2,1.8-0.6l13.4-10.3v48.5c0,0.9,0.3,1.6,1,2.3
	c0.6,0.6,1.4,1,2.3,1h23.5c0.9,0,1.6-0.3,2.3-1c0.6-0.6,1-1.4,1-2.3V10.3C156.4,9.4,156.1,8.6,155.4,8z"/>
<path class="st0" d="M71.3,15.4c-3.1-4.5-7.4-8.1-13-10.7c-5.6-2.6-12.1-3.9-19.5-3.9c-7.4,0-13.9,1.3-19.5,3.9
	c-5.6,2.6-9.9,6.2-13,10.7c-3.1,4.5-4.8,9.7-5.2,15.7C1,34.4,0.8,38.7,0.8,43.9c0,5.1,0.1,9.3,0.4,12.6c0.7,9.2,4.3,16.6,10.7,22.2
	c6.4,5.6,15.4,8.4,27,8.5c11.6-0.1,20.6-2.9,27-8.5c6.4-5.6,10-13,10.7-22.2c0.2-3.3,0.4-7.5,0.4-12.6c0-5.2-0.1-9.5-0.4-12.8
	C76.2,25.2,74.4,19.9,71.3,15.4z M45.4,55.9c-0.3,5.2-2.5,7.8-6.5,7.8s-6.2-2.6-6.5-7.8c-0.2-4.6-0.2-8.7-0.2-12.1
	c0-3.7,0.1-7.7,0.2-12c0.3-5.1,2.5-7.7,6.5-7.8c4,0.1,6.2,2.7,6.5,7.8c0.2,2.2,0.2,6.2,0.2,12C45.6,49.6,45.5,53.6,45.4,55.9z
	 M148.4,3c-0.6-0.6-1.4-1-2.3-1h-22.7c-1,0-1.8,0.3-2.6,0.8L91.9,25.3c-0.5,0.3-0.9,0.7-1.1,1.3c-0.3,0.5-0.4,1.1-0.4,1.6
	c0,0.4,0.2,1,0.5,1.8l10.6,13.7c0.8,1,1.7,1.6,2.8,1.6c0.7,0,1.3-0.2,1.8-0.6l13.4-10.3v48.5c0,0.9,0.3,1.6,1,2.3
	c0.6,0.6,1.4,1,2.3,1h23.5c0.9,0,1.6-0.3,2.3-1c0.6-0.6,1-1.4,1-2.3V5.3C149.4,4.4,149.1,3.6,148.4,3z"/>
</svg>
