<?xml version="1.0" encoding="utf-8"?>
<!-- Generator: Adobe Illustrator 21.0.0, SVG Export Plug-In . SVG Version: 6.00 Build 0)  -->
<svg version="1.1" id="Слой_1" xmlns="http://www.w3.org/2000/svg" xmlns:xlink="http://www.w3.org/1999/xlink" x="0px" y="0px"
	 viewBox="0 0 176.8 93.2" style="enable-background:new 0 0 176.8 93.2;" xml:space="preserve">
<style type="text/css">
	.st0{fill:#F9F9F9;stroke:#ECECEC;stroke-miterlimit:10;}
</style>
<g>
	<path class="st0" d="M78.2,20.7c-3.1-4.5-7.4-8.1-13-10.7c-5.6-2.6-12.1-3.9-19.5-3.9c-7.4,0-13.9,1.3-19.5,3.9
		c-5.6,2.6-9.9,6.2-13,10.7c-3.1,4.5-4.8,9.7-5.2,15.7C7.8,39.7,7.7,44,7.7,49.2c0,5.1,0.1,9.3,0.4,12.6C8.7,71,12.3,78.4,18.7,84
		c6.4,5.6,15.4,8.4,27,8.5c11.6-0.1,20.6-2.9,27-8.5c6.4-5.6,10-13,10.7-22.2c0.2-3.3,0.4-7.5,0.4-12.6c0-5.2-0.1-9.5-0.4-12.8
		C83,30.4,81.2,25.2,78.2,20.7z M52.2,61.2c-0.3,5.2-2.5,7.8-6.5,7.8s-6.2-2.6-6.5-7.8c-0.2-4.6-0.2-8.7-0.2-12.1
		c0-3.7,0.1-7.7,0.2-12c0.3-5.1,2.5-7.7,6.5-7.8c4,0.1,6.2,2.7,6.5,7.8c0.2,2.2,0.2,6.2,0.2,12C52.4,54.8,52.3,58.9,52.2,61.2z
		 M174.9,67.6c-0.6-0.6-1.4-1-2.3-1h-25.3l0.8-0.6c8.7-6,15.2-11.5,19.5-16.6c4.3-5.1,6.4-10.7,6.4-16.9c0-8.4-3.2-15-9.7-19.7
		C158,8,149.3,5.6,138.2,5.6c-6.9,0-13.1,1.2-18.5,3.7c-5.5,2.5-9.8,6-13,10.5c-3.2,4.5-4.8,9.7-4.9,15.7c0,0.7,0.3,1.3,0.8,1.9
		c0.5,0.5,1.1,0.8,1.9,0.8h22.6c1.2,0,2.2-0.2,3-0.6c0.8-0.4,1.4-1.1,1.8-2.2c0.6-1.4,1-2.5,1.3-3.1c0.3-0.6,0.9-1.3,1.7-2
		c0.9-0.7,2.1-1,3.6-1c1.8,0,3,0.4,3.5,1.3c0.5,0.8,0.8,2,0.8,3.5c0,2.1-1.2,4.5-3.6,7.1c-2.4,2.7-5.7,5.7-10,9
		c-4.3,3.3-10.9,8.2-19.9,14.7l-4.6,3.2l-1.3,1c-2,1.4-3,3.6-3,6.5v12.5c0,0.9,0.3,1.6,1,2.3c0.6,0.6,1.4,1,2.3,1h69.1
		c0.9,0,1.6-0.3,2.3-1c0.6-0.6,1-1.4,1-2.3V69.8C175.9,69,175.6,68.2,174.9,67.6z"/>
	<path class="st0" d="M71.2,15.7c-3.1-4.5-7.4-8.1-13-10.7c-5.6-2.6-12.1-3.9-19.5-3.9c-7.4,0-13.9,1.3-19.5,3.9
		c-5.6,2.6-9.9,6.2-13,10.7C3.2,20.2,1.4,25.4,1,31.4C0.8,34.7,0.7,39,0.7,44.2c0,5.1,0.1,9.3,0.4,12.6C1.7,66,5.3,73.4,11.7,79
		c6.4,5.6,15.4,8.4,27,8.5c11.6-0.1,20.6-2.9,27-8.5c6.4-5.6,10-13,10.7-22.2c0.2-3.3,0.4-7.5,0.4-12.6c0-5.2-0.1-9.5-0.4-12.8
		C76,25.4,74.2,20.2,71.2,15.7z M45.2,56.2c-0.3,5.2-2.5,7.8-6.5,7.8s-6.2-2.6-6.5-7.8c-0.2-4.6-0.2-8.7-0.2-12.1
		c0-3.7,0.1-7.7,0.2-12c0.3-5.1,2.5-7.7,6.5-7.8c4,0.1,6.2,2.7,6.5,7.8c0.2,2.2,0.2,6.2,0.2,12C45.4,49.8,45.3,53.9,45.2,56.2z
		 M167.9,62.6c-0.6-0.6-1.4-1-2.3-1h-25.3l0.8-0.6c8.7-6,15.2-11.5,19.5-16.6c4.3-5.1,6.4-10.7,6.4-16.9c0-8.4-3.2-15-9.7-19.7
		C151,3,142.3,0.6,131.2,0.6c-6.9,0-13.1,1.2-18.5,3.7c-5.5,2.5-9.8,6-13,10.5c-3.2,4.5-4.8,9.7-4.9,15.7c0,0.7,0.3,1.3,0.8,1.9
		c0.5,0.5,1.1,0.8,1.9,0.8h22.6c1.2,0,2.2-0.2,3-0.6c0.8-0.4,1.4-1.1,1.8-2.2c0.6-1.4,1-2.5,1.3-3.1c0.3-0.6,0.9-1.3,1.7-2
		c0.9-0.7,2.1-1,3.6-1c1.8,0,3,0.4,3.5,1.3c0.5,0.8,0.8,2,0.8,3.5c0,2.1-1.2,4.5-3.6,7.1c-2.4,2.7-5.7,5.7-10,9
		c-4.3,3.3-10.9,8.2-19.9,14.7l-4.6,3.2l-1.3,1c-2,1.4-3,3.6-3,6.5v12.5c0,0.9,0.3,1.6,1,2.3c0.6,0.6,1.4,1,2.3,1h69.1
		c0.9,0,1.6-0.3,2.3-1c0.6-0.6,1-1.4,1-2.3V64.8C168.9,64,168.6,63.2,167.9,62.6z"/>
</g>
</svg>
