<?xml version="1.0" encoding="utf-8"?>
<!-- Generator: Adobe Illustrator 21.0.0, SVG Export Plug-In . SVG Version: 6.00 Build 0)  -->
<svg version="1.1" id="icon-arrow-white" xmlns="http://www.w3.org/2000/svg" xmlns:xlink="http://www.w3.org/1999/xlink" x="0px" y="0px"
	 viewBox="0 0 98.8 145.9" style="enable-background:new 0 0 98.8 145.9;" xml:space="preserve">
<path d="M86.3,49.9c-2.2-1.4-5.2-1.1-6.7,1c-1.7,2.3-1,5.4,1.3,6.9c5.2,3.3,8.4,8.9,8.4,15.1c0,6.2-3.1,11.8-8.4,15.1L2.2,137.1
	c0,0-0.1,0-0.1,0.1c0,0,0,0-0.1,0v0c-1.2,0.9-2,2.3-2,3.9c0,2.7,2.2,4.8,4.8,4.8c0.5,0,0.9-0.1,1.3-0.2c0.4-0.1,0.7-0.2,1-0.4
	c0,0,0,0,0,0l0.1-0.1c0.1,0,0.1-0.1,0.2-0.1l78.4-48.9c8.1-5,12.9-13.7,12.9-23.2C98.8,63.6,94.1,55,86.3,49.9z M2,8.7L2,8.7
	C2.1,8.8,2.1,8.8,2,8.7L48,37.4c2.3,1.4,5.2,0.7,6.6-1.5c1.4-2.2,0.7-5.2-1.5-6.6L7.5,0.8c0,0-0.1,0-0.1-0.1L7.2,0.6c0,0,0,0,0,0
	C6.8,0.4,6.4,0.3,6.1,0.2C5.7,0.1,5.2,0,4.8,0C2.2,0,0,2.1,0,4.8C0,6.4,0.8,7.8,2,8.7z"/>
</svg>
