<?xml version="1.0" encoding="utf-8"?>
<!-- Generator: Adobe Illustrator 21.0.0, SVG Export Plug-In . SVG Version: 6.00 Build 0)  -->
<svg version="1.1" id="linkedin" xmlns="http://www.w3.org/2000/svg" xmlns:xlink="http://www.w3.org/1999/xlink" x="0px" y="0px"
	 viewBox="0 0 27 27" style="enable-background:new 0 0 27 27;" xml:space="preserve">
<g>
	<path d="M1,5.5C0.3,4.9,0,4.1,0,3.3S0.3,1.6,1,1c0.6-0.6,1.4-1,2.3-1s1.6,0.3,2.3,1c0.6,0.6,1,1.4,1,2.3s-0.3,1.6-1,2.3
		s-1.4,1-2.3,1S1.6,6.2,1,5.5z M0.4,27V9H6v18H0.4z M21.4,27v-8.8c0-1.4-0.1-2.5-0.4-3.1c-0.4-1.1-1.3-1.6-2.6-1.6
		c-1.3,0-2.2,0.5-2.7,1.4c-0.4,0.7-0.6,1.8-0.6,3.2V27H9.6V9h5.4v2.5H15c0.4-0.8,1-1.5,1.9-2c1-0.6,2.1-1,3.4-1
		c2.6,0,4.4,0.8,5.5,2.5c0.8,1.3,1.2,3.4,1.2,6.1V27H21.4z"/>
</g>
</svg>
