<?xml version="1.0" encoding="utf-8"?>
<!-- Generator: Adobe Illustrator 21.0.0, SVG Export Plug-In . SVG Version: 6.00 Build 0)  -->
<svg version="1.1" id="medium" xmlns="http://www.w3.org/2000/svg" xmlns:xlink="http://www.w3.org/1999/xlink" x="0px" y="0px"
	 viewBox="0 0 22.7 18" style="enable-background:new 0 0 22.7 18;" xml:space="preserve">
<g>
	<path class="st0" d="M2.4,2.9L0.3,0.4V0h6.6L12,11.2L16.4,0h6.3v0.4l-1.8,1.7c-0.2,0.1-0.2,0.3-0.2,0.5v12.8c0,0.2,0,0.4,0.2,0.5
		l1.8,1.7V18h-8.9v-0.4l1.8-1.8c0.1-0.1,0.1-0.2,0.2-0.2s0-0.1,0-0.3V5L10.7,18H10L4,5v8.7c0,0.4,0.1,0.7,0.3,1l2.4,2.9V18H0v-0.4
		l2.4-2.9c0.3-0.3,0.4-0.6,0.3-1v-10C2.7,3.4,2.6,3.1,2.4,2.9z"/>
</g>
</svg>
