<?xml version="1.0" encoding="utf-8"?>
<!-- Generator: Adobe Illustrator 21.0.0, SVG Export Plug-In . SVG Version: 6.00 Build 0)  -->
<svg version="1.1" id="Слой_1" xmlns="http://www.w3.org/2000/svg" xmlns:xlink="http://www.w3.org/1999/xlink" x="0px" y="0px"
	 viewBox="0 0 242.4 43.4" style="enable-background:new 0 0 242.4 43.4;" xml:space="preserve">
<style type="text/css">
	.st0{fill:#FFFFFF;}
	.st1{fill:url(#SVGID_1_);}
	.st2{fill:url(#SVGID_2_);}
	.st3{fill:url(#SVGID_3_);}
</style>
<g>
	<g>
		<g>
			<path class="st0" d="M75.5,9.6c0,0.7-0.1,1.3-0.2,2l-0.1,0.8c-0.3,1.8-0.9,3.4-1.7,4.6c-0.8,1.3-1.7,2.3-3,3.1
				c-1.2,0.8-2.6,1.4-4.2,1.7c-1.6,0.4-3.4,0.5-5.5,0.5c-0.9,0-1.8,0-2.8,0c-0.9,0-1.7-0.1-2.4-0.1l-2.5,13.9
				c-0.1,0.2-0.2,0.5-0.3,0.6c-0.2,0.2-0.4,0.3-0.6,0.3h-0.5c-0.2,0-0.4-0.1-0.5-0.2c-0.1-0.1-0.2-0.3-0.2-0.5v-0.1v0L57,3.2
				C57,3,57.2,2.8,57.3,2.6c0.2-0.2,0.4-0.3,0.6-0.3c0.8-0.1,1.8-0.1,3-0.2c1.2,0,2.3-0.1,3.3-0.1c3.6,0,6.3,0.6,8.3,1.8
				C74.5,5.2,75.5,7,75.5,9.6z M73.4,9.6c0-2.2-0.8-3.7-2.4-4.5c-1.6-0.8-4-1.2-7.1-1.2c-1,0-1.9,0-2.8,0c-0.9,0-1.6,0.1-2.3,0.1
				L56,20.3c0.7,0.1,1.5,0.1,2.4,0.1c0.9,0,1.8,0,2.6,0c3.6,0,6.4-0.6,8.3-1.9c2-1.3,3.2-3.4,3.8-6.3l0.1-0.8
				C73.4,10.9,73.4,10.3,73.4,9.6z"/>
			<path class="st0" d="M88.6,12.4l0,0.4c-0.1,0.3-0.2,0.5-0.4,0.6c-0.2,0.1-0.5,0.1-0.8,0.1c-0.9,0-1.9,0.1-2.9,0.4
				c-1,0.3-2.3,0.9-3.8,1.7L77,36.1c-0.1,0.2-0.2,0.5-0.4,0.6C76.4,36.9,76.2,37,76,37h-0.3c-0.5,0-0.7-0.2-0.7-0.7v-0.1L79,12.9
				c0.1-0.2,0.2-0.5,0.4-0.7c0.2-0.2,0.4-0.3,0.7-0.3h0.4c0.5,0,0.7,0.2,0.7,0.7c0,0.1,0,0.1,0,0.1c0,0,0,0.1,0,0.1l-0.2,1
				c1.3-0.8,2.4-1.3,3.4-1.7c1-0.3,2.1-0.5,3.2-0.5c0.3,0,0.6,0,0.8,0.1c0.2,0.1,0.3,0.2,0.3,0.5V12.4z"/>
			<path class="st0" d="M108,19.6c0,1-0.1,2.1-0.3,3.2l-0.2,1.3c-0.1,0.2-0.2,0.5-0.4,0.6c-0.2,0.2-0.5,0.3-0.7,0.3H90.7l-0.1,1
				c-0.1,0.6-0.1,1.1-0.2,1.6c-0.1,0.5-0.1,1-0.1,1.4c0,1.3,0.2,2.3,0.5,3.1c0.3,0.8,0.8,1.5,1.4,2c0.6,0.5,1.3,0.8,2.2,1
				c0.9,0.2,1.8,0.3,2.9,0.3c1,0,2.2-0.1,3.4-0.2c1.3-0.1,2.5-0.3,3.7-0.6c0.1,0,0.2,0,0.4,0c0.4,0,0.6,0.1,0.6,0.4
				c0,0.2,0,0.3,0,0.3l-0.1,0.3c-0.1,0.4-0.2,0.6-0.4,0.6c-0.1,0.1-0.4,0.2-0.7,0.2c-1.2,0.3-2.4,0.5-3.7,0.6
				c-1.3,0.1-2.4,0.2-3.5,0.2c-1.3,0-2.4-0.2-3.5-0.5c-1.1-0.3-2-0.8-2.8-1.4c-0.8-0.7-1.4-1.5-1.8-2.5c-0.4-1-0.6-2.3-0.6-3.8
				c0-0.5,0-1,0-1.5c0-0.5,0.1-1.1,0.2-1.6l0.5-3.1c0.6-3.7,1.9-6.4,3.8-8.3c1.9-1.9,4.5-2.8,7.6-2.8c1.3,0,2.5,0.2,3.5,0.6
				c1,0.4,1.8,0.9,2.4,1.6c0.6,0.7,1.1,1.5,1.4,2.5S108,18.5,108,19.6z M106,19.5c0-1.9-0.5-3.4-1.4-4.5c-0.9-1-2.4-1.5-4.6-1.5
				c-1.3,0-2.4,0.2-3.4,0.7c-1,0.4-1.8,1.1-2.6,1.9c-0.7,0.8-1.3,1.8-1.8,2.9c-0.5,1.1-0.9,2.4-1.2,3.9l0,0.2h14.6l0-0.3
				c0.1-0.6,0.2-1.2,0.2-1.7C105.9,20.5,106,20,106,19.5z"/>
			<path class="st0" d="M128.3,12.9l0,0.4c0,0.3-0.1,0.5-0.2,0.5c-0.1,0.1-0.3,0.1-0.5,0.1c0,0-0.1,0-0.2,0c-0.1,0-0.2,0-0.2,0
				c-0.3,0-0.7-0.1-1.1-0.1c-0.5,0-1-0.1-1.6-0.1c-0.6,0-1.2-0.1-1.8-0.1c-0.6,0-1.3,0-1.8,0c-1.9,0-3.4,0.3-4.5,0.9
				c-1.1,0.6-1.6,1.8-1.6,3.5c0,0.8,0.3,1.6,1,2.2c0.7,0.7,1.6,1.4,2.8,2.1l2.8,1.7c0.9,0.6,1.7,1.1,2.3,1.6
				c0.6,0.5,1.1,0.9,1.5,1.4c0.4,0.5,0.6,0.9,0.8,1.4c0.2,0.5,0.2,1,0.2,1.6c0,1.4-0.3,2.5-0.8,3.5c-0.5,0.9-1.2,1.7-2.1,2.2
				s-1.8,1-3,1.2s-2.3,0.4-3.5,0.4c-0.5,0-1,0-1.7,0c-0.6,0-1.2-0.1-1.8-0.1c-0.6-0.1-1.2-0.1-1.7-0.2c-0.6-0.1-1-0.2-1.4-0.3
				c-0.2-0.1-0.4-0.1-0.6-0.2c-0.2-0.1-0.3-0.2-0.3-0.5v-0.1l0.1-0.5c0.1-0.2,0.1-0.4,0.2-0.5c0.1-0.1,0.2-0.1,0.4-0.1
				c0.2,0,0.3,0,0.4,0c1.3,0.2,2.5,0.3,3.8,0.4c1.2,0.1,2.3,0.2,3.1,0.2c2.1,0,3.7-0.4,4.9-1.2c1.2-0.8,1.9-2.2,1.9-4.2
				c0-0.8-0.3-1.5-0.9-2.1c-0.6-0.6-1.6-1.4-3.2-2.3l-2.7-1.6c-1.3-0.8-2.4-1.7-3.3-2.6c-0.9-0.9-1.3-2.1-1.3-3.3
				c0-1.2,0.2-2.2,0.7-3c0.5-0.8,1-1.5,1.8-2c0.7-0.5,1.6-0.8,2.6-1c1-0.2,2-0.3,3.1-0.3c1.7,0,3,0,4,0.1c1,0.1,1.9,0.2,2.7,0.3
				c0.2,0,0.4,0.1,0.6,0.2C128.2,12.4,128.3,12.6,128.3,12.9L128.3,12.9z"/>
			<path class="st0" d="M150.6,13.1c0,0.1,0,0.1,0,0.2c0,0,0,0.1,0,0.2l-4,22.6c-0.1,0.2-0.2,0.5-0.4,0.7c-0.2,0.2-0.4,0.3-0.7,0.3
				h-0.4c-0.5,0-0.7-0.2-0.7-0.7c0,0,0-0.1,0-0.1c0,0,0-0.1,0-0.1l0.3-1.5c-1.2,0.7-2.5,1.3-3.9,1.9c-1.4,0.6-2.7,0.9-4.1,0.9
				c-1,0-1.9-0.1-2.7-0.4c-0.8-0.3-1.5-0.7-2.1-1.2s-1.1-1.3-1.4-2.1c-0.3-0.8-0.5-1.8-0.5-3c0-0.6,0.1-1.4,0.2-2.2l0.9-5.3
				c0.4-2,0.9-3.7,1.4-5.2c0.6-1.4,1.3-2.6,2.2-3.5c0.9-0.9,2-1.6,3.2-2c1.2-0.4,2.7-0.6,4.3-0.6c1.3,0,2.7,0.1,4.1,0.3
				c1.4,0.2,2.6,0.4,3.6,0.6C150.4,12.7,150.6,12.9,150.6,13.1z M148.4,14.1c-0.8-0.2-1.8-0.3-2.9-0.4c-1.2-0.1-2.3-0.2-3.4-0.2
				c-2.6,0-4.6,0.8-5.9,2.5c-1.4,1.6-2.3,4-2.8,7l-0.9,5.3c-0.2,0.9-0.2,1.6-0.2,2.2c0,1,0.1,1.9,0.4,2.5c0.3,0.6,0.7,1.1,1.1,1.5
				c0.5,0.4,1,0.6,1.7,0.7c0.6,0.1,1.3,0.2,2,0.2c1.2,0,2.4-0.3,3.6-0.8c1.2-0.5,2.6-1.2,4.3-2.1L148.4,14.1z"/>
			<path class="st0" d="M161,3.2l-5.8,32.9c-0.1,0.2-0.2,0.5-0.3,0.6c-0.2,0.2-0.4,0.3-0.6,0.3h-0.5c-0.2,0-0.4-0.1-0.5-0.2
				c-0.1-0.1-0.2-0.3-0.2-0.5v-0.2l5.8-32.9c0.1-0.2,0.2-0.5,0.3-0.6c0.2-0.2,0.4-0.3,0.6-0.3h0.5c0.2,0,0.4,0.1,0.5,0.2
				c0.1,0.1,0.2,0.3,0.2,0.5V3.2z"/>
			<path class="st0" d="M182.2,19.6c0,1-0.1,2.1-0.3,3.2l-0.2,1.3c-0.1,0.2-0.2,0.5-0.4,0.6c-0.2,0.2-0.5,0.3-0.7,0.3h-15.7l-0.1,1
				c-0.1,0.6-0.1,1.1-0.2,1.6c-0.1,0.5-0.1,1-0.1,1.4c0,1.3,0.2,2.3,0.5,3.1c0.3,0.8,0.8,1.5,1.4,2c0.6,0.5,1.3,0.8,2.2,1
				c0.9,0.2,1.8,0.3,2.9,0.3c1,0,2.2-0.1,3.4-0.2c1.3-0.1,2.5-0.3,3.7-0.6c0.1,0,0.2,0,0.4,0c0.4,0,0.6,0.1,0.6,0.4
				c0,0.2,0,0.3,0,0.3l-0.1,0.3c-0.1,0.4-0.2,0.6-0.4,0.6c-0.1,0.1-0.4,0.2-0.7,0.2c-1.2,0.3-2.4,0.5-3.7,0.6
				c-1.3,0.1-2.4,0.2-3.5,0.2c-1.3,0-2.4-0.2-3.5-0.5c-1.1-0.3-2-0.8-2.8-1.4c-0.8-0.7-1.4-1.5-1.8-2.5c-0.4-1-0.6-2.3-0.6-3.8
				c0-0.5,0-1,0-1.5c0-0.5,0.1-1.1,0.2-1.6l0.5-3.1c0.6-3.7,1.9-6.4,3.8-8.3c1.9-1.9,4.5-2.8,7.6-2.8c1.3,0,2.5,0.2,3.5,0.6
				c1,0.4,1.8,0.9,2.4,1.6c0.6,0.7,1.1,1.5,1.4,2.5S182.2,18.5,182.2,19.6z M180.1,19.5c0-1.9-0.5-3.4-1.4-4.5
				c-0.9-1-2.4-1.5-4.6-1.5c-1.3,0-2.4,0.2-3.4,0.7c-1,0.4-1.8,1.1-2.6,1.9c-0.7,0.8-1.3,1.8-1.8,2.9c-0.5,1.1-0.9,2.4-1.2,3.9
				l0,0.2h14.6l0-0.3c0.1-0.6,0.2-1.2,0.2-1.7C180.1,20.5,180.1,20,180.1,19.5z"/>
			<path class="st0" d="M209.4,9.6c0,0.7-0.1,1.3-0.2,2l-0.1,0.8c-0.3,1.8-0.9,3.4-1.7,4.6c-0.8,1.3-1.7,2.3-3,3.1
				c-1.2,0.8-2.6,1.4-4.2,1.7c-1.6,0.4-3.4,0.5-5.5,0.5c-0.9,0-1.8,0-2.8,0c-0.9,0-1.7-0.1-2.4-0.1l-2.5,13.9
				c-0.1,0.2-0.2,0.5-0.3,0.6c-0.2,0.2-0.4,0.3-0.6,0.3h-0.5c-0.2,0-0.4-0.1-0.5-0.2c-0.1-0.1-0.2-0.3-0.2-0.5v-0.1v0l5.8-32.9
				c0.1-0.2,0.2-0.4,0.3-0.6c0.2-0.2,0.4-0.3,0.6-0.3c0.8-0.1,1.8-0.1,3-0.2c1.2,0,2.3-0.1,3.3-0.1c3.6,0,6.3,0.6,8.3,1.8
				C208.4,5.2,209.4,7,209.4,9.6z M207.4,9.6c0-2.2-0.8-3.7-2.4-4.5c-1.6-0.8-4-1.2-7.1-1.2c-1,0-1.9,0-2.8,0
				c-0.9,0-1.6,0.1-2.3,0.1l-2.8,16.3c0.7,0.1,1.5,0.1,2.4,0.1c0.9,0,1.8,0,2.6,0c3.6,0,6.4-0.6,8.3-1.9c2-1.3,3.2-3.4,3.8-6.3
				l0.1-0.8C207.3,10.9,207.4,10.3,207.4,9.6z"/>
			<path class="st0" d="M222.5,12.4l0,0.4c-0.1,0.3-0.2,0.5-0.4,0.6c-0.2,0.1-0.5,0.1-0.8,0.1c-0.9,0-1.9,0.1-2.9,0.4
				c-1,0.3-2.3,0.9-3.8,1.7l-3.6,20.4c-0.1,0.2-0.2,0.5-0.4,0.6c-0.2,0.2-0.4,0.3-0.7,0.3h-0.3c-0.5,0-0.7-0.2-0.7-0.7v-0.1
				l4.1-23.2c0.1-0.2,0.2-0.5,0.4-0.7c0.2-0.2,0.4-0.3,0.7-0.3h0.4c0.5,0,0.7,0.2,0.7,0.7c0,0.1,0,0.1,0,0.1c0,0,0,0.1,0,0.1l-0.2,1
				c1.3-0.8,2.4-1.3,3.4-1.7c1-0.3,2.1-0.5,3.2-0.5c0.3,0,0.6,0,0.8,0.1c0.2,0.1,0.3,0.2,0.3,0.5V12.4z"/>
			<path class="st0" d="M242.4,19.8c0,0.9-0.1,2-0.3,3.1l-0.6,3.3c-0.6,3.6-1.9,6.3-3.7,8.3c-1.9,1.9-4.5,2.9-7.9,2.9
				c-2.6,0-4.6-0.7-6-2.2c-1.3-1.4-2-3.4-2-6c0-0.9,0.1-1.9,0.3-3l0.6-3.3c0.6-3.7,1.9-6.4,3.8-8.3c1.9-1.9,4.5-2.8,7.8-2.8
				c2.7,0,4.7,0.7,6,2.1C241.8,15.3,242.4,17.2,242.4,19.8z M240.4,19.6c0-2-0.5-3.5-1.4-4.5c-0.9-1.1-2.5-1.6-4.8-1.6
				c-2.6,0-4.7,0.9-6.2,2.6c-1.5,1.7-2.5,4-3,6.8l-0.6,3.3c-0.1,0.6-0.2,1.2-0.2,1.7c-0.1,0.5-0.1,1-0.1,1.5c0,2,0.5,3.5,1.4,4.5
				c1,1.1,2.6,1.6,4.8,1.6c1.3,0,2.5-0.2,3.6-0.7c1-0.5,1.9-1.1,2.7-1.9c0.7-0.8,1.4-1.8,1.8-2.9c0.5-1.2,0.8-2.4,1.1-3.8l0.6-3.3
				c0.1-0.6,0.2-1.2,0.2-1.7C240.3,20.6,240.4,20.1,240.4,19.6z"/>
		</g>
	</g>
	<g>
		<polygon class="st0" points="0.1,35.7 7.6,43.3 8.7,43.4 9.9,42.7 2.4,35.2 		"/>
		<linearGradient id="SVGID_1_" gradientUnits="userSpaceOnUse" x1="5.801113e-02" y1="39.2854" x2="9.9234" y2="39.2854">
			<stop  offset="0" style="stop-color:#FFFFFF;stop-opacity:0"/>
			<stop  offset="0.1451" style="stop-color:#F8F8F8;stop-opacity:0.1451"/>
			<stop  offset="0.3525" style="stop-color:#E5E5E5;stop-opacity:0.3525"/>
			<stop  offset="0.5972" style="stop-color:#C7C7C7;stop-opacity:0.5972"/>
			<stop  offset="0.8683" style="stop-color:#9C9C9C;stop-opacity:0.8683"/>
			<stop  offset="1" style="stop-color:#858585"/>
		</linearGradient>
		<polygon class="st1" points="0.1,35.7 7.6,43.3 8.7,43.4 9.9,42.7 2.4,35.2 		"/>
		<g>
			<path class="st0" d="M20.4,0H6.8C6.3,0,6.2,0.2,6.1,0.7L5.9,2.2l2.3,0h11.7c5.5,0,8.4,3.3,7.4,8.8c-1,5.5-4.9,8.7-10.5,8.7H5.1
				l-2.3,0L0,35.2c-0.1,0.5,0,0.7,0.5,0.7h1.1c0.5,0,0.7-0.2,0.8-0.7l2.3-13.3h11.9c6.9,0,11.7-3.8,13-10.6C30.9,4.4,27.3,0,20.4,0z
				"/>
		</g>
		<linearGradient id="SVGID_2_" gradientUnits="userSpaceOnUse" x1="23.6441" y1="0.7169" x2="23.1536" y2="17.8835">
			<stop  offset="0" style="stop-color:#FFFFFF;stop-opacity:0"/>
			<stop  offset="7.372274e-02" style="stop-color:#E2E2E2;stop-opacity:0.1582"/>
			<stop  offset="0.1938" style="stop-color:#BABABA;stop-opacity:0.4158"/>
			<stop  offset="0.3033" style="stop-color:#9D9D9D;stop-opacity:0.6509"/>
			<stop  offset="0.3977" style="stop-color:#8B8B8B;stop-opacity:0.8534"/>
			<stop  offset="0.466" style="stop-color:#858585"/>
			<stop  offset="0.5918" style="stop-color:#888888;stop-opacity:0.7644"/>
			<stop  offset="0.6857" style="stop-color:#919191;stop-opacity:0.5885"/>
			<stop  offset="0.7693" style="stop-color:#A1A1A1;stop-opacity:0.4321"/>
			<stop  offset="0.8468" style="stop-color:#B8B8B8;stop-opacity:0.287"/>
			<stop  offset="0.9201" style="stop-color:#D5D5D5;stop-opacity:0.1497"/>
			<stop  offset="0.9894" style="stop-color:#F9F9F9;stop-opacity:1.986361e-02"/>
			<stop  offset="1" style="stop-color:#FFFFFF;stop-opacity:0"/>
		</linearGradient>
		<path class="st2" d="M16.6,21.9c6.9,0,11.7-3.8,13-10.6C30.9,4.4,27.3,0,20.4,0l-0.6,2.2c5.5,0,8.4,3.3,7.4,8.8
			c-1,5.5-4.9,8.7-10.5,8.7L16.6,21.9z"/>
		<g>
			<path class="st0" d="M28,7.6H14.4c-0.5,0-0.7,0.2-0.7,0.7l-0.3,1.5l2.3,0h11.7c5.5,0,8.4,3.3,7.4,8.8c-1,5.5-4.9,8.7-10.5,8.7
				H12.6l-2.3,0L7.6,42.7c-0.1,0.5,0,0.7,0.5,0.7h1.1c0.5,0,0.7-0.2,0.8-0.7l2.3-13.3h11.9c6.9,0,11.7-3.8,13-10.6
				C38.4,12,34.8,7.6,28,7.6z"/>
		</g>
		<linearGradient id="SVGID_3_" gradientUnits="userSpaceOnUse" x1="23.9654" y1="-1.6475" x2="6.5841" y2="2.7902">
			<stop  offset="0" style="stop-color:#FFFFFF;stop-opacity:0"/>
			<stop  offset="0.1451" style="stop-color:#F8F8F8;stop-opacity:0.1451"/>
			<stop  offset="0.3525" style="stop-color:#E5E5E5;stop-opacity:0.3525"/>
			<stop  offset="0.5972" style="stop-color:#C7C7C7;stop-opacity:0.5972"/>
			<stop  offset="0.8683" style="stop-color:#9C9C9C;stop-opacity:0.8683"/>
			<stop  offset="1" style="stop-color:#858585"/>
		</linearGradient>
		<path class="st3" d="M20.4,0H6.8C6.3,0,6.2,0.2,6.1,0.7L5.9,2.2l2.3,0h11.7"/>
		<path class="st0" d="M9,2.2L9,2.2c0,0-1.4-1.4-1.6-1.6C6.9,0.1,7.2,0,7.2,0L6.8,0C6.3,0,6.2,0.2,6.1,0.7L5.9,2.2l7.6,7.6l1-2.2
			L9,2.2z"/>
	</g>
</g>
</svg>
