<?xml version="1.0" encoding="utf-8"?>
<!-- Generator: Adobe Illustrator 21.0.0, SVG Export Plug-In . SVG Version: 6.00 Build 0)  -->
<svg version="1.1" id="reddit" xmlns="http://www.w3.org/2000/svg" xmlns:xlink="http://www.w3.org/1999/xlink" x="0px" y="0px"
	 viewBox="0 0 19.1 18" style="enable-background:new 0 0 19.1 18;" xml:space="preserve">
<g>
	<path class="st0" d="M16.9,6.9c0.7,0,1.3,0.3,1.7,0.8C19,8.2,19.2,8.8,19,9.4s-0.5,1.1-1.1,1.4c0.1,0.3,0.1,0.6,0.1,1
		c0,1.1-0.4,2.1-1.1,3.1c-0.8,0.9-1.8,1.7-3.1,2.2S11.1,18,9.6,18s-3-0.3-4.2-0.8S3,15.9,2.3,15C1.5,14,1.1,13,1.1,11.9
		c0-0.3,0-0.7,0.1-1C0.6,10.6,0.2,10.1,0,9.4s0-1.2,0.4-1.8s1-0.8,1.7-0.8c0.6,0,1.1,0.2,1.5,0.6C5.2,6.5,7,5.9,9.1,5.8l1.2-5.5
		c0-0.1,0.1-0.2,0.2-0.2S10.7,0,10.8,0l3.9,0.9c0.1-0.3,0.3-0.5,0.6-0.6C15.6,0.1,15.8,0,16.1,0c0.5,0,0.8,0.2,1.1,0.5
		c0.3,0.3,0.5,0.7,0.5,1.1s-0.2,0.8-0.5,1.1C17,3,16.6,3.2,16.1,3.2c-0.4,0-0.8-0.2-1.1-0.5S14.6,2,14.6,1.6L11,0.8l-1.1,5
		c1.1,0,2.1,0.2,3,0.5s1.8,0.7,2.5,1.2C15.8,7.1,16.3,6.9,16.9,6.9z M4.4,11.1c0,0.4,0.2,0.8,0.5,1.1c0.3,0.3,0.7,0.5,1.1,0.5
		c0.4,0,0.8-0.2,1.1-0.5c0.3-0.3,0.5-0.7,0.5-1.1c0-0.4-0.2-0.8-0.5-1.1C6.8,9.7,6.5,9.5,6,9.5c-0.4,0-0.8,0.2-1.1,0.5
		S4.4,10.7,4.4,11.1z M13.1,14.9c0.1-0.1,0.1-0.1,0.1-0.2c0-0.1,0-0.2-0.1-0.3s-0.2-0.1-0.3-0.1s-0.2,0-0.3,0.1
		c-0.4,0.4-1,0.6-1.8,0.8c-0.8,0.1-1.6,0.1-2.4,0c-0.8-0.1-1.4-0.4-1.8-0.7c-0.1-0.1-0.1-0.1-0.2-0.1c-0.1,0-0.2,0-0.3,0.1
		s-0.1,0.2-0.1,0.3c0,0.1,0,0.2,0.1,0.2c0.5,0.5,1.2,0.8,2.1,1c0.9,0.2,1.9,0.2,2.8,0C11.9,15.7,12.6,15.3,13.1,14.9z M13,12.7
		c0.4,0,0.8-0.2,1.1-0.5c0.3-0.3,0.5-0.7,0.5-1.1c0-0.4-0.2-0.8-0.5-1.1S13.5,9.5,13,9.5s-0.8,0.2-1.1,0.5s-0.5,0.7-0.5,1.1
		c0,0.4,0.2,0.8,0.5,1.1C12.2,12.5,12.6,12.7,13,12.7z"/>
</g>
</svg>
