<?xml version="1.0" encoding="utf-8"?>
<!-- Generator: Adobe Illustrator 21.0.0, SVG Export Plug-In . SVG Version: 6.00 Build 0)  -->
<svg version="1.1" id="telegram" xmlns="http://www.w3.org/2000/svg" xmlns:xlink="http://www.w3.org/1999/xlink" x="0px" y="0px"
	 viewBox="0 0 21.5 18" style="enable-background:new 0 0 21.5 18;" xml:space="preserve">
<g>
	<path d="M18.1,16.9c-0.1,0.5-0.3,0.9-0.6,1c-0.3,0.1-0.7,0.1-1.1-0.2l-4.9-3.6l-2.4,2.3c-0.2,0.2-0.3,0.3-0.4,0.3
		c-0.2,0.1-0.4,0.1-0.6,0.1l0.4-5l9.1-8.3c0.1-0.1,0.2-0.2,0.1-0.3c0-0.1-0.1-0.1-0.3-0.1S17.1,3.3,17,3.4L5.7,10.5L0.8,9
		C0.2,8.8,0,8.6,0,8.3C0,8,0.4,7.7,1,7.4l19-7.3c0.5-0.2,0.9-0.1,1.1,0.2c0.3,0.3,0.4,0.7,0.2,1.4L18.1,16.9z"/>
</g>
</svg>
