<?xml version="1.0" encoding="utf-8"?>
<!-- Generator: Adobe Illustrator 21.0.0, SVG Export Plug-In . SVG Version: 6.00 Build 0)  -->
<svg version="1.1" id="telegram" xmlns="http://www.w3.org/2000/svg" xmlns:xlink="http://www.w3.org/1999/xlink" x="0px" y="0px"
	 viewBox="0 0 32.1 26.9" style="enable-background:new 0 0 32.1 26.9;" xml:space="preserve">
<g>
	<path d="M27.1,25.3c-0.2,0.8-0.5,1.3-1,1.5c-0.5,0.2-1,0.1-1.7-0.3l-7.4-5.4l-3.6,3.4c-0.2,0.2-0.4,0.4-0.6,0.5
		c-0.2,0.1-0.5,0.2-0.9,0.2l0.6-7.5L26.3,5.4c0.2-0.1,0.2-0.3,0.2-0.4c-0.1-0.1-0.2-0.2-0.4-0.1c-0.2,0-0.4,0.1-0.7,0.2L8.4,15.7
		l-7.3-2.3C0.3,13.2,0,12.8,0,12.4c0-0.5,0.5-0.9,1.5-1.3L29.9,0.1c0.7-0.2,1.3-0.2,1.7,0.2c0.4,0.4,0.5,1.1,0.4,2.1L27.1,25.3z"/>
</g>
</svg>
