<?xml version="1.0" encoding="utf-8"?>
<!-- Generator: Adobe Illustrator 21.0.0, SVG Export Plug-In . SVG Version: 6.00 Build 0)  -->
<svg version="1.1" id="twitter" xmlns="http://www.w3.org/2000/svg" xmlns:xlink="http://www.w3.org/1999/xlink" x="0px" y="0px"
	 viewBox="0 0 33.2 27" style="enable-background:new 0 0 33.2 27;" xml:space="preserve">
<g>
	<path d="M29.9,7.6c0,3.1-0.8,6.1-2.3,9C26,19.7,23.8,22.1,21,24c-3.1,2-6.6,3-10.6,3C6.6,27,3.2,26,0,24C0.5,24,1,24,1.6,24
		c3.2,0,6-1,8.5-2.9c-1.5,0-2.8-0.4-4-1.3c-1.1-0.9-1.9-2-2.4-3.3c0.4,0,0.8,0.1,1.2,0.1c0.6,0,1.2-0.1,1.8-0.2
		c-1.6-0.3-2.9-1.1-3.9-2.4c-1-1.3-1.6-2.7-1.6-4.3V9.5c1,0.6,2,0.9,3.1,0.9C3.5,9.7,2.8,8.9,2.2,7.9c-0.6-1-0.8-2.1-0.8-3.3
		s0.3-2.3,1-3.4C4,3.4,6.1,5,8.5,6.3c2.4,1.3,5.1,1.9,7.8,2.1c-0.1-0.5-0.1-1-0.1-1.6c0-1.2,0.3-2.3,0.9-3.4
		c0.6-1.1,1.4-1.9,2.5-2.5C20.6,0.3,21.8,0,23,0c1,0,1.9,0.2,2.8,0.6C26.6,1,27.3,1.5,28,2.1c1.6-0.3,3-0.8,4.3-1.6
		c-0.5,1.6-1.5,2.9-3,3.8c1.3-0.2,2.6-0.5,3.9-1.1c-1,1.4-2.1,2.6-3.4,3.6C29.8,6.9,29.9,7.2,29.9,7.6z"/>
</g>
</svg>
