<?xml version="1.0" encoding="utf-8"?>
<!-- Generator: Adobe Illustrator 21.0.0, SVG Export Plug-In . SVG Version: 6.00 Build 0)  -->
<svg version="1.1" id="twitter" xmlns="http://www.w3.org/2000/svg" xmlns:xlink="http://www.w3.org/1999/xlink" x="0px" y="0px"
	 viewBox="0 0 22.2 18" style="enable-background:new 0 0 22.2 18;" xml:space="preserve">
<g>
	<path d="M19.9,5.1c0,2.1-0.5,4.1-1.5,6c-1,2-2.5,3.7-4.4,4.9c-2,1.4-4.4,2-7.1,2c-2.5,0-4.9-0.7-7-2c0.3,0,0.7,0,1.1,0
		c2.1,0,4-0.6,5.7-1.9c-1,0-1.9-0.3-2.7-0.9s-1.3-1.3-1.6-2.2c0.3,0,0.6,0,0.8,0c0.4,0,0.8,0,1.2-0.1c-1-0.2-1.9-0.8-2.6-1.6
		c-0.7-0.8-1-1.8-1-2.9V6.3c0.6,0.4,1.3,0.6,2,0.6c-0.6-0.4-1.1-1-1.5-1.6S0.9,3.9,0.9,3.1s0.2-1.6,0.6-2.3c1.1,1.4,2.5,2.5,4.1,3.4
		s3.4,1.3,5.2,1.4c-0.1-0.3-0.1-0.7-0.1-1c0-0.8,0.2-1.6,0.6-2.3c0.4-0.7,1-1.3,1.6-1.7S14.5,0,15.3,0c0.7,0,1.3,0.1,1.8,0.4
		s1.1,0.6,1.5,1c1-0.2,2-0.6,2.9-1.1c-0.3,1.1-1,1.9-2,2.5c0.9-0.1,1.7-0.4,2.6-0.7c-0.6,0.9-1.4,1.7-2.3,2.4
		C19.9,4.6,19.9,4.8,19.9,5.1z"/>
</g>
</svg>
