<?xml version="1.0" encoding="utf-8"?>
<!-- Generator: Adobe Illustrator 21.0.0, SVG Export Plug-In . SVG Version: 6.00 Build 0)  -->
<svg version="1.1" id="Слой_1" xmlns="http://www.w3.org/2000/svg" xmlns:xlink="http://www.w3.org/1999/xlink" x="0px" y="0px"
	 viewBox="0 0 28.2 51.5" style="enable-background:new 0 0 28.2 51.5;" xml:space="preserve">
<style type="text/css">
	.st0{fill:#4664BC;}
</style>
<path class="st0" d="M14.7,51.5c0.2,0,0.3-0.1,0.3-0.1c0,0,0.1-0.1,0.1-0.3v-4.9l0.8-0.1c3.9-0.3,6.9-1.3,9.1-3.1
	c2.1-1.8,3.1-4.1,3.1-7.2c0-1.9-0.4-3.5-1.2-4.7c-0.8-1.2-2.1-2.3-3.8-3.1C21.4,27,18.9,26,15.8,25c-3.2-1-5.6-1.9-7.3-2.7
	c-1.7-0.8-3.1-1.7-4-2.9c-0.9-1.2-1.4-2.6-1.4-4.4c0-2.7,1-4.7,3.1-6.1c1.9-1.3,4.5-1.9,7.7-1.9c3,0,5.6,0.7,7.6,2.1
	c2.1,1.4,3.3,3.3,3.6,5.5c0,0.2,0.1,0.3,0.1,0.3c0.1,0.1,0.2,0.1,0.3,0.1h1.2c0.1,0,0.2,0,0.3-0.1c0.1-0.1,0.1-0.1,0.1-0.2
	c-0.1-1.3-0.5-2.7-1.3-4c-0.8-1.3-2.1-2.5-3.7-3.5c-1.7-1-3.7-1.6-6-1.8l-0.8-0.1v-5c0-0.2-0.1-0.3-0.1-0.3c0,0-0.1-0.1-0.3-0.1
	h-1.1c-0.2,0-0.3,0.1-0.3,0.1c0,0-0.1,0.1-0.1,0.3v4.9l-0.8,0.1C8.8,5.6,6,6.7,4.1,8.5c-1.9,1.8-2.9,3.9-2.9,6.6
	c0,2,0.4,3.6,1.1,4.8C3,21.1,4.2,22.2,5.8,23c1.7,0.9,4,1.9,7,2.8c3.4,1.1,6.1,2,7.8,2.8c1.8,0.8,3.2,1.7,4.2,2.8
	c1,1.1,1.6,2.6,1.6,4.3c0,2.7-1,4.9-3.1,6.4c-2,1.5-5,2.2-8.9,2.2c-3.7,0-6.7-0.8-8.7-2.3c-2.1-1.6-3.3-3.4-3.6-5.6
	c-0.1-0.4-0.2-0.4-0.4-0.4H0.3c-0.1,0-0.2,0-0.3,0.1C0,36.3,0,36.3,0,36.4c0.1,1.5,0.6,3,1.5,4.4c1,1.4,2.4,2.6,4.2,3.5
	c1.9,1,4.1,1.5,6.6,1.7l0.8,0.1v5c0,0.2,0.1,0.3,0.1,0.3c0,0,0.1,0.1,0.3,0.1H14.7z"/>
</svg>
