<?xml version="1.0" encoding="utf-8"?>
<!-- Generator: Adobe Illustrator 21.0.0, SVG Export Plug-In . SVG Version: 6.00 Build 0)  -->
<svg version="1.1" id="Слой_1" xmlns="http://www.w3.org/2000/svg" xmlns:xlink="http://www.w3.org/1999/xlink" x="0px" y="0px"
	 viewBox="0 0 1962 211.4" style="enable-background:new 0 0 1962 211.4;" xml:space="preserve">
<style type="text/css">
	.st0{opacity:0.1;fill:#6541A3;}
</style>
<path class="st0" d="M0.7,121.3l0.2-0.5c1.9-1.7,34-29.7,77.2-57.4C152.2,16,201.3,6,229.5,6c51.1,0,81.3,42.4,110.5,83.4
	c27.6,38.7,53.7,75.3,95.5,75.6c0.2,0,0.3,0,0.5,0c20.6,0,36-9.1,47.2-27.8c9.9-16.6,15.4-38.4,20.6-59.5
	C512.7,41.8,521.2,8,550.5,8c35,0,42.6,53.9,49.3,101.4c5.6,40,10.5,74.6,29.7,74.6c18.3,0,24.4-23.3,31.4-50.2
	c9.3-36,19.9-76.8,62.6-76.8c19.2,0,34.5,10,46.9,30.5c10.8,18,17.9,41.8,24.2,62.8c9.4,31.5,17.6,58.7,34.9,58.7
	c15.7,0,23.4-25.5,33.2-57.9c7.8-25.9,16.6-55.2,31.7-78.4C911.6,46,933.9,33,962.5,33c51.1,0,69.2,38.8,88.4,79.9
	c19.5,41.9,39.7,85.1,97.6,85.1c73.5,0,86.8-55.1,97.6-99.3c7.3-30.3,13.7-56.5,37.5-56.7c27.6-0.2,34.8,24.3,42.4,50.3
	c8,27.4,16.3,55.7,49.6,55.7c35.4,0,45.5-37.1,55.3-72.9c9.7-35.5,18.9-69.1,50.7-69.1c30.1,0,44.3,31.9,60.8,68.9
	c20.9,46.9,44.6,100.1,108.2,100.1c108.3,0,297.4-82,310.5-87.7v1.2l1-0.8v-1.9l-0.7,0.3c-2,0.9-199.3,88-310.8,88
	c-63,0-86.5-52.9-107.3-99.5c-16.6-37.3-31-69.5-61.7-69.5c-32.5,0-42.2,35.5-51.6,69.9c-9.7,35.5-19.7,72.1-54.4,72.1
	c-32.6,0-40.8-28-48.7-55c-7.6-26.2-14.9-51-42.9-51c-0.2,0-0.3,0-0.5,0c-24.6,0.2-31,26.8-38.4,57.5c-5.3,22-11.3,46.9-25.1,66
	c-15.7,21.9-39.1,32.5-71.5,32.5c-57.2,0-77.3-43-96.7-84.5c-9.3-19.8-18.8-40.3-32.3-55.4c-15.1-16.9-33.8-25.1-57-25.1
	c-28.9,0-51.5,13.2-69,40.2c-15.1,23.3-24,52.7-31.8,78.6c-9.6,31.9-17.2,57.2-32.2,57.2c-16.6,0-24.6-26.9-33.9-58
	c-6.3-21-13.5-44.9-24.3-63c-12.5-20.9-28.1-31-47.7-31c-43.5,0-54.2,41.2-63.6,77.6C653,160.1,647,183,629.5,183
	c-18.4,0-23.4-35.8-28.8-73.7C593.9,61.3,586.3,7,550.5,7c-30.1,0-38.6,34.2-47.6,70.4C492.2,120,481.3,164,436,164
	c-0.2,0-0.3,0-0.5,0c-41.2-0.3-67.2-36.7-94.7-75.2C311.4,47.6,281,5,229.5,5C178.2,5,118.5,36.3,77.5,62.6
	C33.2,91,0.4,119.8,0.1,120.1L0,120.2l0,0.1L0.7,121.3z"/>
</svg>
